<svg width="142" height="128" viewBox="0 0 142 128" fill="none" xmlns="http://www.w3.org/2000/svg">
<rect x="17" y="30.9999" width="105" height="97" rx="11" fill="url(#paint0_linear_8_179)"/>
<rect x="25.7444" y="105.448" width="3.3985" height="5.58621" rx="1.69925" fill="#241F31"/>
<rect x="25.7444" y="119.414" width="3.3985" height="5.58621" rx="1.69925" fill="#241F31"/>
<rect x="33.391" y="105.448" width="3.3985" height="5.58621" rx="1.69925" fill="#241F31"/>
<rect x="33.391" y="119.414" width="3.3985" height="5.58621" rx="1.69925" fill="#241F31"/>
<rect x="41.0376" y="105.448" width="3.3985" height="5.58621" rx="1.69925" fill="#241F31"/>
<rect x="41.0376" y="119.414" width="3.3985" height="5.58621" rx="1.69925" fill="#241F31"/>
<rect x="48.6842" y="105.448" width="3.3985" height="5.58621" rx="1.69925" fill="#241F31"/>
<rect x="48.6842" y="119.414" width="3.3985" height="5.58621" rx="1.69925" fill="#241F31"/>
<rect x="56.3308" y="105.448" width="3.3985" height="5.58621" rx="1.69925" fill="#241F31"/>
<rect x="56.3308" y="119.414" width="3.3985" height="5.58621" rx="1.69925" fill="#241F31"/>
<rect x="63.9775" y="105.448" width="3.3985" height="5.58621" rx="1.69925" fill="#241F31"/>
<rect x="63.9775" y="119.414" width="3.3985" height="5.58621" rx="1.69925" fill="#241F31"/>
<rect x="71.6241" y="105.448" width="3.3985" height="5.58621" rx="1.69925" fill="#241F31"/>
<rect x="71.6241" y="119.414" width="3.3985" height="5.58621" rx="1.69925" fill="#241F31"/>
<rect x="79.2707" y="105.448" width="3.3985" height="5.58621" rx="1.69925" fill="#241F31"/>
<rect x="79.2707" y="119.414" width="3.3985" height="5.58621" rx="1.69925" fill="#241F31"/>
<rect x="86.9173" y="105.448" width="3.3985" height="5.58621" rx="1.69925" fill="#241F31"/>
<rect x="86.9173" y="119.414" width="3.3985" height="5.58621" rx="1.69925" fill="#241F31"/>
<rect x="94.5639" y="105.448" width="3.3985" height="5.58621" rx="1.69925" fill="#241F31"/>
<rect x="94.5639" y="119.414" width="3.3985" height="5.58621" rx="1.69925" fill="#241F31"/>
<rect x="102.211" y="105.448" width="3.3985" height="5.58621" rx="1.69925" fill="#241F31"/>
<rect x="102.211" y="119.414" width="3.3985" height="5.58621" rx="1.69925" fill="#241F31"/>
<rect x="109.857" y="105.448" width="3.3985" height="5.58621" rx="1.69925" fill="#241F31"/>
<rect x="109.857" y="119.414" width="3.3985" height="5.58621" rx="1.69925" fill="#241F31"/>
<rect x="21.4963" y="97.9999" width="3.3985" height="5.58621" rx="1.69925" fill="#241F31"/>
<rect x="21.4963" y="111.965" width="3.3985" height="5.58621" rx="1.69925" fill="#241F31"/>
<rect x="29.1429" y="97.9999" width="3.3985" height="5.58621" rx="1.69925" fill="#241F31"/>
<rect x="29.1429" y="111.965" width="3.3985" height="5.58621" rx="1.69925" fill="#241F31"/>
<rect x="36.7895" y="97.9999" width="3.3985" height="5.58621" rx="1.69925" fill="#241F31"/>
<rect x="36.7895" y="111.965" width="3.3985" height="5.58621" rx="1.69925" fill="#241F31"/>
<rect x="44.4361" y="97.9999" width="3.3985" height="5.58621" rx="1.69925" fill="#241F31"/>
<rect x="44.4361" y="111.965" width="3.3985" height="5.58621" rx="1.69925" fill="#241F31"/>
<rect x="52.0827" y="97.9999" width="3.3985" height="5.58621" rx="1.69925" fill="#241F31"/>
<rect x="52.0827" y="111.965" width="3.3985" height="5.58621" rx="1.69925" fill="#241F31"/>
<rect x="59.7293" y="97.9999" width="3.3985" height="5.58621" rx="1.69925" fill="#241F31"/>
<rect x="59.7293" y="111.965" width="3.3985" height="5.58621" rx="1.69925" fill="#241F31"/>
<rect x="67.3759" y="97.9999" width="3.3985" height="5.58621" rx="1.69925" fill="#241F31"/>
<rect x="67.3759" y="111.965" width="3.3985" height="5.58621" rx="1.69925" fill="#241F31"/>
<rect x="75.0226" y="97.9999" width="3.3985" height="5.58621" rx="1.69925" fill="#241F31"/>
<rect x="75.0226" y="111.965" width="3.3985" height="5.58621" rx="1.69925" fill="#241F31"/>
<rect x="82.6692" y="97.9999" width="3.3985" height="5.58621" rx="1.69925" fill="#241F31"/>
<rect x="82.6692" y="111.965" width="3.3985" height="5.58621" rx="1.69925" fill="#241F31"/>
<rect x="90.3158" y="97.9999" width="3.3985" height="5.58621" rx="1.69925" fill="#241F31"/>
<rect x="90.3158" y="111.965" width="3.3985" height="5.58621" rx="1.69925" fill="#241F31"/>
<rect x="97.9624" y="97.9999" width="3.3985" height="5.58621" rx="1.69925" fill="#241F31"/>
<rect x="97.9624" y="111.965" width="3.3985" height="5.58621" rx="1.69925" fill="#241F31"/>
<rect x="105.609" y="97.9999" width="3.3985" height="5.58621" rx="1.69925" fill="#241F31"/>
<rect x="105.609" y="111.965" width="3.3985" height="5.58621" rx="1.69925" fill="#241F31"/>
<rect x="113.256" y="97.9999" width="3.3985" height="5.58621" rx="1.69925" fill="#241F31"/>
<rect x="113.256" y="111.965" width="3.3985" height="5.58621" rx="1.69925" fill="#241F31"/>
<rect x="13" y="56.9999" width="113" height="40" rx="12" fill="url(#paint1_linear_8_179)"/>
<rect x="13" y="8.99989" width="113" height="81" rx="12" fill="#5E5C64"/>
<rect x="19" y="18.9999" width="101" height="61" rx="9" fill="#241F31"/>
<g clip-path="url(#clip0_8_179)">
<path d="M44.2255 19.792L47.5928 42.7161L65.932 40.0222L65.2585 35.4374L44.2255 19.792ZM34.1104 30.6453C30.3315 31.2004 27.6883 34.7538 28.2434 38.5327C28.7984 42.3116 32.3519 44.9548 36.1308 44.3997C39.9096 43.8446 42.5528 40.2912 41.9978 36.5123C41.4427 32.7334 37.8892 30.0902 34.1104 30.6453ZM34.7838 35.2301C36.0733 35.0407 37.2236 35.8963 37.413 37.1858C37.6024 38.4752 36.7468 39.6255 35.4573 39.8149C34.1678 40.0043 33.0176 39.1487 32.8282 37.8592C32.6387 36.5698 33.4944 35.4195 34.7838 35.2301ZM29.927 49.9947L30.6005 54.5795L58.1093 50.5387L57.4358 45.9539L29.927 49.9947ZM31.2739 59.1643L31.9474 63.7491L59.4562 59.7083L58.7827 55.1235L31.2739 59.1643ZM32.6209 68.3339L33.2943 72.9187L60.8031 68.8779L60.1297 64.2931L32.6209 68.3339Z" fill="url(#paint2_linear_8_179)"/>
<path d="M19.5399 74.9391C20.658 82.5506 27.7032 87.7912 35.3147 86.6731L62.8235 82.6324C70.435 81.5143 75.6756 74.4691 74.5575 66.8576L70.5168 39.3488C69.9064 35.1938 67.6748 31.4599 64.3062 28.9542L50.7086 18.8397C47.3401 16.334 43.1222 15.2704 38.9672 15.8807L25.2128 17.9011C17.6013 19.0191 12.3607 26.0644 13.4788 33.6759L19.5399 74.9391ZM26.5597 27.0707L40.3141 25.0503C42.0334 24.7978 43.781 25.2363 45.1778 26.2752L58.7753 36.3897C60.172 37.4287 61.0946 38.9764 61.3472 40.6957L65.3879 68.2045C65.7562 70.7118 63.9839 73.0945 61.4766 73.4628L33.9678 77.5035C31.4605 77.8718 29.0778 76.0995 28.7095 73.5922L22.6484 32.329C22.2801 29.8216 24.0524 27.439 26.5597 27.0707Z" fill="url(#paint3_linear_8_179)"/>
</g>
<g clip-path="url(#clip1_8_179)">
<path d="M44.0146 18.0947L47.382 41.0188L65.7212 38.3249L65.0477 33.7401L44.0146 18.0947ZM33.8996 28.948C30.1207 29.5031 27.4775 33.0565 28.0326 36.8354C28.5876 40.6143 32.1411 43.2575 35.9199 42.7024C39.6988 42.1473 42.342 38.5939 41.787 34.815C41.2319 31.0361 37.6784 28.3929 33.8996 28.948ZM34.573 33.5328C35.8625 33.3434 37.0127 34.199 37.2022 35.4885C37.3916 36.778 36.536 37.9282 35.2465 38.1176C33.957 38.307 32.8068 37.4514 32.6174 36.1619C32.4279 34.8725 33.2836 33.7222 34.573 33.5328ZM29.7162 48.2974L30.3897 52.8822L57.8985 48.8414L57.225 44.2566L29.7162 48.2974ZM31.0631 57.467L31.7366 62.0518L59.2454 58.011L58.5719 53.4262L31.0631 57.467ZM32.4101 66.6366L33.0835 71.2214L60.5923 67.1806L59.9189 62.5958L32.4101 66.6366Z" fill="url(#paint4_linear_8_179)"/>
<path d="M19.3291 73.2418C20.4472 80.8533 27.4924 86.0939 35.1039 84.9758L62.6127 80.9351C70.2242 79.817 75.4648 72.7718 74.3467 65.1603L70.306 37.6515C69.6956 33.4965 67.464 29.7626 64.0954 27.2569L50.4978 17.1424C47.1293 14.6367 42.9114 13.5731 38.7564 14.1834L25.002 16.2038C17.3905 17.3218 12.1499 24.3671 13.268 31.9786L19.3291 73.2418ZM26.3489 25.3734L40.1033 23.353C41.8226 23.1005 43.5702 23.539 44.967 24.5779L58.5645 34.6924C59.9612 35.7314 60.8838 37.2791 61.1364 38.9984L65.1771 66.5072C65.5454 69.0145 63.7731 71.3972 61.2658 71.7655L33.757 75.8062C31.2497 76.1745 28.867 74.4022 28.4987 71.8949L22.4376 30.6317C22.0693 28.1244 23.8416 25.7417 26.3489 25.3734Z" fill="url(#paint5_linear_8_179)"/>
</g>
<g clip-path="url(#clip2_8_179)">
<path d="M97.5961 22.7968C79.3149 20.0732 62.1652 32.7754 59.4416 51.0566C56.718 69.3378 69.4202 86.4874 87.7014 89.211C105.983 91.9346 123.132 79.2325 125.856 60.9512C128.579 42.67 115.877 25.5204 97.5961 22.7968ZM104.234 34.2519C108.233 36.368 111.51 39.5259 113.775 43.3108L108.344 42.5017C107.397 39.6026 106.026 36.8172 104.234 34.2519ZM87.7611 31.8507C85.3334 33.7873 83.2155 36.0176 81.4671 38.4974L76.1401 37.7038C79.3701 34.7729 83.3861 32.737 87.7611 31.8507ZM93.7847 33.1901L92.7437 40.1774L86.5519 39.255C88.5521 36.8657 90.9632 34.8029 93.7847 33.1901ZM98.202 33.9189C100.381 36.2591 102.072 38.9153 103.277 41.7467L97.1713 40.8371L98.202 33.9189ZM72.5922 41.7011L78.9742 42.6519C77.5977 45.3639 76.5639 48.2684 75.9253 51.2495L68.7305 50.1775C69.4787 47.0537 70.8239 44.1956 72.5922 41.7011ZM83.6958 43.3553L92.084 44.6051L90.7648 53.4603L80.3875 51.9143C81.046 48.9185 82.149 46.0243 83.6958 43.3553ZM96.5117 45.2647L104.813 46.5015C105.515 49.5055 105.727 52.5955 105.483 55.6531L95.1924 54.1199L96.5117 45.2647ZM109.535 47.205L116.004 48.1687C116.968 51.0703 117.421 54.1964 117.227 57.4027L109.945 56.3179C110.203 53.2801 110.061 50.2004 109.535 47.205ZM68.0708 54.6052L75.2657 55.6771C75.0249 58.7174 75.1499 61.7945 75.6932 64.7926L69.2939 63.8392C68.3296 60.9375 67.876 57.8114 68.0708 54.6052ZM79.7279 56.3419L90.1051 57.8879L88.7858 66.7431L80.4149 65.496C79.7107 62.5094 79.5018 59.4021 79.7279 56.3419ZM94.5327 58.5476L104.823 60.0807C104.148 63.0739 103.042 65.9854 101.498 68.637L93.2134 67.4028L94.5327 58.5476ZM109.286 60.7455L116.567 61.8303C115.819 64.9541 114.474 67.8122 112.705 70.3068L106.22 69.3405C107.613 66.631 108.63 63.724 109.286 60.7455ZM71.5226 68.6971L76.8842 69.4959C77.8659 72.4001 79.2538 75.1881 81.0634 77.756C77.065 75.6398 73.7874 72.482 71.5226 68.6971ZM81.9863 70.256L88.1262 71.1708L87.1032 78.037C84.9039 75.7116 83.1936 73.0701 81.9863 70.256ZM92.5538 71.8304L98.6072 72.7323C96.652 75.0575 94.2857 77.0563 91.5411 78.6275L92.5538 71.8304ZM103.709 73.4924L109.157 74.3041C105.848 77.2938 101.738 79.3687 97.2467 80.2024C99.7609 78.2786 101.921 76.0016 103.709 73.4924Z" fill="url(#paint6_linear_8_179)"/>
</g>
<g clip-path="url(#clip3_8_179)">
<path d="M98.4023 19.5264C80.1211 16.8028 62.9715 29.505 60.2479 47.7862C57.5242 66.0674 70.2264 83.217 88.5076 85.9406C106.789 88.6642 123.938 75.962 126.662 57.6808C129.386 39.3996 116.683 22.25 98.4023 19.5264ZM105.04 30.9815C109.039 33.0976 112.316 36.2554 114.581 40.0403L109.15 39.2312C108.203 36.3322 106.833 33.5468 105.04 30.9815ZM88.5674 28.5803C86.1396 30.5169 84.0218 32.7472 82.2733 35.227L76.9463 34.4334C80.1763 31.5025 84.1923 29.4666 88.5674 28.5803ZM94.5909 29.9197L93.5499 36.907L87.3582 35.9845C89.3583 33.5953 91.7695 31.5325 94.5909 29.9197ZM99.0082 30.6485C101.188 32.9887 102.878 35.6449 104.083 38.4762L97.9775 37.5667L99.0082 30.6485ZM73.3984 38.4307L79.7804 39.3815C78.404 42.0935 77.3701 44.998 76.7316 47.979L69.5367 46.9071C70.2849 43.7833 71.6301 40.9252 73.3984 38.4307ZM84.502 40.0849L92.8903 41.3346L91.571 50.1899L81.1938 48.6438C81.8522 45.6481 82.9552 42.7539 84.502 40.0849ZM97.3179 41.9943L105.62 43.2311C106.321 46.235 106.533 49.325 106.289 52.3827L95.9986 50.8495L97.3179 41.9943ZM110.341 43.9346L116.81 44.8983C117.774 47.7999 118.228 50.926 118.033 54.1323L110.752 53.0475C111.01 50.0097 110.867 46.93 110.341 43.9346ZM68.877 51.3347L76.0719 52.4066C75.8311 55.447 75.9561 58.5241 76.4995 61.5221L70.1002 60.5687C69.1358 57.6671 68.6822 54.541 68.877 51.3347ZM80.5341 53.0714L90.9113 54.6175L89.592 63.4727L81.2211 62.2256C80.5169 59.2389 80.308 56.1316 80.5341 53.0714ZM95.3389 55.2771L105.63 56.8103C104.954 59.8035 103.848 62.7149 102.304 65.3666L94.0197 64.1324L95.3389 55.2771ZM110.092 57.4751L117.373 58.5599C116.625 61.6837 115.28 64.5418 113.512 67.0363L107.026 66.0701C108.419 63.3606 109.436 60.4535 110.092 57.4751ZM72.3288 65.4267L77.6904 66.2255C78.6721 69.1297 80.06 71.9176 81.8696 74.4855C77.8712 72.3694 74.5936 69.2115 72.3288 65.4267ZM82.7925 66.9856L88.9324 67.9003L87.9094 74.7666C85.7101 72.4412 83.9998 69.7997 82.7925 66.9856ZM93.36 68.56L99.4134 69.4618C97.4582 71.7871 95.0919 73.7859 92.3474 75.357L93.36 68.56ZM104.516 70.222L109.964 71.0336C106.654 74.0234 102.544 76.0983 98.053 76.9319C100.567 75.0082 102.727 72.7312 104.516 70.222Z" fill="url(#paint7_linear_8_179)"/>
</g>
<path d="M61.6099 33.2498C58.7871 33.2498 56.4849 35.524 56.4849 38.3123C56.4849 41.1205 58.7871 43.3748 61.6099 43.3748C64.4326 43.3748 66.7349 41.1205 66.7349 38.3123C66.7349 35.524 64.4326 33.2498 61.6099 33.2498ZM77.8257 44.2647L68.8569 56.6046C68.3364 57.3363 67.5156 57.7911 66.6148 57.8504C65.7139 57.9295 64.833 57.5934 64.1924 56.9605L62.0903 54.8446C61.1494 53.8756 59.8081 53.401 58.4668 53.5196C57.1255 53.658 55.9043 54.37 55.1636 55.4774L51.3599 61.0936V66.1561C51.3599 68.6874 53.9224 68.6874 53.9224 68.6874H89.7974C89.7974 68.6874 92.2197 68.5291 92.3599 66.1561V55.2796C92.3599 54.0536 91.9395 52.867 91.1387 51.9178L84.5923 44.0472C83.7515 43.0387 82.4902 42.485 81.1689 42.5245C79.8276 42.5641 78.6064 43.2166 77.8257 44.2647Z" fill="url(#paint8_linear_8_179)"/>
<path d="M51.3599 12.9998C42.9316 12.9998 35.9849 19.8619 35.9849 28.1873V68.6873C35.9849 77.0326 42.9316 83.8748 51.3599 83.8748H92.3599C100.788 83.8748 107.735 77.0326 107.735 68.6873V28.1873C107.735 19.8619 100.788 12.9998 92.3599 12.9998H51.3599ZM51.3599 23.1248H92.3599C95.2827 23.1248 97.4849 25.3001 97.4849 28.1873V68.6873C97.4849 71.5943 95.2827 73.7498 92.3599 73.7498H51.3599C48.437 73.7498 46.2349 71.5943 46.2349 68.6873V28.1873C46.2349 25.3001 48.437 23.1248 51.3599 23.1248Z" fill="url(#paint9_linear_8_179)"/>
<path d="M61.6099 31.2499C58.7871 31.2499 56.4849 33.5241 56.4849 36.3124C56.4849 39.1205 58.7871 41.3749 61.6099 41.3749C64.4326 41.3749 66.7349 39.1205 66.7349 36.3124C66.7349 33.5241 64.4326 31.2499 61.6099 31.2499ZM77.8257 42.2648L68.8569 54.6046C68.3364 55.3363 67.5156 55.7911 66.6148 55.8505C65.7139 55.9296 64.833 55.5934 64.1924 54.9606L62.0903 52.8446C61.1494 51.8756 59.8081 51.401 58.4668 51.5197C57.1255 51.6581 55.9043 52.37 55.1636 53.4774L51.3599 59.0936V64.1561C51.3599 66.6874 53.9224 66.6874 53.9224 66.6874H89.7974C89.7974 66.6874 92.2197 66.5292 92.3599 64.1561V53.2797C92.3599 52.0536 91.9395 50.8671 91.1387 49.9179L84.5923 42.0473C83.7515 41.0387 82.4902 40.485 81.1689 40.5246C79.8276 40.5641 78.6064 41.2167 77.8257 42.2648Z" fill="url(#paint10_linear_8_179)"/>
<path d="M51.3599 10.9999C42.9316 10.9999 35.9849 17.8619 35.9849 26.1874V66.6874C35.9849 75.0326 42.9316 81.8749 51.3599 81.8749H92.3599C100.788 81.8749 107.735 75.0326 107.735 66.6874V26.1874C107.735 17.8619 100.788 10.9999 92.3599 10.9999H51.3599ZM51.3599 21.1249H92.3599C95.2827 21.1249 97.4849 23.3002 97.4849 26.1874V66.6874C97.4849 69.5944 95.2827 71.7499 92.3599 71.7499H51.3599C48.437 71.7499 46.2349 69.5944 46.2349 66.6874V26.1874C46.2349 23.3002 48.437 21.1249 51.3599 21.1249Z" fill="url(#paint11_linear_8_179)"/>
<path fill-rule="evenodd" clip-rule="evenodd" d="M13 54.9999V77.9999C13 84.6273 18.3726 89.9999 25 89.9999H114C120.627 89.9999 126 84.6273 126 77.9999V63.9999C126 71.4149 120.956 77.6517 114.112 79.4666C113.157 79.8117 112.127 79.9999 111.053 79.9999L110 79.9999H38L27.9474 79.9999C23.0401 79.9999 19.0501 76.0724 18.9493 71.1893C15.2389 66.8274 13 61.1751 13 54.9999ZM126 21.9999V20.9999C126 14.3725 120.627 8.99989 114 8.99989H113.014C120.187 9.00758 126 14.8249 126 21.9999Z" fill="#5E5C64"/>
<defs>
<linearGradient id="paint0_linear_8_179" x1="17" y1="128" x2="122" y2="128" gradientUnits="userSpaceOnUse">
<stop stop-color="#5E5C64"/>
<stop offset="0.05" stop-color="#3D3846"/>
<stop offset="0.1" stop-color="#5E5C64"/>
<stop offset="0.9" stop-color="#5E5C64"/>
<stop offset="0.95" stop-color="#3D3846"/>
<stop offset="1" stop-color="#5E5C64"/>
</linearGradient>
<linearGradient id="paint1_linear_8_179" x1="13" y1="76.9999" x2="126" y2="76.9999" gradientUnits="userSpaceOnUse">
<stop stop-color="#3D3846"/>
<stop offset="0.05" stop-color="#241F31"/>
<stop offset="0.1" stop-color="#3D3846"/>
<stop offset="0.9" stop-color="#3D3846"/>
<stop offset="0.95" stop-color="#241F31"/>
<stop offset="1" stop-color="#3D3846"/>
</linearGradient>
<linearGradient id="paint2_linear_8_179" x1="29.506" y1="46.0124" x2="53.604" y2="45.6968" gradientUnits="userSpaceOnUse">
<stop stop-color="#E5A50A"/>
<stop offset="1" stop-color="#A51D2D"/>
</linearGradient>
<linearGradient id="paint3_linear_8_179" x1="16.4163" y1="51.9999" x2="52.5" y2="51.9999" gradientUnits="userSpaceOnUse">
<stop stop-color="#E5A50A"/>
<stop offset="1" stop-color="#A51D2D"/>
</linearGradient>
<linearGradient id="paint4_linear_8_179" x1="29.1951" y1="44.2056" x2="61.2425" y2="43.5631" gradientUnits="userSpaceOnUse">
<stop stop-color="#F8E45C"/>
<stop offset="1" stop-color="#C01C28"/>
</linearGradient>
<linearGradient id="paint5_linear_8_179" x1="16.0578" y1="50.155" x2="64.0578" y2="49.7892" gradientUnits="userSpaceOnUse">
<stop stop-color="#F8E45C"/>
<stop offset="1" stop-color="#C01C28"/>
</linearGradient>
<linearGradient id="paint6_linear_8_179" x1="72.2316" y1="96.0788" x2="85.5473" y2="44.4137" gradientUnits="userSpaceOnUse">
<stop stop-color="#33D17A"/>
<stop offset="1" stop-color="#26A269"/>
</linearGradient>
<linearGradient id="paint7_linear_8_179" x1="61.3144" y1="85.691" x2="98.0622" y2="21.2492" gradientUnits="userSpaceOnUse">
<stop stop-color="#8FF0A4"/>
<stop offset="1" stop-color="#26A269"/>
</linearGradient>
<linearGradient id="paint8_linear_8_179" x1="48.5114" y1="17.4999" x2="75.7521" y2="90.1418" gradientUnits="userSpaceOnUse">
<stop stop-color="#FF7800"/>
<stop offset="0.345836" stop-color="#C061CB"/>
<stop offset="1" stop-color="#1A5FB4"/>
</linearGradient>
<linearGradient id="paint9_linear_8_179" x1="31" y1="-18.5001" x2="91" y2="121.5" gradientUnits="userSpaceOnUse">
<stop stop-color="#FF7800"/>
<stop offset="0.345836" stop-color="#C061CB"/>
<stop offset="1" stop-color="#1A5FB4"/>
</linearGradient>
<linearGradient id="paint10_linear_8_179" x1="46.5114" y1="6.99989" x2="57.7598" y2="74.5532" gradientUnits="userSpaceOnUse">
<stop stop-color="#E5A50A"/>
<stop offset="0.365978" stop-color="#DC8ADD"/>
<stop offset="1" stop-color="#3584E4"/>
</linearGradient>
<linearGradient id="paint11_linear_8_179" x1="27.5" y1="-37.5001" x2="53" y2="96.4999" gradientUnits="userSpaceOnUse">
<stop stop-color="#E5A50A"/>
<stop offset="0.365978" stop-color="#DC8ADD"/>
<stop offset="1" stop-color="#3584E4"/>
</linearGradient>
<clipPath id="clip0_8_179">
<rect width="69" height="69" fill="white" transform="translate(8.7108 19.7251) rotate(-8.35642)"/>
</clipPath>
<clipPath id="clip1_8_179">
<rect width="69" height="69" fill="white" transform="translate(8.5 18.0278) rotate(-8.35642)"/>
</clipPath>
<clipPath id="clip2_8_179">
<rect width="71.6237" height="71.6237" fill="white" transform="translate(64.389 17.8495) rotate(8.47382)"/>
</clipPath>
<clipPath id="clip3_8_179">
<rect width="71.6237" height="71.6237" fill="white" transform="translate(65.1952 14.5791) rotate(8.47382)"/>
</clipPath>
</defs>
</svg>
