<svg width="137" height="122" viewBox="0 0 137 122" fill="none" xmlns="http://www.w3.org/2000/svg">
<rect x="16" y="25" width="105" height="97" rx="11" fill="url(#paint0_linear_8_179)"/>
<rect x="24.7444" y="99.4483" width="3.3985" height="5.58621" rx="1.69925" fill="#241F31"/>
<rect x="24.7444" y="113.414" width="3.3985" height="5.58621" rx="1.69925" fill="#241F31"/>
<rect x="32.391" y="99.4483" width="3.3985" height="5.58621" rx="1.69925" fill="#241F31"/>
<rect x="32.391" y="113.414" width="3.3985" height="5.58621" rx="1.69925" fill="#241F31"/>
<rect x="40.0376" y="99.4483" width="3.3985" height="5.58621" rx="1.69925" fill="#241F31"/>
<rect x="40.0376" y="113.414" width="3.3985" height="5.58621" rx="1.69925" fill="#241F31"/>
<rect x="47.6842" y="99.4483" width="3.3985" height="5.58621" rx="1.69925" fill="#241F31"/>
<rect x="47.6842" y="113.414" width="3.3985" height="5.58621" rx="1.69925" fill="#241F31"/>
<rect x="55.3308" y="99.4483" width="3.3985" height="5.58621" rx="1.69925" fill="#241F31"/>
<rect x="55.3308" y="113.414" width="3.3985" height="5.58621" rx="1.69925" fill="#241F31"/>
<rect x="62.9774" y="99.4483" width="3.3985" height="5.58621" rx="1.69925" fill="#241F31"/>
<rect x="62.9774" y="113.414" width="3.3985" height="5.58621" rx="1.69925" fill="#241F31"/>
<rect x="70.6241" y="99.4483" width="3.3985" height="5.58621" rx="1.69925" fill="#241F31"/>
<rect x="70.6241" y="113.414" width="3.3985" height="5.58621" rx="1.69925" fill="#241F31"/>
<rect x="78.2707" y="99.4483" width="3.3985" height="5.58621" rx="1.69925" fill="#241F31"/>
<rect x="78.2707" y="113.414" width="3.3985" height="5.58621" rx="1.69925" fill="#241F31"/>
<rect x="85.9173" y="99.4483" width="3.3985" height="5.58621" rx="1.69925" fill="#241F31"/>
<rect x="85.9173" y="113.414" width="3.3985" height="5.58621" rx="1.69925" fill="#241F31"/>
<rect x="93.5639" y="99.4483" width="3.3985" height="5.58621" rx="1.69925" fill="#241F31"/>
<rect x="93.5639" y="113.414" width="3.3985" height="5.58621" rx="1.69925" fill="#241F31"/>
<rect x="101.211" y="99.4483" width="3.3985" height="5.58621" rx="1.69925" fill="#241F31"/>
<rect x="101.211" y="113.414" width="3.3985" height="5.58621" rx="1.69925" fill="#241F31"/>
<rect x="108.857" y="99.4483" width="3.3985" height="5.58621" rx="1.69925" fill="#241F31"/>
<rect x="108.857" y="113.414" width="3.3985" height="5.58621" rx="1.69925" fill="#241F31"/>
<rect x="20.4962" y="92" width="3.3985" height="5.58621" rx="1.69925" fill="#241F31"/>
<rect x="20.4962" y="105.966" width="3.3985" height="5.58621" rx="1.69925" fill="#241F31"/>
<rect x="28.1429" y="92" width="3.3985" height="5.58621" rx="1.69925" fill="#241F31"/>
<rect x="28.1429" y="105.966" width="3.3985" height="5.58621" rx="1.69925" fill="#241F31"/>
<rect x="35.7895" y="92" width="3.3985" height="5.58621" rx="1.69925" fill="#241F31"/>
<rect x="35.7895" y="105.966" width="3.3985" height="5.58621" rx="1.69925" fill="#241F31"/>
<rect x="43.4361" y="92" width="3.3985" height="5.58621" rx="1.69925" fill="#241F31"/>
<rect x="43.4361" y="105.966" width="3.3985" height="5.58621" rx="1.69925" fill="#241F31"/>
<rect x="51.0827" y="92" width="3.3985" height="5.58621" rx="1.69925" fill="#241F31"/>
<rect x="51.0827" y="105.966" width="3.3985" height="5.58621" rx="1.69925" fill="#241F31"/>
<rect x="58.7293" y="92" width="3.3985" height="5.58621" rx="1.69925" fill="#241F31"/>
<rect x="58.7293" y="105.966" width="3.3985" height="5.58621" rx="1.69925" fill="#241F31"/>
<rect x="66.3759" y="92" width="3.3985" height="5.58621" rx="1.69925" fill="#241F31"/>
<rect x="66.3759" y="105.966" width="3.3985" height="5.58621" rx="1.69925" fill="#241F31"/>
<rect x="74.0226" y="92" width="3.3985" height="5.58621" rx="1.69925" fill="#241F31"/>
<rect x="74.0226" y="105.966" width="3.3985" height="5.58621" rx="1.69925" fill="#241F31"/>
<rect x="81.6692" y="92" width="3.3985" height="5.58621" rx="1.69925" fill="#241F31"/>
<rect x="81.6692" y="105.966" width="3.3985" height="5.58621" rx="1.69925" fill="#241F31"/>
<rect x="89.3158" y="92" width="3.3985" height="5.58621" rx="1.69925" fill="#241F31"/>
<rect x="89.3158" y="105.966" width="3.3985" height="5.58621" rx="1.69925" fill="#241F31"/>
<rect x="96.9624" y="92" width="3.3985" height="5.58621" rx="1.69925" fill="#241F31"/>
<rect x="96.9624" y="105.966" width="3.3985" height="5.58621" rx="1.69925" fill="#241F31"/>
<rect x="104.609" y="92" width="3.3985" height="5.58621" rx="1.69925" fill="#241F31"/>
<rect x="104.609" y="105.966" width="3.3985" height="5.58621" rx="1.69925" fill="#241F31"/>
<rect x="112.256" y="92" width="3.3985" height="5.58621" rx="1.69925" fill="#241F31"/>
<rect x="112.256" y="105.966" width="3.3985" height="5.58621" rx="1.69925" fill="#241F31"/>
<rect x="12" y="51" width="113" height="40" rx="12" fill="url(#paint1_linear_8_179)"/>
<rect x="12" y="3" width="113" height="81" rx="12" fill="#5E5C64"/>
<rect x="18" y="13" width="101" height="61" rx="9" fill="#241F31"/>
<g clip-path="url(#clip0_8_179)">
<path d="M35.2839 15.8162L41.2808 38.1967L59.1852 33.3993L57.9858 28.9232L35.2839 15.8162ZM26.4924 27.7668C22.8031 28.7554 20.5888 32.5908 21.5773 36.28C22.5658 39.9693 26.4012 42.1837 30.0905 41.1951C33.7798 40.2066 35.9941 36.3712 35.0056 32.6819C34.0171 28.9927 30.1817 26.7783 26.4924 27.7668ZM27.6918 32.2429C28.9507 31.9056 30.1922 32.6224 30.5295 33.8813C30.8668 35.1402 30.15 36.3817 28.8911 36.719C27.6322 37.0564 26.3907 36.3396 26.0534 35.0807C25.7161 33.8218 26.4329 32.5803 27.6918 32.2429ZM24.5757 47.4703L25.7751 51.9464L52.6317 44.7502L51.4323 40.2741L24.5757 47.4703ZM26.9745 56.4225L28.1738 60.8986L55.0304 53.7024L53.8311 49.2263L26.9745 56.4225ZM29.3732 65.3747L30.5726 69.8508L57.4292 62.6546L56.2298 58.1785L29.3732 65.3747Z" fill="#1A5FB4"/>
<path d="M17.1443 73.4489C19.1354 80.8799 26.7396 85.2702 34.1707 83.2791L61.0273 76.0829C68.4583 74.0918 72.8486 66.4875 70.8575 59.0565L63.6613 32.1999C62.5743 28.1434 59.9257 24.6928 56.2898 22.5937L41.6134 14.1203C37.9776 12.0211 33.6649 11.4526 29.6084 12.5395L16.1801 16.1376C8.74912 18.1287 4.35881 25.733 6.34995 33.164L17.1443 73.4489ZM18.5789 25.0898L32.0072 21.4917C33.6857 21.0419 35.4723 21.2753 36.9799 22.1457L51.6563 30.6191C53.1638 31.4895 54.2593 32.9201 54.7091 34.5986L61.9053 61.4552C62.5612 63.9031 61.0764 66.4748 58.6285 67.1307L31.7719 74.3269C29.3241 74.9828 26.7524 73.498 26.0965 71.0502L15.3021 30.7653C14.6462 28.3174 16.131 25.7457 18.5789 25.0898Z" fill="#1A5FB4"/>
</g>
<g clip-path="url(#clip1_8_179)">
<path d="M35.2839 13.8162L41.2808 36.1967L59.1852 31.3993L57.9858 26.9232L35.2839 13.8162ZM26.4924 25.7668C22.8031 26.7554 20.5888 30.5908 21.5773 34.28C22.5658 37.9693 26.4012 40.1837 30.0905 39.1951C33.7798 38.2066 35.9941 34.3712 35.0056 30.6819C34.0171 26.9927 30.1817 24.7783 26.4924 25.7668ZM27.6918 30.2429C28.9507 29.9056 30.1922 30.6224 30.5295 31.8813C30.8668 33.1402 30.15 34.3817 28.8911 34.719C27.6322 35.0564 26.3907 34.3396 26.0534 33.0807C25.7161 31.8218 26.4329 30.5803 27.6918 30.2429ZM24.5757 45.4703L25.7751 49.9464L52.6317 42.7502L51.4323 38.2741L24.5757 45.4703ZM26.9745 54.4225L28.1738 58.8986L55.0304 51.7024L53.8311 47.2263L26.9745 54.4225ZM29.3732 63.3747L30.5726 67.8508L57.4292 60.6546L56.2298 56.1785L29.3732 63.3747Z" fill="#3584E4"/>
<path d="M17.1443 71.4489C19.1354 78.8799 26.7396 83.2702 34.1707 81.2791L61.0273 74.0829C68.4583 72.0918 72.8486 64.4875 70.8575 57.0565L63.6613 30.1999C62.5743 26.1434 59.9257 22.6928 56.2898 20.5937L41.6134 12.1203C37.9776 10.0211 33.6649 9.45257 29.6084 10.5395L16.1801 14.1376C8.74912 16.1287 4.35881 23.733 6.34995 31.164L17.1443 71.4489ZM18.5789 23.0898L32.0072 19.4917C33.6857 19.0419 35.4723 19.2753 36.9799 20.1457L51.6563 28.6191C53.1638 29.4895 54.2593 30.9201 54.7091 32.5986L61.9053 59.4552C62.5612 61.9031 61.0764 64.4748 58.6285 65.1307L31.7719 72.3269C29.3241 72.9828 26.7524 71.498 26.0965 69.0502L15.3021 28.7653C14.6462 26.3174 16.131 23.7457 18.5789 23.0898Z" fill="#3584E4"/>
</g>
<g clip-path="url(#clip2_8_179)">
<path d="M100.9 20.1228C83.9963 16.2016 66.9937 26.8011 63.0725 43.7047C59.1512 60.6082 69.7508 77.6109 86.6543 81.5321C103.558 85.4533 120.561 74.8538 124.482 57.9502C128.403 41.0467 117.803 24.044 100.9 20.1228ZM106.252 31.3411C109.835 33.6216 112.665 36.8228 114.5 40.5348L109.479 39.37C108.81 36.5859 107.737 33.8763 106.252 31.3411ZM91.0164 27.8573C88.5991 29.4874 86.4497 31.4156 84.6273 33.605L79.7018 32.4624C82.9445 29.9621 86.8556 28.3583 91.0164 27.8573ZM96.5528 29.563L95.0541 36.0238L89.329 34.6957C91.3801 32.6099 93.7914 30.8604 96.5528 29.563ZM100.632 30.5767C102.496 32.9302 103.878 35.5429 104.793 38.283L99.148 36.9735L100.632 30.5767ZM76.0814 35.9368L81.9825 37.3057C80.4908 39.7403 79.3053 42.3808 78.4839 45.1226L71.8312 43.5794C72.7659 40.7122 74.2393 38.1385 76.0814 35.9368ZM86.3483 38.3185L94.1044 40.1177L92.205 48.3056L82.6098 46.0798C83.4509 43.3257 84.7004 40.7 86.3483 38.3185ZM98.1983 41.0674L105.875 42.8481C106.306 45.7119 106.271 48.6195 105.814 51.4626L96.2989 49.2553L98.1983 41.0674ZM110.24 43.8609L116.221 45.2483C116.906 48.0362 117.096 50.9957 116.673 53.9816L109.94 52.4198C110.41 49.5963 110.508 46.7036 110.24 43.8609ZM70.8815 47.6733L77.5342 49.2166C77.0805 52.0437 76.9665 54.9327 77.2499 57.7792L71.3329 56.4066C70.6482 53.6187 70.4585 50.6592 70.8815 47.6733ZM81.6601 50.1737L91.2553 52.3996L89.3559 60.5875L81.6158 58.7919C81.181 55.9441 81.2188 53.0205 81.6601 50.1737ZM95.3492 53.3493L104.864 55.5566C104.007 58.307 102.754 60.9486 101.11 63.3142L93.4498 61.5372L95.3492 53.3493ZM108.99 56.5137L115.723 58.0755C114.788 60.9427 113.315 63.5164 111.473 65.7181L105.476 64.3269C106.983 61.896 108.153 59.2518 108.99 56.5137ZM73.0539 61.12L78.0114 62.2701C78.712 65.0616 79.8016 67.7748 81.3023 70.3138C77.7193 68.0333 74.8892 64.8321 73.0539 61.12ZM82.729 63.3645L88.4062 64.6814L86.9334 71.0303C85.0498 68.689 83.6475 66.0886 82.729 63.3645ZM92.5001 65.6311L98.0973 66.9296C96.093 68.9588 93.7286 70.6517 91.0422 71.916L92.5001 65.6311ZM102.815 68.0239L107.852 69.1925C104.531 71.742 100.529 73.3751 96.2634 73.8181C98.7607 72.2066 100.953 70.2379 102.815 68.0239Z" fill="#1A5FB4"/>
</g>
<g clip-path="url(#clip3_8_179)">
<path d="M101.9 17.1228C84.9963 13.2015 67.9937 23.8011 64.0725 40.7046C60.1512 57.6082 70.7508 74.6108 87.6543 78.5321C104.558 82.4533 121.561 71.8537 125.482 54.9502C129.403 38.0466 118.803 21.044 101.9 17.1228ZM107.252 28.341C110.835 30.6215 113.665 33.8228 115.5 37.5348L110.479 36.3699C109.81 33.5858 108.737 30.8763 107.252 28.341ZM92.0164 24.8573C89.5991 26.4874 87.4497 28.4156 85.6273 30.605L80.7018 29.4623C83.9445 26.962 87.8556 25.3583 92.0164 24.8573ZM97.5528 26.563L96.0541 33.0237L90.329 31.6956C92.3801 29.6099 94.7914 27.8604 97.5528 26.563ZM101.632 27.5766C103.496 29.9302 104.878 32.5429 105.793 35.283L100.148 33.9734L101.632 27.5766ZM77.0814 32.9368L82.9825 34.3057C81.4908 36.7403 80.3053 39.3808 79.4839 42.1226L72.8312 40.5793C73.7659 37.7122 75.2393 35.1384 77.0814 32.9368ZM87.3483 35.3184L95.1044 37.1177L93.205 45.3056L83.6098 43.0797C84.4509 40.3256 85.7004 37.7 87.3483 35.3184ZM99.1983 38.0674L106.875 39.8481C107.306 42.7119 107.271 45.6195 106.814 48.4626L97.2989 46.2553L99.1983 38.0674ZM111.24 40.8608L117.221 42.2483C117.906 45.0361 118.096 47.9956 117.673 50.9815L110.94 49.4197C111.41 46.5963 111.508 43.7036 111.24 40.8608ZM71.8815 44.6733L78.5341 46.2166C78.0805 49.0437 77.9665 51.9327 78.2499 54.7791L72.3329 53.4065C71.6482 50.6187 71.4585 47.6592 71.8815 44.6733ZM82.6601 47.1737L92.2553 49.3995L90.3559 57.5874L82.6158 55.7919C82.181 52.9441 82.2188 50.0205 82.6601 47.1737ZM96.3492 50.3492L105.864 52.5566C105.007 55.3069 103.754 57.9486 102.11 60.3141L94.4498 58.5371L96.3492 50.3492ZM109.99 53.5137L116.723 55.0755C115.788 57.9427 114.315 60.5164 112.473 62.7181L106.476 61.3269C107.983 58.896 109.153 56.2518 109.99 53.5137ZM74.0539 58.12L79.0114 59.27C79.712 62.0616 80.8016 64.7748 82.3023 67.3138C78.7193 65.0333 75.8892 61.832 74.0539 58.12ZM83.729 60.3644L89.4062 61.6814L87.9334 68.0302C86.0498 65.6889 84.6475 63.0885 83.729 60.3644ZM93.5001 62.6311L99.0973 63.9295C97.093 65.9587 94.7286 67.6516 92.0422 68.916L93.5001 62.6311ZM103.815 65.0239L108.852 66.1925C105.531 68.7419 101.529 70.3751 97.2634 70.8181C99.7607 69.2066 101.953 67.2379 103.815 65.0239Z" fill="#3584E4"/>
</g>
<path d="M59.6099 25.25C56.7871 25.25 54.4849 27.5241 54.4849 30.3125C54.4849 33.1206 56.7871 35.375 59.6099 35.375C62.4326 35.375 64.7349 33.1206 64.7349 30.3125C64.7349 27.5241 62.4326 25.25 59.6099 25.25ZM75.8257 36.2648L66.8569 48.6047C66.3364 49.3364 65.5156 49.7912 64.6147 49.8505C63.7139 49.9296 62.833 49.5935 62.1924 48.9606L60.0903 46.8447C59.1494 45.8757 57.8081 45.4011 56.4668 45.5197C55.1255 45.6582 53.9043 46.3701 53.1636 47.4775L49.3599 53.0937V58.1562C49.3599 60.6875 51.9224 60.6875 51.9224 60.6875H87.7974C87.7974 60.6875 90.2197 60.5293 90.3599 58.1562V47.2797C90.3599 46.0537 89.9395 44.8671 89.1387 43.9179L82.5923 36.0473C81.7515 35.0388 80.4902 34.4851 79.1689 34.5246C77.8276 34.5642 76.6064 35.2168 75.8257 36.2648Z" fill="#1C71D8"/>
<path d="M49.3599 4.99995C40.9316 4.99995 33.9849 11.862 33.9849 20.1875V60.6875C33.9849 69.0327 40.9316 75.875 49.3599 75.875H90.3599C98.7881 75.875 105.735 69.0327 105.735 60.6875V20.1875C105.735 11.862 98.7881 4.99995 90.3599 4.99995H49.3599ZM49.3599 15.125H90.3599C93.2827 15.125 95.4849 17.3002 95.4849 20.1875V60.6875C95.4849 63.5944 93.2827 65.75 90.3599 65.75H49.3599C46.437 65.75 44.2349 63.5944 44.2349 60.6875V20.1875C44.2349 17.3002 46.437 15.125 49.3599 15.125Z" fill="#1C71D8"/>
<path d="M59.6099 23.25C56.7871 23.25 54.4849 25.5242 54.4849 28.3125C54.4849 31.1206 56.7871 33.375 59.6099 33.375C62.4326 33.375 64.7349 31.1206 64.7349 28.3125C64.7349 25.5242 62.4326 23.25 59.6099 23.25ZM75.8257 34.2649L66.8569 46.6047C66.3364 47.3364 65.5156 47.7913 64.6147 47.8506C63.7139 47.9297 62.833 47.5935 62.1924 46.9607L60.0903 44.8447C59.1494 43.8757 57.8081 43.4011 56.4668 43.5198C55.1255 43.6582 53.9043 44.3701 53.1636 45.4775L49.3599 51.0938V56.1563C49.3599 58.6875 51.9224 58.6875 51.9224 58.6875H87.7974C87.7974 58.6875 90.2197 58.5293 90.3599 56.1563V45.2798C90.3599 44.0537 89.9395 42.8672 89.1387 41.918L82.5923 34.0474C81.7515 33.0388 80.4902 32.4851 79.1689 32.5247C77.8276 32.5642 76.6064 33.2168 75.8257 34.2649Z" fill="#62A0EA"/>
<path d="M49.3599 3C40.9316 3 33.9849 9.86206 33.9849 18.1875V58.6875C33.9849 67.0327 40.9316 73.875 49.3599 73.875H90.3599C98.7881 73.875 105.735 67.0327 105.735 58.6875V18.1875C105.735 9.86206 98.7881 3 90.3599 3H49.3599ZM49.3599 13.125H90.3599C93.2827 13.125 95.4849 15.3003 95.4849 18.1875V58.6875C95.4849 61.5945 93.2827 63.75 90.3599 63.75H49.3599C46.437 63.75 44.2349 61.5945 44.2349 58.6875V18.1875C44.2349 15.3003 46.437 13.125 49.3599 13.125Z" fill="#62A0EA"/>
<path fill-rule="evenodd" clip-rule="evenodd" d="M12 54V72C12 78.6274 17.3726 84 24 84H113C119.627 84 125 78.6274 125 72V55C125 61.2177 122.013 66.7379 117.396 70.2041C115.766 72.5012 113.084 74 110.053 74L106 74H32L26.9474 74C23.4839 74 20.4774 72.0436 18.9726 69.1757C14.7038 65.5078 12 60.0696 12 54ZM125 16V15C125 8.37258 119.627 3 113 3H112.014C119.187 3.00769 125 8.82504 125 16Z" fill="#5E5C64"/>
<defs>
<linearGradient id="paint0_linear_8_179" x1="16" y1="122" x2="121" y2="122" gradientUnits="userSpaceOnUse">
<stop stop-color="#5E5C64"/>
<stop offset="0.05" stop-color="#3D3846"/>
<stop offset="0.1" stop-color="#5E5C64"/>
<stop offset="0.9" stop-color="#5E5C64"/>
<stop offset="0.95" stop-color="#3D3846"/>
<stop offset="1" stop-color="#5E5C64"/>
</linearGradient>
<linearGradient id="paint1_linear_8_179" x1="12" y1="71" x2="125" y2="71" gradientUnits="userSpaceOnUse">
<stop stop-color="#3D3846"/>
<stop offset="0.05" stop-color="#241F31"/>
<stop offset="0.1" stop-color="#3D3846"/>
<stop offset="0.9" stop-color="#3D3846"/>
<stop offset="0.95" stop-color="#241F31"/>
<stop offset="1" stop-color="#3D3846"/>
</linearGradient>
<clipPath id="clip0_8_179">
<rect width="69" height="69" fill="white" transform="translate(0 19.8585) rotate(-15)"/>
</clipPath>
<clipPath id="clip1_8_179">
<rect width="69" height="69" fill="white" transform="translate(0 17.8585) rotate(-15)"/>
</clipPath>
<clipPath id="clip2_8_179">
<rect width="67.2426" height="67.2426" fill="white" transform="translate(70.1952 13) rotate(13.0603)"/>
</clipPath>
<clipPath id="clip3_8_179">
<rect width="67.2426" height="67.2426" fill="white" transform="translate(71.1952 10) rotate(13.0603)"/>
</clipPath>
</defs>
</svg>
