<?xml version="1.0" encoding="UTF-8"?>
<svg height="16px" viewBox="0 0 16 16" width="16px" xmlns="http://www.w3.org/2000/svg">
    <g fill="#ffffff" fill-rule="evenodd">
        <path d="m 1.027344 11.925781 v 2.59375 c 0 0.816407 0.664062 1.480469 1.480468 1.480469 h 10.996094 c 0.816406 0 1.480469 -0.664062 1.480469 -1.480469 v -2.683593 c -0.285156 0.242187 -0.652344 0.390624 -1.050781 0.390624 h -11.964844 c -0.351562 0 -0.675781 -0.113281 -0.941406 -0.300781 z m 0 0"/>
        <path d="m 1.96875 0 c -0.890625 0 -1.613281 0.722656 -1.613281 1.613281 v 7.792969 c 0 0.890625 0.722656 1.613281 1.613281 1.613281 h 11.964844 c 0.890625 0 1.613281 -0.722656 1.613281 -1.613281 v -7.792969 c 0 -0.890625 -0.722656 -1.613281 -1.613281 -1.613281 z m 0.945312 1.359375 c -0.667968 0 -1.210937 0.542969 -1.210937 1.210937 v 5.878907 c 0 0.667969 0.542969 1.210937 1.210937 1.210937 h 10.070313 c 0.667969 0 1.210937 -0.542968 1.210937 -1.210937 v -5.878907 c 0 -0.667968 -0.542968 -1.210937 -1.210937 -1.210937 z m 0 0"/>
    </g>
</svg>
