<?xml version="1.0" encoding="UTF-8"?>
<svg height="16px" viewBox="0 0 16 16" width="16px" xmlns="http://www.w3.org/2000/svg">
    <g fill="#ffffff" fill-rule="evenodd">
        <path d="m 0.769531 11.894531 v 2.179688 c 0 0.824219 0.667969 1.492187 1.488281 1.492187 h 11.570313 c 0.820313 0 1.488281 -0.667968 1.488281 -1.492187 v -2.265625 c -0.28125 0.230468 -0.644531 0.371094 -1.039062 0.371094 h -12.585938 c -0.34375 0 -0.660156 -0.105469 -0.921875 -0.285157 z m 0 0"/>
        <path d="m 1.691406 1.21875 c -0.898437 0 -1.6249998 0.726562 -1.6249998 1.625 v 6.628906 c 0 0.898438 0.7265628 1.625 1.6249998 1.625 h 12.585938 c 0.898437 0 1.625 -0.726562 1.625 -1.625 v -6.628906 c 0 -0.898438 -0.726563 -1.625 -1.625 -1.625 z m 1 1.21875 c -0.671875 0 -1.21875 0.542969 -1.21875 1.21875 v 5.007812 c 0 0.671876 0.546875 1.214844 1.21875 1.214844 h 10.585938 c 0.671875 0 1.214844 -0.542968 1.214844 -1.214844 v -5.007812 c 0 -0.675781 -0.542969 -1.21875 -1.214844 -1.21875 z m 0 0"/>
    </g>
</svg>
