<?xml version="1.0" encoding="UTF-8" standalone="no"?>
<svg
   height="128px"
   viewBox="0 0 128 128"
   width="128px"
   version="1.1"
   id="svg184"
   sodipodi:docname="xyz.zateros.Binned.Devel.svg"
   inkscape:version="1.4 (e7c3feb100, 2024-10-09)"
   xmlns:inkscape="http://www.inkscape.org/namespaces/inkscape"
   xmlns:sodipodi="http://sodipodi.sourceforge.net/DTD/sodipodi-0.dtd"
   xmlns="http://www.w3.org/2000/svg"
   xmlns:svg="http://www.w3.org/2000/svg">
  <defs
     id="defs184" />
  <sodipodi:namedview
     id="namedview184"
     pagecolor="#ffffff"
     bordercolor="#000000"
     borderopacity="0.25"
     inkscape:showpageshadow="2"
     inkscape:pageopacity="0.0"
     inkscape:pagecheckerboard="0"
     inkscape:deskcolor="#d1d1d1"
     inkscape:zoom="5.515625"
     inkscape:cx="90.016997"
     inkscape:cy="69.983003"
     inkscape:window-width="1648"
     inkscape:window-height="961"
     inkscape:window-x="0"
     inkscape:window-y="0"
     inkscape:window-maximized="1"
     inkscape:current-layer="svg184" />
  <filter
     id="a"
     height="1"
     width="1"
     x="0"
     y="0">
    <feColorMatrix
       color-interpolation-filters="sRGB"
       values="0 0 0 0 1 0 0 0 0 1 0 0 0 0 1 0 0 0 1 0"
       id="feColorMatrix1" />
  </filter>
  <linearGradient
     id="b"
     gradientUnits="userSpaceOnUse"
     x1="10.758679"
     x2="122.369059"
     y1="127.98741"
     y2="127.98741">
    <stop
       offset="0"
       stop-color="#5e5c64"
       id="stop1" />
    <stop
       offset="0.05"
       stop-color="#3d3846"
       id="stop2" />
    <stop
       offset="0.1"
       stop-color="#5e5c64"
       id="stop3" />
    <stop
       offset="0.9"
       stop-color="#5e5c64"
       id="stop4" />
    <stop
       offset="0.95"
       stop-color="#3d3846"
       id="stop5" />
    <stop
       offset="1"
       stop-color="#5e5c64"
       id="stop6" />
  </linearGradient>
  <linearGradient
     id="c"
     gradientUnits="userSpaceOnUse"
     x1="6.506855"
     x2="126.620883"
     y1="73.776654"
     y2="73.776654">
    <stop
       offset="0"
       stop-color="#3d3846"
       id="stop7" />
    <stop
       offset="0.05"
       stop-color="#241f31"
       id="stop8" />
    <stop
       offset="0.1"
       stop-color="#3d3846"
       id="stop9" />
    <stop
       offset="0.9"
       stop-color="#3d3846"
       id="stop10" />
    <stop
       offset="0.95"
       stop-color="#241f31"
       id="stop11" />
    <stop
       offset="1"
       stop-color="#3d3846"
       id="stop12" />
  </linearGradient>
  <clipPath
     id="d">
    <path
       d="m 16 15 h 41 v 58 h -41 z m 0 0"
       id="path12" />
  </clipPath>
  <clipPath
     id="e">
    <path
       d="m -6.25 19.414062 l 70.847656 -18.980468 l 18.980469 70.84375 l -70.84375 18.984375 z m 0 0"
       id="path13" />
  </clipPath>
  <clipPath
     id="f">
    <path
       d="m 0 11 h 70 v 77 h -70 z m 0 0"
       id="path14" />
  </clipPath>
  <clipPath
     id="g">
    <path
       d="m -6.25 19.414062 l 70.847656 -18.980468 l 18.980469 70.84375 l -70.84375 18.984375 z m 0 0"
       id="path15" />
  </clipPath>
  <clipPath
     id="h">
    <path
       d="m 16 12 h 41 v 59 h -41 z m 0 0"
       id="path16" />
  </clipPath>
  <clipPath
     id="i">
    <path
       d="m -6.25 17.289062 l 70.847656 -18.980468 l 18.980469 70.84375 l -70.84375 18.980468 z m 0 0"
       id="path17" />
  </clipPath>
  <clipPath
     id="j">
    <path
       d="m 0 8 h 70 v 78 h -70 z m 0 0"
       id="path18" />
  </clipPath>
  <clipPath
     id="k">
    <path
       d="m -6.25 17.289062 l 70.847656 -18.980468 l 18.980469 70.84375 l -70.84375 18.980468 z m 0 0"
       id="path19" />
  </clipPath>
  <clipPath
     id="l">
    <path
       d="m 59 18 h 68 v 68 h -68 z m 0 0"
       id="path20" />
  </clipPath>
  <clipPath
     id="m">
    <path
       d="m 68.367188 12.125 l 69.625 16.152344 l -16.152344 69.625 l -69.625 -16.148438 z m 0 0"
       id="path21" />
  </clipPath>
  <clipPath
     id="n">
    <path
       d="m 60 15 h 68 v 68 h -68 z m 0 0"
       id="path22" />
  </clipPath>
  <clipPath
     id="o">
    <path
       d="m 69.429688 8.9375 l 69.625 16.152344 l -16.152344 69.625 l -69.625 -16.152344 z m 0 0"
       id="path23" />
  </clipPath>
  <clipPath
     id="p">
    <path
       d="m 16 15 h 41 v 58 h -41 z m 0 0"
       id="path24" />
  </clipPath>
  <clipPath
     id="q">
    <path
       d="m -6.25 19.414062 l 70.847656 -18.980468 l 18.980469 70.84375 l -70.84375 18.984375 z m 0 0"
       id="path25" />
  </clipPath>
  <clipPath
     id="r">
    <path
       d="m 0 11 h 70 v 77 h -70 z m 0 0"
       id="path26" />
  </clipPath>
  <clipPath
     id="s">
    <path
       d="m -6.25 19.414062 l 70.847656 -18.980468 l 18.980469 70.84375 l -70.84375 18.984375 z m 0 0"
       id="path27" />
  </clipPath>
  <clipPath
     id="t">
    <path
       d="m 16 12 h 41 v 59 h -41 z m 0 0"
       id="path28" />
  </clipPath>
  <clipPath
     id="u">
    <path
       d="m -6.25 17.289062 l 70.847656 -18.980468 l 18.980469 70.84375 l -70.84375 18.980468 z m 0 0"
       id="path29" />
  </clipPath>
  <clipPath
     id="v">
    <path
       d="m 0 8 h 70 v 78 h -70 z m 0 0"
       id="path30" />
  </clipPath>
  <clipPath
     id="w">
    <path
       d="m -6.25 17.289062 l 70.847656 -18.980468 l 18.980469 70.84375 l -70.84375 18.980468 z m 0 0"
       id="path31" />
  </clipPath>
  <clipPath
     id="x">
    <path
       d="m 59 18 h 68 v 68 h -68 z m 0 0"
       id="path32" />
  </clipPath>
  <clipPath
     id="y">
    <path
       d="m 68.367188 12.125 l 69.625 16.152344 l -16.152344 69.625 l -69.625 -16.148438 z m 0 0"
       id="path33" />
  </clipPath>
  <clipPath
     id="z">
    <path
       d="m 60 15 h 68 v 68 h -68 z m 0 0"
       id="path34" />
  </clipPath>
  <clipPath
     id="A">
    <path
       d="m 69.429688 8.9375 l 69.625 16.152344 l -16.152344 69.625 l -69.625 -16.152344 z m 0 0"
       id="path35" />
  </clipPath>
  <clipPath
     id="B">
    <rect
       height="128"
       width="128"
       id="rect35" />
  </clipPath>
  <clipPath
     id="C">
    <rect
       height="128"
       width="128"
       id="rect36" />
  </clipPath>
  <mask
     id="D">
    <g
       filter="url(#a)"
       id="g107">
      <g
         clip-path="url(#C)"
         filter="url(#a)"
         id="g106">
        <g
           clip-path="url(#B)"
           id="g105">
          <path
             d="m 22.453125 24.878906 h 88.222656 c 6.457031 0 11.691407 5.238282 11.691407 11.695313 v 79.71875 c 0 6.460937 -5.234376 11.695312 -11.691407 11.695312 h -88.222656 c -6.460937 0 -11.695313 -5.234375 -11.695313 -11.695312 v -79.71875 c 0 -6.457031 5.234376 -11.695313 11.695313 -11.695313 z m 0 0"
             fill="url(#b)"
             id="path36" />
          <path
             d="m 21.859375 104.015625 c 0.996094 0 1.808594 0.808594 1.808594 1.804687 v 2.328126 c 0 0.996093 -0.8125 1.804687 -1.808594 1.804687 s -1.804687 -0.808594 -1.804687 -1.804687 v -2.328126 c 0 -0.996093 0.808593 -1.804687 1.804687 -1.804687 z m 0 0"
             fill="#241f31"
             id="path37" />
          <path
             d="m 21.859375 118.859375 c 0.996094 0 1.808594 0.808594 1.808594 1.808594 v 2.324219 c 0 0.996093 -0.8125 1.804687 -1.808594 1.804687 s -1.804687 -0.808594 -1.804687 -1.804687 v -2.324219 c 0 -1 0.808593 -1.808594 1.804687 -1.808594 z m 0 0"
             fill="#241f31"
             id="path38" />
          <path
             d="m 29.988281 104.015625 c 0.996094 0 1.804688 0.808594 1.804688 1.804687 v 2.328126 c 0 0.996093 -0.808594 1.804687 -1.804688 1.804687 c -0.996093 0 -1.808593 -0.808594 -1.808593 -1.804687 v -2.328126 c 0 -0.996093 0.8125 -1.804687 1.808593 -1.804687 z m 0 0"
             fill="#241f31"
             id="path39" />
          <path
             d="m 29.988281 118.859375 c 0.996094 0 1.804688 0.808594 1.804688 1.808594 v 2.324219 c 0 0.996093 -0.808594 1.804687 -1.804688 1.804687 c -0.996093 0 -1.808593 -0.808594 -1.808593 -1.804687 v -2.324219 c 0 -1 0.8125 -1.808594 1.808593 -1.808594 z m 0 0"
             fill="#241f31"
             id="path40" />
          <path
             d="m 38.117188 104.015625 c 0.996093 0 1.804687 0.808594 1.804687 1.804687 v 2.328126 c 0 0.996093 -0.808594 1.804687 -1.804687 1.804687 c -1 0 -1.808594 -0.808594 -1.808594 -1.804687 v -2.328126 c 0 -0.996093 0.808594 -1.804687 1.808594 -1.804687 z m 0 0"
             fill="#241f31"
             id="path41" />
          <path
             d="m 38.117188 118.859375 c 0.996093 0 1.804687 0.808594 1.804687 1.808594 v 2.324219 c 0 0.996093 -0.808594 1.804687 -1.804687 1.804687 c -1 0 -1.808594 -0.808594 -1.808594 -1.804687 v -2.324219 c 0 -1 0.808594 -1.808594 1.808594 -1.808594 z m 0 0"
             fill="#241f31"
             id="path42" />
          <path
             d="m 46.242188 104.015625 c 1 0 1.808593 0.808594 1.808593 1.804687 v 2.328126 c 0 0.996093 -0.808593 1.804687 -1.808593 1.804687 c -0.996094 0 -1.804688 -0.808594 -1.804688 -1.804687 v -2.328126 c 0 -0.996093 0.808594 -1.804687 1.804688 -1.804687 z m 0 0"
             fill="#241f31"
             id="path43" />
          <path
             d="m 46.242188 118.859375 c 1 0 1.808593 0.808594 1.808593 1.808594 v 2.324219 c 0 0.996093 -0.808593 1.804687 -1.808593 1.804687 c -0.996094 0 -1.804688 -0.808594 -1.804688 -1.804687 v -2.324219 c 0 -1 0.808594 -1.808594 1.804688 -1.808594 z m 0 0"
             fill="#241f31"
             id="path44" />
          <path
             d="m 54.371094 104.015625 c 1 0 1.808594 0.808594 1.808594 1.804687 v 2.328126 c 0 0.996093 -0.808594 1.804687 -1.808594 1.804687 c -0.996094 0 -1.804688 -0.808594 -1.804688 -1.804687 v -2.328126 c 0 -0.996093 0.808594 -1.804687 1.804688 -1.804687 z m 0 0"
             fill="#241f31"
             id="path45" />
          <path
             d="m 54.371094 118.859375 c 1 0 1.808594 0.808594 1.808594 1.808594 v 2.324219 c 0 0.996093 -0.808594 1.804687 -1.808594 1.804687 c -0.996094 0 -1.804688 -0.808594 -1.804688 -1.804687 v -2.324219 c 0 -1 0.808594 -1.808594 1.804688 -1.808594 z m 0 0"
             fill="#241f31"
             id="path46" />
          <path
             d="m 62.5 104.015625 c 0.996094 0 1.804688 0.808594 1.804688 1.804687 v 2.328126 c 0 0.996093 -0.808594 1.804687 -1.804688 1.804687 s -1.804688 -0.808594 -1.804688 -1.804687 v -2.328126 c 0 -0.996093 0.808594 -1.804687 1.804688 -1.804687 z m 0 0"
             fill="#241f31"
             id="path47" />
          <path
             d="m 62.5 118.859375 c 0.996094 0 1.804688 0.808594 1.804688 1.808594 v 2.324219 c 0 0.996093 -0.808594 1.804687 -1.804688 1.804687 s -1.804688 -0.808594 -1.804688 -1.804687 v -2.324219 c 0 -1 0.808594 -1.808594 1.804688 -1.808594 z m 0 0"
             fill="#241f31"
             id="path48" />
          <path
             d="m 70.628906 104.015625 c 0.996094 0 1.804688 0.808594 1.804688 1.804687 v 2.328126 c 0 0.996093 -0.808594 1.804687 -1.804688 1.804687 c -1 0 -1.808594 -0.808594 -1.808594 -1.804687 v -2.328126 c 0 -0.996093 0.808594 -1.804687 1.808594 -1.804687 z m 0 0"
             fill="#241f31"
             id="path49" />
          <path
             d="m 70.628906 118.859375 c 0.996094 0 1.804688 0.808594 1.804688 1.808594 v 2.324219 c 0 0.996093 -0.808594 1.804687 -1.804688 1.804687 c -1 0 -1.808594 -0.808594 -1.808594 -1.804687 v -2.324219 c 0 -1 0.808594 -1.808594 1.808594 -1.808594 z m 0 0"
             fill="#241f31"
             id="path50" />
          <path
             d="m 78.757812 104.015625 c 0.996094 0 1.804688 0.808594 1.804688 1.804687 v 2.328126 c 0 0.996093 -0.808594 1.804687 -1.804688 1.804687 c -1 0 -1.808593 -0.808594 -1.808593 -1.804687 v -2.328126 c 0 -0.996093 0.808593 -1.804687 1.808593 -1.804687 z m 0 0"
             fill="#241f31"
             id="path51" />
          <path
             d="m 78.757812 118.859375 c 0.996094 0 1.804688 0.808594 1.804688 1.808594 v 2.324219 c 0 0.996093 -0.808594 1.804687 -1.804688 1.804687 c -1 0 -1.808593 -0.808594 -1.808593 -1.804687 v -2.324219 c 0 -1 0.808593 -1.808594 1.808593 -1.808594 z m 0 0"
             fill="#241f31"
             id="path52" />
          <path
             d="m 86.882812 104.015625 c 1 0 1.808594 0.808594 1.808594 1.804687 v 2.328126 c 0 0.996093 -0.808594 1.804687 -1.808594 1.804687 c -0.996093 0 -1.804687 -0.808594 -1.804687 -1.804687 v -2.328126 c 0 -0.996093 0.808594 -1.804687 1.804687 -1.804687 z m 0 0"
             fill="#241f31"
             id="path53" />
          <path
             d="m 86.882812 118.859375 c 1 0 1.808594 0.808594 1.808594 1.808594 v 2.324219 c 0 0.996093 -0.808594 1.804687 -1.808594 1.804687 c -0.996093 0 -1.804687 -0.808594 -1.804687 -1.804687 v -2.324219 c 0 -1 0.808594 -1.808594 1.804687 -1.808594 z m 0 0"
             fill="#241f31"
             id="path54" />
          <path
             d="m 95.011719 104.015625 c 0.996093 0 1.804687 0.808594 1.804687 1.804687 v 2.328126 c 0 0.996093 -0.808594 1.804687 -1.804687 1.804687 c -0.996094 0 -1.804688 -0.808594 -1.804688 -1.804687 v -2.328126 c 0 -0.996093 0.808594 -1.804687 1.804688 -1.804687 z m 0 0"
             fill="#241f31"
             id="path55" />
          <path
             d="m 95.011719 118.859375 c 0.996093 0 1.804687 0.808594 1.804687 1.808594 v 2.324219 c 0 0.996093 -0.808594 1.804687 -1.804687 1.804687 c -0.996094 0 -1.804688 -0.808594 -1.804688 -1.804687 v -2.324219 c 0 -1 0.808594 -1.808594 1.804688 -1.808594 z m 0 0"
             fill="#241f31"
             id="path56" />
          <path
             d="m 103.140625 104.015625 c 0.996094 0 1.804687 0.808594 1.804687 1.804687 v 2.328126 c 0 0.996093 -0.808593 1.804687 -1.804687 1.804687 s -1.804687 -0.808594 -1.804687 -1.804687 v -2.328126 c 0 -0.996093 0.808593 -1.804687 1.804687 -1.804687 z m 0 0"
             fill="#241f31"
             id="path57" />
          <path
             d="m 103.140625 118.859375 c 0.996094 0 1.804687 0.808594 1.804687 1.808594 v 2.324219 c 0 0.996093 -0.808593 1.804687 -1.804687 1.804687 s -1.804687 -0.808594 -1.804687 -1.804687 v -2.324219 c 0 -1 0.808593 -1.808594 1.804687 -1.808594 z m 0 0"
             fill="#241f31"
             id="path58" />
          <path
             d="m 111.269531 104.015625 c 0.996094 0 1.804688 0.808594 1.804688 1.804687 v 2.328126 c 0 0.996093 -0.808594 1.804687 -1.804688 1.804687 c -1 0 -1.808593 -0.808594 -1.808593 -1.804687 v -2.328126 c 0 -0.996093 0.808593 -1.804687 1.808593 -1.804687 z m 0 0"
             fill="#241f31"
             id="path59" />
          <path
             d="m 111.269531 118.859375 c 0.996094 0 1.804688 0.808594 1.804688 1.808594 v 2.324219 c 0 0.996093 -0.808594 1.804687 -1.804688 1.804687 c -1 0 -1.808593 -0.808594 -1.808593 -1.804687 v -2.324219 c 0 -1 0.808593 -1.808594 1.808593 -1.808594 z m 0 0"
             fill="#241f31"
             id="path60" />
          <path
             d="m 17.34375 96.097656 c 0.996094 0 1.804688 0.808594 1.804688 1.808594 v 2.324219 c 0 0.996093 -0.808594 1.804687 -1.804688 1.804687 s -1.804688 -0.808594 -1.804688 -1.804687 v -2.324219 c 0 -1 0.808594 -1.808594 1.804688 -1.808594 z m 0 0"
             fill="#241f31"
             id="path61" />
          <path
             d="m 17.34375 110.945312 c 0.996094 0 1.804688 0.808594 1.804688 1.804688 v 2.324219 c 0 1 -0.808594 1.808593 -1.804688 1.808593 s -1.804688 -0.808593 -1.804688 -1.808593 v -2.324219 c 0 -0.996094 0.808594 -1.804688 1.804688 -1.804688 z m 0 0"
             fill="#241f31"
             id="path62" />
          <path
             d="m 25.472656 96.097656 c 0.996094 0 1.804688 0.808594 1.804688 1.808594 v 2.324219 c 0 0.996093 -0.808594 1.804687 -1.804688 1.804687 s -1.804687 -0.808594 -1.804687 -1.804687 v -2.324219 c 0 -1 0.808593 -1.808594 1.804687 -1.808594 z m 0 0"
             fill="#241f31"
             id="path63" />
          <path
             d="m 25.472656 110.945312 c 0.996094 0 1.804688 0.808594 1.804688 1.804688 v 2.324219 c 0 1 -0.808594 1.808593 -1.804688 1.808593 s -1.804687 -0.808593 -1.804687 -1.808593 v -2.324219 c 0 -0.996094 0.808593 -1.804688 1.804687 -1.804688 z m 0 0"
             fill="#241f31"
             id="path64" />
          <path
             d="m 33.601562 96.097656 c 0.996094 0 1.804688 0.808594 1.804688 1.808594 v 2.324219 c 0 0.996093 -0.808594 1.804687 -1.804688 1.804687 c -1 0 -1.808593 -0.808594 -1.808593 -1.804687 v -2.324219 c 0 -1 0.808593 -1.808594 1.808593 -1.808594 z m 0 0"
             fill="#241f31"
             id="path65" />
          <path
             d="m 33.601562 110.945312 c 0.996094 0 1.804688 0.808594 1.804688 1.804688 v 2.324219 c 0 1 -0.808594 1.808593 -1.804688 1.808593 c -1 0 -1.808593 -0.808593 -1.808593 -1.808593 v -2.324219 c 0 -0.996094 0.808593 -1.804688 1.808593 -1.804688 z m 0 0"
             fill="#241f31"
             id="path66" />
          <path
             d="m 41.726562 96.097656 c 1 0 1.808594 0.808594 1.808594 1.808594 v 2.324219 c 0 0.996093 -0.808594 1.804687 -1.808594 1.804687 c -0.996093 0 -1.804687 -0.808594 -1.804687 -1.804687 v -2.324219 c 0 -1 0.808594 -1.808594 1.804687 -1.808594 z m 0 0"
             fill="#241f31"
             id="path67" />
          <path
             d="m 41.726562 110.945312 c 1 0 1.808594 0.808594 1.808594 1.804688 v 2.324219 c 0 1 -0.808594 1.808593 -1.808594 1.808593 c -0.996093 0 -1.804687 -0.808593 -1.804687 -1.808593 v -2.324219 c 0 -0.996094 0.808594 -1.804688 1.804687 -1.804688 z m 0 0"
             fill="#241f31"
             id="path68" />
          <path
             d="m 49.855469 96.097656 c 1 0 1.808593 0.808594 1.808593 1.808594 v 2.324219 c 0 0.996093 -0.808593 1.804687 -1.808593 1.804687 c -0.996094 0 -1.804688 -0.808594 -1.804688 -1.804687 v -2.324219 c 0 -1 0.808594 -1.808594 1.804688 -1.808594 z m 0 0"
             fill="#241f31"
             id="path69" />
          <path
             d="m 49.855469 110.945312 c 1 0 1.808593 0.808594 1.808593 1.804688 v 2.324219 c 0 1 -0.808593 1.808593 -1.808593 1.808593 c -0.996094 0 -1.804688 -0.808593 -1.804688 -1.808593 v -2.324219 c 0 -0.996094 0.808594 -1.804688 1.804688 -1.804688 z m 0 0"
             fill="#241f31"
             id="path70" />
          <path
             d="m 57.984375 96.097656 c 0.996094 0 1.804687 0.808594 1.804687 1.808594 v 2.324219 c 0 0.996093 -0.808593 1.804687 -1.804687 1.804687 s -1.804687 -0.808594 -1.804687 -1.804687 v -2.324219 c 0 -1 0.808593 -1.808594 1.804687 -1.808594 z m 0 0"
             fill="#241f31"
             id="path71" />
          <path
             d="m 57.984375 110.945312 c 0.996094 0 1.804687 0.808594 1.804687 1.804688 v 2.324219 c 0 1 -0.808593 1.808593 -1.804687 1.808593 s -1.804687 -0.808593 -1.804687 -1.808593 v -2.324219 c 0 -0.996094 0.808593 -1.804688 1.804687 -1.804688 z m 0 0"
             fill="#241f31"
             id="path72" />
          <path
             d="m 66.113281 96.097656 c 0.996094 0 1.804688 0.808594 1.804688 1.808594 v 2.324219 c 0 0.996093 -0.808594 1.804687 -1.804688 1.804687 c -1 0 -1.808593 -0.808594 -1.808593 -1.804687 v -2.324219 c 0 -1 0.808593 -1.808594 1.808593 -1.808594 z m 0 0"
             fill="#241f31"
             id="path73" />
          <path
             d="m 66.113281 110.945312 c 0.996094 0 1.804688 0.808594 1.804688 1.804688 v 2.324219 c 0 1 -0.808594 1.808593 -1.804688 1.808593 c -1 0 -1.808593 -0.808593 -1.808593 -1.808593 v -2.324219 c 0 -0.996094 0.808593 -1.804688 1.808593 -1.804688 z m 0 0"
             fill="#241f31"
             id="path74" />
          <path
             d="m 74.242188 96.097656 c 0.996093 0 1.804687 0.808594 1.804687 1.808594 v 2.324219 c 0 0.996093 -0.808594 1.804687 -1.804687 1.804687 c -1 0 -1.808594 -0.808594 -1.808594 -1.804687 v -2.324219 c 0 -1 0.808594 -1.808594 1.808594 -1.808594 z m 0 0"
             fill="#241f31"
             id="path75" />
          <path
             d="m 74.242188 110.945312 c 0.996093 0 1.804687 0.808594 1.804687 1.804688 v 2.324219 c 0 1 -0.808594 1.808593 -1.804687 1.808593 c -1 0 -1.808594 -0.808593 -1.808594 -1.808593 v -2.324219 c 0 -0.996094 0.808594 -1.804688 1.808594 -1.804688 z m 0 0"
             fill="#241f31"
             id="path76" />
          <path
             d="m 82.367188 96.097656 c 1 0 1.808593 0.808594 1.808593 1.808594 v 2.324219 c 0 0.996093 -0.808593 1.804687 -1.808593 1.804687 c -0.996094 0 -1.804688 -0.808594 -1.804688 -1.804687 v -2.324219 c 0 -1 0.808594 -1.808594 1.804688 -1.808594 z m 0 0"
             fill="#241f31"
             id="path77" />
          <path
             d="m 82.367188 110.945312 c 1 0 1.808593 0.808594 1.808593 1.804688 v 2.324219 c 0 1 -0.808593 1.808593 -1.808593 1.808593 c -0.996094 0 -1.804688 -0.808593 -1.804688 -1.808593 v -2.324219 c 0 -0.996094 0.808594 -1.804688 1.804688 -1.804688 z m 0 0"
             fill="#241f31"
             id="path78" />
          <path
             d="m 90.496094 96.097656 c 0.996094 0 1.804687 0.808594 1.804687 1.808594 v 2.324219 c 0 0.996093 -0.808593 1.804687 -1.804687 1.804687 s -1.804688 -0.808594 -1.804688 -1.804687 v -2.324219 c 0 -1 0.808594 -1.808594 1.804688 -1.808594 z m 0 0"
             fill="#241f31"
             id="path79" />
          <path
             d="m 90.496094 110.945312 c 0.996094 0 1.804687 0.808594 1.804687 1.804688 v 2.324219 c 0 1 -0.808593 1.808593 -1.804687 1.808593 s -1.804688 -0.808593 -1.804688 -1.808593 v -2.324219 c 0 -0.996094 0.808594 -1.804688 1.804688 -1.804688 z m 0 0"
             fill="#241f31"
             id="path80" />
          <path
             d="m 98.625 96.097656 c 0.996094 0 1.804688 0.808594 1.804688 1.808594 v 2.324219 c 0 0.996093 -0.808594 1.804687 -1.804688 1.804687 c -1 0 -1.808594 -0.808594 -1.808594 -1.804687 v -2.324219 c 0 -1 0.808594 -1.808594 1.808594 -1.808594 z m 0 0"
             fill="#241f31"
             id="path81" />
          <path
             d="m 98.625 110.945312 c 0.996094 0 1.804688 0.808594 1.804688 1.804688 v 2.324219 c 0 1 -0.808594 1.808593 -1.804688 1.808593 c -1 0 -1.808594 -0.808593 -1.808594 -1.808593 v -2.324219 c 0 -0.996094 0.808594 -1.804688 1.808594 -1.804688 z m 0 0"
             fill="#241f31"
             id="path82" />
          <path
             d="m 106.753906 96.097656 c 0.996094 0 1.804688 0.808594 1.804688 1.808594 v 2.324219 c 0 0.996093 -0.808594 1.804687 -1.804688 1.804687 c -1 0 -1.808594 -0.808594 -1.808594 -1.804687 v -2.324219 c 0 -1 0.808594 -1.808594 1.808594 -1.808594 z m 0 0"
             fill="#241f31"
             id="path83" />
          <path
             d="m 106.753906 110.945312 c 0.996094 0 1.804688 0.808594 1.804688 1.804688 v 2.324219 c 0 1 -0.808594 1.808593 -1.804688 1.808593 c -1 0 -1.808594 -0.808593 -1.808594 -1.808593 v -2.324219 c 0 -0.996094 0.808594 -1.804688 1.808594 -1.804688 z m 0 0"
             fill="#241f31"
             id="path84" />
          <path
             d="m 114.878906 96.097656 c 1 0 1.808594 0.808594 1.808594 1.808594 v 2.324219 c 0 0.996093 -0.808594 1.804687 -1.808594 1.804687 c -0.996094 0 -1.804687 -0.808594 -1.804687 -1.804687 v -2.324219 c 0 -1 0.808593 -1.808594 1.804687 -1.808594 z m 0 0"
             fill="#241f31"
             id="path85" />
          <path
             d="m 114.878906 110.945312 c 1 0 1.808594 0.808594 1.808594 1.804688 v 2.324219 c 0 1 -0.808594 1.808593 -1.808594 1.808593 c -0.996094 0 -1.804687 -0.808593 -1.804687 -1.808593 v -2.324219 c 0 -0.996094 0.808593 -1.804688 1.804687 -1.804688 z m 0 0"
             fill="#241f31"
             id="path86" />
          <path
             d="m 19.261719 52.515625 h 94.605469 c 7.042968 0 12.753906 5.710937 12.753906 12.757813 v 17.007812 c 0 7.042969 -5.710938 12.753906 -12.753906 12.753906 h -94.605469 c -7.042969 0 -12.753907 -5.710937 -12.753907 -12.753906 v -17.007812 c 0 -7.046876 5.710938 -12.757813 12.753907 -12.757813 z m 0 0"
             fill="url(#c)"
             id="path87" />
          <path
             d="m 19.261719 1.496094 h 94.605469 c 7.042968 0 12.753906 5.710937 12.753906 12.753906 v 60.589844 c 0 7.042968 -5.710938 12.753906 -12.753906 12.753906 h -94.605469 c -7.042969 0 -12.753907 -5.710938 -12.753907 -12.753906 v -60.589844 c 0 -7.042969 5.710938 -12.753906 12.753907 -12.753906 z m 0 0"
             fill="#5e5c64"
             id="path88" />
          <path
             d="m 22.453125 12.125 h 88.222656 c 5.285157 0 9.566407 4.285156 9.566407 9.566406 v 45.707032 c 0 5.285156 -4.28125 9.566406 -9.566407 9.566406 h -88.222656 c -5.285156 0 -9.570313 -4.28125 -9.570313 -9.566406 v -45.707032 c 0 -5.28125 4.285157 -9.566406 9.570313 -9.566406 z m 0 0"
             fill="#241f31"
             id="path89" />
          <g
             clip-path="url(#p)"
             id="g91">
            <g
               clip-path="url(#q)"
               id="g90">
              <path
                 d="m 31.257812 15.117188 l 6.375 23.789062 l 19.03125 -5.097656 l -1.277343 -4.757813 z m -9.347656 12.703124 c -3.921875 1.050782 -6.273437 5.128907 -5.222656 9.050782 s 5.128906 6.273437 9.046875 5.222656 c 3.921875 -1.050781 6.277344 -5.125 5.226563 -9.046875 c -1.050782 -3.921875 -5.128907 -6.277344 -9.050782 -5.226563 z m 1.277344 4.757813 c 1.335938 -0.355469 2.65625 0.40625 3.015625 1.742187 c 0.359375 1.339844 -0.402344 2.660157 -1.742187 3.015626 c -1.335938 0.359374 -2.65625 -0.402344 -3.015626 -1.738282 c -0.359374 -1.339844 0.402344 -2.660156 1.742188 -3.019531 z m -3.3125 16.1875 l 1.273438 4.757813 l 28.546874 -7.648438 l -1.273437 -4.757812 z m 2.550781 9.515625 l 1.273438 4.757812 l 28.546875 -7.648437 l -1.273438 -4.757813 z m 2.546875 9.515625 l 1.277344 4.757813 l 28.546875 -7.648438 l -1.277344 -4.757812 z m 0 0"
                 fill="#1a5fb4"
                 id="path90" />
            </g>
          </g>
          <g
             clip-path="url(#r)"
             id="g93">
            <g
               clip-path="url(#s)"
               id="g92">
              <path
                 d="m 11.976562 76.378906 c 2.113282 7.898438 10.199219 12.566406 18.097657 10.449219 l 28.546875 -7.648437 c 7.898437 -2.117188 12.566406 -10.199219 10.449218 -18.097657 l -7.648437 -28.546875 c -1.15625 -4.3125 -3.972656 -7.980468 -7.835937 -10.210937 l -15.601563 -9.007813 c -3.863281 -2.230468 -8.449219 -2.835937 -12.761719 -1.679687 l -14.273437 3.824219 c -7.898438 2.117187 -12.566407 10.199218 -10.449219 18.097656 z m 1.523438 -51.402344 l 14.273438 -3.824218 c 1.785156 -0.480469 3.683593 -0.230469 5.285156 0.695312 l 15.601562 9.007813 c 1.601563 0.921875 2.765625 2.445312 3.246094 4.226562 l 7.648438 28.550781 c 0.695312 2.601563 -0.882813 5.332032 -3.484376 6.03125 l -28.546874 7.648438 c -2.601563 0.699219 -5.335938 -0.878906 -6.03125 -3.484375 l -11.476563 -42.820313 c -0.695313 -2.601562 0.882813 -5.335937 3.484375 -6.03125 z m 0 0"
                 fill="#1a5fb4"
                 id="path91" />
            </g>
          </g>
          <g
             clip-path="url(#t)"
             id="g95">
            <g
               clip-path="url(#u)"
               id="g94">
              <path
                 d="m 31.257812 12.992188 l 6.375 23.789062 l 19.03125 -5.097656 l -1.277343 -4.757813 z m -9.347656 12.703124 c -3.921875 1.050782 -6.273437 5.128907 -5.222656 9.050782 s 5.128906 6.273437 9.046875 5.222656 c 3.921875 -1.050781 6.277344 -5.125 5.226563 -9.046875 c -1.050782 -3.921875 -5.128907 -6.277344 -9.050782 -5.226563 z m 1.277344 4.757813 c 1.335938 -0.359375 2.65625 0.402344 3.015625 1.742187 c 0.359375 1.339844 -0.402344 2.65625 -1.742187 3.015626 c -1.335938 0.359374 -2.65625 -0.402344 -3.015626 -1.742188 c -0.359374 -1.335938 0.402344 -2.65625 1.742188 -3.015625 z m -3.3125 16.1875 l 1.273438 4.757813 l 28.546874 -7.648438 l -1.273437 -4.757812 z m 2.550781 9.515625 l 1.273438 4.757812 l 28.546875 -7.648437 l -1.273438 -4.757813 z m 2.546875 9.515625 l 1.277344 4.757813 l 28.546875 -7.648438 l -1.277344 -4.757812 z m 0 0"
                 fill="#3584e4"
                 id="path93" />
            </g>
          </g>
          <g
             clip-path="url(#v)"
             id="g97">
            <g
               clip-path="url(#w)"
               id="g96">
              <path
                 d="m 11.976562 74.253906 c 2.113282 7.898438 10.199219 12.566406 18.097657 10.449219 l 28.546875 -7.648437 c 7.898437 -2.117188 12.566406 -10.199219 10.449218 -18.097657 l -7.648437 -28.550781 c -1.15625 -4.308594 -3.972656 -7.976562 -7.835937 -10.210938 l -15.601563 -9.003906 c -3.863281 -2.234375 -8.449219 -2.835937 -12.761719 -1.679687 l -14.273437 3.824219 c -7.898438 2.113281 -12.566407 10.199218 -10.449219 18.097656 z m 1.523438 -51.402344 l 14.273438 -3.824218 c 1.785156 -0.480469 3.683593 -0.230469 5.285156 0.695312 l 15.601562 9.003906 c 1.601563 0.925782 2.765625 2.445313 3.246094 4.230469 l 7.648438 28.546875 c 0.695312 2.601563 -0.882813 5.335938 -3.484376 6.035156 l -28.546874 7.648438 c -2.601563 0.695312 -5.335938 -0.882812 -6.03125 -3.484375 l -11.476563 -42.820313 c -0.695313 -2.601562 0.882813 -5.335937 3.484375 -6.03125 z m 0 0"
                 fill="#3584e4"
                 id="path95" />
            </g>
          </g>
          <g
             clip-path="url(#x)"
             id="g99">
            <g
               clip-path="url(#y)"
               id="g98">
              <path
                 d="m 101.003906 19.695312 c -17.96875 -4.167968 -36.042968 7.101563 -40.210937 25.066407 c -4.167969 17.96875 7.101562 36.042969 25.066406 40.210937 c 17.96875 4.167969 36.042969 -7.101562 40.210937 -25.066406 c 4.167969 -17.96875 -7.097656 -36.042969 -25.066406 -40.210938 z m 5.6875 11.925782 c 3.808594 2.425781 6.816406 5.828125 8.769532 9.773437 l -5.339844 -1.238281 c -0.710938 -2.960938 -1.851563 -5.839844 -3.429688 -8.535156 z m -16.195312 -3.703125 c -2.566406 1.734375 -4.851563 3.78125 -6.789063 6.109375 l -5.234375 -1.214844 c 3.445313 -2.65625 7.601563 -4.363281 12.023438 -4.894531 z m 5.886718 1.8125 l -1.59375 6.867187 l -6.085937 -1.410156 c 2.179687 -2.21875 4.746094 -4.078125 7.679687 -5.457031 z m 4.335938 1.078125 c 1.980469 2.5 3.449219 5.277344 4.421875 8.191406 l -6 -1.390625 z m -26.097656 5.699218 l 6.273437 1.453126 c -1.585937 2.589843 -2.84375 5.394531 -3.71875 8.308593 l -7.070312 -1.640625 c 0.992187 -3.046875 2.558593 -5.78125 4.515625 -8.121094 z m 10.914062 2.53125 l 8.246094 1.910157 l -2.019531 8.703125 l -10.199219 -2.363282 c 0.894531 -2.929687 2.222656 -5.71875 3.972656 -8.25 z m 12.597656 2.921876 l 8.160157 1.890624 c 0.457031 3.046876 0.417969 6.136719 -0.066407 9.15625 l -10.113281 -2.34375 z m 12.796876 2.96875 l 6.359374 1.472656 c 0.726563 2.964844 0.929688 6.109375 0.480469 9.285156 l -7.15625 -1.660156 c 0.5 -3 0.601563 -6.078125 0.316407 -9.097656 z m -41.835938 4.050781 l 7.074219 1.640625 c -0.484375 3.003906 -0.605469 6.078125 -0.304688 9.101562 l -6.289062 -1.457031 c -0.726563 -2.964844 -0.929688 -6.109375 -0.480469 -9.285156 z m 11.457031 2.660156 l 10.199219 2.363281 l -2.015625 8.703125 l -8.230469 -1.90625 c -0.460937 -3.027343 -0.421875 -6.136719 0.046875 -9.160156 z m 14.550781 3.375 l 10.117188 2.34375 c -0.914062 2.925781 -2.246094 5.734375 -3.992188 8.246094 l -8.140624 -1.886719 z m 14.5 3.363281 l 7.160157 1.660156 c -0.996094 3.046876 -2.5625 5.78125 -4.519531 8.125 l -6.375 -1.480468 c 1.601562 -2.585938 2.847656 -5.394532 3.734374 -8.304688 z m -38.195312 4.894532 l 5.269531 1.222656 c 0.742188 2.96875 1.902344 5.851562 3.496094 8.550781 c -3.808594 -2.421875 -6.816406 -5.828125 -8.765625 -9.773437 z m 10.28125 2.386718 l 6.035156 1.398438 l -1.566406 6.75 c -2 -2.488282 -3.492188 -5.253906 -4.46875 -8.148438 z m 10.386719 2.410156 l 5.949219 1.378907 c -2.128907 2.15625 -4.644532 3.957031 -7.5 5.300781 z m 10.964843 2.542969 l 5.355469 1.242188 c -3.53125 2.710937 -7.785156 4.445312 -12.320312 4.917969 c 2.65625 -1.714844 4.984375 -3.808594 6.964843 -6.160157 z m 0 0"
                 fill="#1a5fb4"
                 id="path97" />
            </g>
          </g>
          <g
             clip-path="url(#z)"
             id="g101">
            <g
               clip-path="url(#A)"
               id="g100">
              <path
                 d="m 102.066406 16.507812 c -17.96875 -4.167968 -36.039062 7.097657 -40.207031 25.066407 c -4.171875 17.96875 7.097656 36.039062 25.066406 40.207031 c 17.964844 4.167969 36.039063 -7.097656 40.207031 -25.066406 c 4.167969 -17.964844 -7.097656 -36.039063 -25.066406 -40.207032 z m 5.6875 11.925782 c 3.808594 2.421875 6.816406 5.824218 8.769532 9.769531 l -5.335938 -1.238281 c -0.714844 -2.957032 -1.851562 -5.839844 -3.433594 -8.53125 z m -16.191406 -3.703125 c -2.570312 1.730469 -4.855469 3.78125 -6.792969 6.109375 l -5.234375 -1.214844 c 3.445313 -2.660156 7.601563 -4.363281 12.027344 -4.894531 z m 5.882812 1.8125 l -1.59375 6.867187 l -6.085937 -1.414062 c 2.183594 -2.214844 4.746094 -4.074219 7.679687 -5.453125 z m 4.335938 1.078125 c 1.980469 2.5 3.449219 5.277344 4.421875 8.191406 l -6 -1.394531 z m -26.097656 5.695312 l 6.273437 1.457032 c -1.585937 2.585937 -2.84375 5.394531 -3.71875 8.308593 l -7.070312 -1.640625 c 0.992187 -3.046875 2.558593 -5.785156 4.515625 -8.125 z m 10.914062 2.53125 l 8.246094 1.914063 l -2.019531 8.703125 l -10.199219 -2.367188 c 0.894531 -2.925781 2.222656 -5.71875 3.972656 -8.25 z m 12.597656 2.921875 l 8.160157 1.894531 c 0.457031 3.042969 0.421875 6.132813 -0.066407 9.15625 l -10.113281 -2.347656 z m 12.800782 2.96875 l 6.355468 1.476563 c 0.730469 2.964844 0.929688 6.109375 0.480469 9.28125 l -7.15625 -1.660156 c 0.5 -3 0.605469 -6.074219 0.320313 -9.097657 z m -41.835938 4.054688 l 7.070313 1.640625 c -0.484375 3.003906 -0.605469 6.074218 -0.304688 9.101562 l -6.289062 -1.460937 c -0.726563 -2.960938 -0.929688 -6.109375 -0.476563 -9.28125 z m 11.457032 2.65625 l 10.199218 2.367187 l -2.019531 8.703125 l -8.230469 -1.910156 c -0.460937 -3.023437 -0.421875 -6.132813 0.050782 -9.160156 z m 14.550781 3.375 l 10.113281 2.347656 c -0.910156 2.921875 -2.242188 5.730469 -3.992188 8.246094 l -8.140624 -1.890625 z m 14.496093 3.367187 l 7.160157 1.65625 c -0.996094 3.050782 -2.5625 5.785156 -4.519531 8.125 l -6.375 -1.476562 c 1.601562 -2.585938 2.847656 -5.394532 3.734374 -8.304688 z m -38.195312 4.894532 l 5.269531 1.222656 c 0.742188 2.96875 1.902344 5.851562 3.496094 8.550781 c -3.808594 -2.425781 -6.816406 -5.828125 -8.765625 -9.773437 z m 10.28125 2.386718 l 6.035156 1.398438 l -1.566406 6.75 c -2 -2.488282 -3.492188 -5.253906 -4.46875 -8.148438 z m 10.386719 2.40625 l 5.949219 1.382813 c -2.128907 2.15625 -4.640626 3.957031 -7.496094 5.300781 z m 10.964843 2.546875 l 5.355469 1.242188 c -3.53125 2.707031 -7.785156 4.445312 -12.320312 4.914062 c 2.65625 -1.710937 4.984375 -3.804687 6.964843 -6.15625 z m 0 0"
                 fill="#3584e4"
                 id="path99" />
            </g>
          </g>
          <path
             d="m 57.113281 25.144531 c -3 0 -5.445312 2.417969 -5.445312 5.382813 c 0 2.984375 2.445312 5.382812 5.445312 5.382812 s 5.449219 -2.398437 5.449219 -5.382812 c 0 -2.964844 -2.449219 -5.382813 -5.449219 -5.382813 z m 17.238281 11.710938 l -9.535156 13.117187 c -0.550781 0.777344 -1.425781 1.261719 -2.382812 1.324219 c -0.957032 0.082031 -1.894532 -0.273437 -2.574219 -0.945313 l -2.234375 -2.25 c -1 -1.03125 -2.425781 -1.535156 -3.851562 -1.410156 c -1.425782 0.148438 -2.722657 0.90625 -3.511719 2.082032 l -4.042969 5.96875 v 5.382812 c 0 2.691406 2.722656 2.691406 2.722656 2.691406 h 38.132813 s 2.578125 -0.167968 2.726562 -2.691406 v -11.5625 c 0 -1.300781 -0.449219 -2.5625 -1.300781 -3.574219 l -6.957031 -8.363281 c -0.894531 -1.074219 -2.234375 -1.660156 -3.636719 -1.621094 c -1.425781 0.042969 -2.726562 0.738282 -3.554688 1.851563 z m 0 0"
             fill="#1c71d8"
             id="path101" />
          <path
             d="m 46.21875 3.621094 c -8.957031 0 -16.34375 7.292968 -16.34375 16.144531 v 43.050781 c 0 8.867188 7.386719 16.140625 16.34375 16.140625 h 43.582031 c 8.957031 0 16.34375 -7.273437 16.34375 -16.140625 v -43.050781 c 0 -8.851563 -7.386719 -16.144531 -16.34375 -16.144531 z m 0 10.761718 h 43.582031 c 3.105469 0 5.445313 2.3125 5.445313 5.382813 v 43.050781 c 0 3.089844 -2.339844 5.378906 -5.445313 5.378906 h -43.582031 c -3.105469 0 -5.449219 -2.289062 -5.449219 -5.378906 v -43.050781 c 0 -3.070313 2.34375 -5.382813 5.449219 -5.382813 z m 0 0"
             fill="#1c71d8"
             id="path102" />
          <path
             d="m 57.113281 23.019531 c -3 0 -5.445312 2.417969 -5.445312 5.382813 c 0 2.984375 2.445312 5.378906 5.445312 5.378906 s 5.449219 -2.394531 5.449219 -5.378906 c 0 -2.964844 -2.449219 -5.382813 -5.449219 -5.382813 z m 17.238281 11.710938 l -9.535156 13.113281 c -0.550781 0.78125 -1.425781 1.261719 -2.382812 1.324219 c -0.957032 0.085937 -1.894532 -0.269531 -2.574219 -0.945313 l -2.234375 -2.246094 c -1 -1.03125 -2.425781 -1.535156 -3.851562 -1.410156 c -1.425782 0.148438 -2.722657 0.902344 -3.511719 2.082032 l -4.042969 5.96875 v 5.382812 c 0 2.6875 2.722656 2.6875 2.722656 2.6875 h 38.132813 s 2.578125 -0.167969 2.726562 -2.6875 v -11.5625 c 0 -1.304688 -0.449219 -2.566406 -1.300781 -3.574219 l -6.957031 -8.367187 c -0.894531 -1.070313 -2.234375 -1.660156 -3.636719 -1.617188 c -1.425781 0.042969 -2.726562 0.734375 -3.554688 1.851563 z m 0 0"
             fill="#62a0ea"
             id="path103" />
          <path
             d="m 46.21875 1.496094 c -8.957031 0 -16.34375 7.292968 -16.34375 16.144531 v 43.046875 c 0 8.871094 7.386719 16.144531 16.34375 16.144531 h 43.582031 c 8.957031 0 16.34375 -7.273437 16.34375 -16.144531 v -43.046875 c 0 -8.851563 -7.386719 -16.144531 -16.34375 -16.144531 z m 0 10.761718 h 43.582031 c 3.105469 0 5.445313 2.3125 5.445313 5.382813 v 43.046875 c 0 3.089844 -2.339844 5.382812 -5.445313 5.382812 h -43.582031 c -3.105469 0 -5.449219 -2.292968 -5.449219 -5.382812 v -43.046875 c 0 -3.070313 2.34375 -5.382813 5.449219 -5.382813 z m 0 0"
             fill="#62a0ea"
             id="path104" />
          <path
             d="m 6.507812 55.707031 v 19.132813 c 0 7.042968 5.710938 12.753906 12.753907 12.753906 h 94.605469 c 7.042968 0 12.753906 -5.710938 12.753906 -12.753906 v -18.070313 c 0 6.609375 -3.175782 12.476563 -8.082032 16.160157 c -1.734374 2.441406 -4.585937 4.035156 -7.804687 4.035156 h -88.339844 c -3.679687 0 -6.875 -2.078125 -8.476562 -5.128906 c -4.535157 -3.898438 -7.410157 -9.679688 -7.410157 -16.128907 z m 120.113282 -40.394531 v -1.0625 c 0 -7.042969 -5.710938 -12.753906 -12.753906 -12.753906 h -1.050782 c 7.625 0.007812 13.804688 6.191406 13.804688 13.816406 z m 0 0"
             fill="#5e5c64"
             fill-rule="evenodd"
             id="path105" />
        </g>
      </g>
    </g>
  </mask>
  <mask
     id="E">
    <g
       filter="url(#a)"
       id="g108">
      <rect
         fill-opacity="0.8"
         height="184.32"
         width="184.32"
         x="-28.16"
         y="-28.16"
         id="rect107" />
    </g>
  </mask>
  <linearGradient
     id="F"
     gradientTransform="matrix(0 0.37 -0.98462 0 295.38501 -30.360001)"
     gradientUnits="userSpaceOnUse"
     x1="300"
     x2="428"
     y1="235"
     y2="235">
    <stop
       offset="0"
       stop-color="#f9f06b"
       id="stop108" />
    <stop
       offset="1"
       stop-color="#f5c211"
       id="stop109" />
  </linearGradient>
  <clipPath
     id="G">
    <rect
       height="128"
       width="128"
       id="rect109" />
  </clipPath>
  <clipPath
     id="H">
    <rect
       height="128"
       width="128"
       id="rect110" />
  </clipPath>
  <path
     d="m 22.453125 24.878906 h 88.222656 c 6.457031 0 11.691407 5.238282 11.691407 11.695313 v 79.71875 c 0 6.460937 -5.234376 11.695312 -11.691407 11.695312 h -88.222656 c -6.460937 0 -11.695313 -5.234375 -11.695313 -11.695312 v -79.71875 c 0 -6.457031 5.234376 -11.695313 11.695313 -11.695313 z m 0 0"
     fill="url(#b)"
     id="path110" />
  <g
     fill="#241f31"
     id="g160">
    <path
       d="m 21.859375 104.015625 c 0.996094 0 1.808594 0.808594 1.808594 1.804687 v 2.328126 c 0 0.996093 -0.8125 1.804687 -1.808594 1.804687 s -1.804687 -0.808594 -1.804687 -1.804687 v -2.328126 c 0 -0.996093 0.808593 -1.804687 1.804687 -1.804687 z m 0 0"
       id="path111" />
    <path
       d="m 21.859375 118.859375 c 0.996094 0 1.808594 0.808594 1.808594 1.808594 v 2.324219 c 0 0.996093 -0.8125 1.804687 -1.808594 1.804687 s -1.804687 -0.808594 -1.804687 -1.804687 v -2.324219 c 0 -1 0.808593 -1.808594 1.804687 -1.808594 z m 0 0"
       id="path112" />
    <path
       d="m 29.988281 104.015625 c 0.996094 0 1.804688 0.808594 1.804688 1.804687 v 2.328126 c 0 0.996093 -0.808594 1.804687 -1.804688 1.804687 c -0.996093 0 -1.808593 -0.808594 -1.808593 -1.804687 v -2.328126 c 0 -0.996093 0.8125 -1.804687 1.808593 -1.804687 z m 0 0"
       id="path113" />
    <path
       d="m 29.988281 118.859375 c 0.996094 0 1.804688 0.808594 1.804688 1.808594 v 2.324219 c 0 0.996093 -0.808594 1.804687 -1.804688 1.804687 c -0.996093 0 -1.808593 -0.808594 -1.808593 -1.804687 v -2.324219 c 0 -1 0.8125 -1.808594 1.808593 -1.808594 z m 0 0"
       id="path114" />
    <path
       d="m 38.117188 104.015625 c 0.996093 0 1.804687 0.808594 1.804687 1.804687 v 2.328126 c 0 0.996093 -0.808594 1.804687 -1.804687 1.804687 c -1 0 -1.808594 -0.808594 -1.808594 -1.804687 v -2.328126 c 0 -0.996093 0.808594 -1.804687 1.808594 -1.804687 z m 0 0"
       id="path115" />
    <path
       d="m 38.117188 118.859375 c 0.996093 0 1.804687 0.808594 1.804687 1.808594 v 2.324219 c 0 0.996093 -0.808594 1.804687 -1.804687 1.804687 c -1 0 -1.808594 -0.808594 -1.808594 -1.804687 v -2.324219 c 0 -1 0.808594 -1.808594 1.808594 -1.808594 z m 0 0"
       id="path116" />
    <path
       d="m 46.242188 104.015625 c 1 0 1.808593 0.808594 1.808593 1.804687 v 2.328126 c 0 0.996093 -0.808593 1.804687 -1.808593 1.804687 c -0.996094 0 -1.804688 -0.808594 -1.804688 -1.804687 v -2.328126 c 0 -0.996093 0.808594 -1.804687 1.804688 -1.804687 z m 0 0"
       id="path117" />
    <path
       d="m 46.242188 118.859375 c 1 0 1.808593 0.808594 1.808593 1.808594 v 2.324219 c 0 0.996093 -0.808593 1.804687 -1.808593 1.804687 c -0.996094 0 -1.804688 -0.808594 -1.804688 -1.804687 v -2.324219 c 0 -1 0.808594 -1.808594 1.804688 -1.808594 z m 0 0"
       id="path118" />
    <path
       d="m 54.371094 104.015625 c 1 0 1.808594 0.808594 1.808594 1.804687 v 2.328126 c 0 0.996093 -0.808594 1.804687 -1.808594 1.804687 c -0.996094 0 -1.804688 -0.808594 -1.804688 -1.804687 v -2.328126 c 0 -0.996093 0.808594 -1.804687 1.804688 -1.804687 z m 0 0"
       id="path119" />
    <path
       d="m 54.371094 118.859375 c 1 0 1.808594 0.808594 1.808594 1.808594 v 2.324219 c 0 0.996093 -0.808594 1.804687 -1.808594 1.804687 c -0.996094 0 -1.804688 -0.808594 -1.804688 -1.804687 v -2.324219 c 0 -1 0.808594 -1.808594 1.804688 -1.808594 z m 0 0"
       id="path120" />
    <path
       d="m 62.5 104.015625 c 0.996094 0 1.804688 0.808594 1.804688 1.804687 v 2.328126 c 0 0.996093 -0.808594 1.804687 -1.804688 1.804687 s -1.804688 -0.808594 -1.804688 -1.804687 v -2.328126 c 0 -0.996093 0.808594 -1.804687 1.804688 -1.804687 z m 0 0"
       id="path121" />
    <path
       d="m 62.5 118.859375 c 0.996094 0 1.804688 0.808594 1.804688 1.808594 v 2.324219 c 0 0.996093 -0.808594 1.804687 -1.804688 1.804687 s -1.804688 -0.808594 -1.804688 -1.804687 v -2.324219 c 0 -1 0.808594 -1.808594 1.804688 -1.808594 z m 0 0"
       id="path122" />
    <path
       d="m 70.628906 104.015625 c 0.996094 0 1.804688 0.808594 1.804688 1.804687 v 2.328126 c 0 0.996093 -0.808594 1.804687 -1.804688 1.804687 c -1 0 -1.808594 -0.808594 -1.808594 -1.804687 v -2.328126 c 0 -0.996093 0.808594 -1.804687 1.808594 -1.804687 z m 0 0"
       id="path123" />
    <path
       d="m 70.628906 118.859375 c 0.996094 0 1.804688 0.808594 1.804688 1.808594 v 2.324219 c 0 0.996093 -0.808594 1.804687 -1.804688 1.804687 c -1 0 -1.808594 -0.808594 -1.808594 -1.804687 v -2.324219 c 0 -1 0.808594 -1.808594 1.808594 -1.808594 z m 0 0"
       id="path124" />
    <path
       d="m 78.757812 104.015625 c 0.996094 0 1.804688 0.808594 1.804688 1.804687 v 2.328126 c 0 0.996093 -0.808594 1.804687 -1.804688 1.804687 c -1 0 -1.808593 -0.808594 -1.808593 -1.804687 v -2.328126 c 0 -0.996093 0.808593 -1.804687 1.808593 -1.804687 z m 0 0"
       id="path125" />
    <path
       d="m 78.757812 118.859375 c 0.996094 0 1.804688 0.808594 1.804688 1.808594 v 2.324219 c 0 0.996093 -0.808594 1.804687 -1.804688 1.804687 c -1 0 -1.808593 -0.808594 -1.808593 -1.804687 v -2.324219 c 0 -1 0.808593 -1.808594 1.808593 -1.808594 z m 0 0"
       id="path126" />
    <path
       d="m 86.882812 104.015625 c 1 0 1.808594 0.808594 1.808594 1.804687 v 2.328126 c 0 0.996093 -0.808594 1.804687 -1.808594 1.804687 c -0.996093 0 -1.804687 -0.808594 -1.804687 -1.804687 v -2.328126 c 0 -0.996093 0.808594 -1.804687 1.804687 -1.804687 z m 0 0"
       id="path127" />
    <path
       d="m 86.882812 118.859375 c 1 0 1.808594 0.808594 1.808594 1.808594 v 2.324219 c 0 0.996093 -0.808594 1.804687 -1.808594 1.804687 c -0.996093 0 -1.804687 -0.808594 -1.804687 -1.804687 v -2.324219 c 0 -1 0.808594 -1.808594 1.804687 -1.808594 z m 0 0"
       id="path128" />
    <path
       d="m 95.011719 104.015625 c 0.996093 0 1.804687 0.808594 1.804687 1.804687 v 2.328126 c 0 0.996093 -0.808594 1.804687 -1.804687 1.804687 c -0.996094 0 -1.804688 -0.808594 -1.804688 -1.804687 v -2.328126 c 0 -0.996093 0.808594 -1.804687 1.804688 -1.804687 z m 0 0"
       id="path129" />
    <path
       d="m 95.011719 118.859375 c 0.996093 0 1.804687 0.808594 1.804687 1.808594 v 2.324219 c 0 0.996093 -0.808594 1.804687 -1.804687 1.804687 c -0.996094 0 -1.804688 -0.808594 -1.804688 -1.804687 v -2.324219 c 0 -1 0.808594 -1.808594 1.804688 -1.808594 z m 0 0"
       id="path130" />
    <path
       d="m 103.140625 104.015625 c 0.996094 0 1.804687 0.808594 1.804687 1.804687 v 2.328126 c 0 0.996093 -0.808593 1.804687 -1.804687 1.804687 s -1.804687 -0.808594 -1.804687 -1.804687 v -2.328126 c 0 -0.996093 0.808593 -1.804687 1.804687 -1.804687 z m 0 0"
       id="path131" />
    <path
       d="m 103.140625 118.859375 c 0.996094 0 1.804687 0.808594 1.804687 1.808594 v 2.324219 c 0 0.996093 -0.808593 1.804687 -1.804687 1.804687 s -1.804687 -0.808594 -1.804687 -1.804687 v -2.324219 c 0 -1 0.808593 -1.808594 1.804687 -1.808594 z m 0 0"
       id="path132" />
    <path
       d="m 111.269531 104.015625 c 0.996094 0 1.804688 0.808594 1.804688 1.804687 v 2.328126 c 0 0.996093 -0.808594 1.804687 -1.804688 1.804687 c -1 0 -1.808593 -0.808594 -1.808593 -1.804687 v -2.328126 c 0 -0.996093 0.808593 -1.804687 1.808593 -1.804687 z m 0 0"
       id="path133" />
    <path
       d="m 111.269531 118.859375 c 0.996094 0 1.804688 0.808594 1.804688 1.808594 v 2.324219 c 0 0.996093 -0.808594 1.804687 -1.804688 1.804687 c -1 0 -1.808593 -0.808594 -1.808593 -1.804687 v -2.324219 c 0 -1 0.808593 -1.808594 1.808593 -1.808594 z m 0 0"
       id="path134" />
    <path
       d="m 17.34375 96.097656 c 0.996094 0 1.804688 0.808594 1.804688 1.808594 v 2.324219 c 0 0.996093 -0.808594 1.804687 -1.804688 1.804687 s -1.804688 -0.808594 -1.804688 -1.804687 v -2.324219 c 0 -1 0.808594 -1.808594 1.804688 -1.808594 z m 0 0"
       id="path135" />
    <path
       d="m 17.34375 110.945312 c 0.996094 0 1.804688 0.808594 1.804688 1.804688 v 2.324219 c 0 1 -0.808594 1.808593 -1.804688 1.808593 s -1.804688 -0.808593 -1.804688 -1.808593 v -2.324219 c 0 -0.996094 0.808594 -1.804688 1.804688 -1.804688 z m 0 0"
       id="path136" />
    <path
       d="m 25.472656 96.097656 c 0.996094 0 1.804688 0.808594 1.804688 1.808594 v 2.324219 c 0 0.996093 -0.808594 1.804687 -1.804688 1.804687 s -1.804687 -0.808594 -1.804687 -1.804687 v -2.324219 c 0 -1 0.808593 -1.808594 1.804687 -1.808594 z m 0 0"
       id="path137" />
    <path
       d="m 25.472656 110.945312 c 0.996094 0 1.804688 0.808594 1.804688 1.804688 v 2.324219 c 0 1 -0.808594 1.808593 -1.804688 1.808593 s -1.804687 -0.808593 -1.804687 -1.808593 v -2.324219 c 0 -0.996094 0.808593 -1.804688 1.804687 -1.804688 z m 0 0"
       id="path138" />
    <path
       d="m 33.601562 96.097656 c 0.996094 0 1.804688 0.808594 1.804688 1.808594 v 2.324219 c 0 0.996093 -0.808594 1.804687 -1.804688 1.804687 c -1 0 -1.808593 -0.808594 -1.808593 -1.804687 v -2.324219 c 0 -1 0.808593 -1.808594 1.808593 -1.808594 z m 0 0"
       id="path139" />
    <path
       d="m 33.601562 110.945312 c 0.996094 0 1.804688 0.808594 1.804688 1.804688 v 2.324219 c 0 1 -0.808594 1.808593 -1.804688 1.808593 c -1 0 -1.808593 -0.808593 -1.808593 -1.808593 v -2.324219 c 0 -0.996094 0.808593 -1.804688 1.808593 -1.804688 z m 0 0"
       id="path140" />
    <path
       d="m 41.726562 96.097656 c 1 0 1.808594 0.808594 1.808594 1.808594 v 2.324219 c 0 0.996093 -0.808594 1.804687 -1.808594 1.804687 c -0.996093 0 -1.804687 -0.808594 -1.804687 -1.804687 v -2.324219 c 0 -1 0.808594 -1.808594 1.804687 -1.808594 z m 0 0"
       id="path141" />
    <path
       d="m 41.726562 110.945312 c 1 0 1.808594 0.808594 1.808594 1.804688 v 2.324219 c 0 1 -0.808594 1.808593 -1.808594 1.808593 c -0.996093 0 -1.804687 -0.808593 -1.804687 -1.808593 v -2.324219 c 0 -0.996094 0.808594 -1.804688 1.804687 -1.804688 z m 0 0"
       id="path142" />
    <path
       d="m 49.855469 96.097656 c 1 0 1.808593 0.808594 1.808593 1.808594 v 2.324219 c 0 0.996093 -0.808593 1.804687 -1.808593 1.804687 c -0.996094 0 -1.804688 -0.808594 -1.804688 -1.804687 v -2.324219 c 0 -1 0.808594 -1.808594 1.804688 -1.808594 z m 0 0"
       id="path143" />
    <path
       d="m 49.855469 110.945312 c 1 0 1.808593 0.808594 1.808593 1.804688 v 2.324219 c 0 1 -0.808593 1.808593 -1.808593 1.808593 c -0.996094 0 -1.804688 -0.808593 -1.804688 -1.808593 v -2.324219 c 0 -0.996094 0.808594 -1.804688 1.804688 -1.804688 z m 0 0"
       id="path144" />
    <path
       d="m 57.984375 96.097656 c 0.996094 0 1.804687 0.808594 1.804687 1.808594 v 2.324219 c 0 0.996093 -0.808593 1.804687 -1.804687 1.804687 s -1.804687 -0.808594 -1.804687 -1.804687 v -2.324219 c 0 -1 0.808593 -1.808594 1.804687 -1.808594 z m 0 0"
       id="path145" />
    <path
       d="m 57.984375 110.945312 c 0.996094 0 1.804687 0.808594 1.804687 1.804688 v 2.324219 c 0 1 -0.808593 1.808593 -1.804687 1.808593 s -1.804687 -0.808593 -1.804687 -1.808593 v -2.324219 c 0 -0.996094 0.808593 -1.804688 1.804687 -1.804688 z m 0 0"
       id="path146" />
    <path
       d="m 66.113281 96.097656 c 0.996094 0 1.804688 0.808594 1.804688 1.808594 v 2.324219 c 0 0.996093 -0.808594 1.804687 -1.804688 1.804687 c -1 0 -1.808593 -0.808594 -1.808593 -1.804687 v -2.324219 c 0 -1 0.808593 -1.808594 1.808593 -1.808594 z m 0 0"
       id="path147" />
    <path
       d="m 66.113281 110.945312 c 0.996094 0 1.804688 0.808594 1.804688 1.804688 v 2.324219 c 0 1 -0.808594 1.808593 -1.804688 1.808593 c -1 0 -1.808593 -0.808593 -1.808593 -1.808593 v -2.324219 c 0 -0.996094 0.808593 -1.804688 1.808593 -1.804688 z m 0 0"
       id="path148" />
    <path
       d="m 74.242188 96.097656 c 0.996093 0 1.804687 0.808594 1.804687 1.808594 v 2.324219 c 0 0.996093 -0.808594 1.804687 -1.804687 1.804687 c -1 0 -1.808594 -0.808594 -1.808594 -1.804687 v -2.324219 c 0 -1 0.808594 -1.808594 1.808594 -1.808594 z m 0 0"
       id="path149" />
    <path
       d="m 74.242188 110.945312 c 0.996093 0 1.804687 0.808594 1.804687 1.804688 v 2.324219 c 0 1 -0.808594 1.808593 -1.804687 1.808593 c -1 0 -1.808594 -0.808593 -1.808594 -1.808593 v -2.324219 c 0 -0.996094 0.808594 -1.804688 1.808594 -1.804688 z m 0 0"
       id="path150" />
    <path
       d="m 82.367188 96.097656 c 1 0 1.808593 0.808594 1.808593 1.808594 v 2.324219 c 0 0.996093 -0.808593 1.804687 -1.808593 1.804687 c -0.996094 0 -1.804688 -0.808594 -1.804688 -1.804687 v -2.324219 c 0 -1 0.808594 -1.808594 1.804688 -1.808594 z m 0 0"
       id="path151" />
    <path
       d="m 82.367188 110.945312 c 1 0 1.808593 0.808594 1.808593 1.804688 v 2.324219 c 0 1 -0.808593 1.808593 -1.808593 1.808593 c -0.996094 0 -1.804688 -0.808593 -1.804688 -1.808593 v -2.324219 c 0 -0.996094 0.808594 -1.804688 1.804688 -1.804688 z m 0 0"
       id="path152" />
    <path
       d="m 90.496094 96.097656 c 0.996094 0 1.804687 0.808594 1.804687 1.808594 v 2.324219 c 0 0.996093 -0.808593 1.804687 -1.804687 1.804687 s -1.804688 -0.808594 -1.804688 -1.804687 v -2.324219 c 0 -1 0.808594 -1.808594 1.804688 -1.808594 z m 0 0"
       id="path153" />
    <path
       d="m 90.496094 110.945312 c 0.996094 0 1.804687 0.808594 1.804687 1.804688 v 2.324219 c 0 1 -0.808593 1.808593 -1.804687 1.808593 s -1.804688 -0.808593 -1.804688 -1.808593 v -2.324219 c 0 -0.996094 0.808594 -1.804688 1.804688 -1.804688 z m 0 0"
       id="path154" />
    <path
       d="m 98.625 96.097656 c 0.996094 0 1.804688 0.808594 1.804688 1.808594 v 2.324219 c 0 0.996093 -0.808594 1.804687 -1.804688 1.804687 c -1 0 -1.808594 -0.808594 -1.808594 -1.804687 v -2.324219 c 0 -1 0.808594 -1.808594 1.808594 -1.808594 z m 0 0"
       id="path155" />
    <path
       d="m 98.625 110.945312 c 0.996094 0 1.804688 0.808594 1.804688 1.804688 v 2.324219 c 0 1 -0.808594 1.808593 -1.804688 1.808593 c -1 0 -1.808594 -0.808593 -1.808594 -1.808593 v -2.324219 c 0 -0.996094 0.808594 -1.804688 1.808594 -1.804688 z m 0 0"
       id="path156" />
    <path
       d="m 106.753906 96.097656 c 0.996094 0 1.804688 0.808594 1.804688 1.808594 v 2.324219 c 0 0.996093 -0.808594 1.804687 -1.804688 1.804687 c -1 0 -1.808594 -0.808594 -1.808594 -1.804687 v -2.324219 c 0 -1 0.808594 -1.808594 1.808594 -1.808594 z m 0 0"
       id="path157" />
    <path
       d="m 106.753906 110.945312 c 0.996094 0 1.804688 0.808594 1.804688 1.804688 v 2.324219 c 0 1 -0.808594 1.808593 -1.804688 1.808593 c -1 0 -1.808594 -0.808593 -1.808594 -1.808593 v -2.324219 c 0 -0.996094 0.808594 -1.804688 1.808594 -1.804688 z m 0 0"
       id="path158" />
    <path
       d="m 114.878906 96.097656 c 1 0 1.808594 0.808594 1.808594 1.808594 v 2.324219 c 0 0.996093 -0.808594 1.804687 -1.808594 1.804687 c -0.996094 0 -1.804687 -0.808594 -1.804687 -1.804687 v -2.324219 c 0 -1 0.808593 -1.808594 1.804687 -1.808594 z m 0 0"
       id="path159" />
    <path
       d="m 114.878906 110.945312 c 1 0 1.808594 0.808594 1.808594 1.804688 v 2.324219 c 0 1 -0.808594 1.808593 -1.808594 1.808593 c -0.996094 0 -1.804687 -0.808593 -1.804687 -1.808593 v -2.324219 c 0 -0.996094 0.808593 -1.804688 1.804687 -1.804688 z m 0 0"
       id="path160" />
  </g>
  <g
     mask="url(#D)"
     id="g184">
    <g
       clip-path="url(#H)"
       id="g183">
      <g
         mask="url(#E)"
         id="g182">
        <g
           clip-path="url(#G)"
           id="g181">
          <path
             d="m 128 80.640625 v 47.359375 h -128 v -47.359375 z m 0 0"
             fill="url(#F)"
             id="path180" />
          <path
             d="m 13.308594 80.640625 l 47.355468 47.359375 h 21.214844 l -47.359375 -47.359375 z m 42.421875 0 l 47.363281 47.359375 h 21.214844 l -47.363282 -47.359375 z m 42.429687 0 l 29.839844 29.839844 v -21.210938 l -8.628906 -8.628906 z m -98.160156 7.90625 v 21.214844 l 18.238281 18.238281 h 21.214844 z m 0 0"
             id="path181" />
        </g>
      </g>
    </g>
  </g>
  <path
     d="m 19.261719 52.515625 h 94.605469 c 7.042968 0 12.753906 5.710937 12.753906 12.757813 v 17.007812 c 0 7.042969 -5.710938 12.753906 -12.753906 12.753906 h -94.605469 c -7.042969 0 -12.753907 -5.710937 -12.753907 -12.753906 v -17.007812 c 0 -7.046876 5.710938 -12.757813 12.753907 -12.757813 z m 0 0"
     fill="url(#c)"
     id="path161" />
  <path
     d="m 19.261719 1.496094 h 94.605469 c 7.042968 0 12.753906 5.710937 12.753906 12.753906 v 60.589844 c 0 7.042968 -5.710938 12.753906 -12.753906 12.753906 h -94.605469 c -7.042969 0 -12.753907 -5.710938 -12.753907 -12.753906 v -60.589844 c 0 -7.042969 5.710938 -12.753906 12.753907 -12.753906 z m 0 0"
     fill="#5e5c64"
     id="path162" />
  <path
     d="m 22.453125 12.125 h 88.222656 c 5.285157 0 9.566407 4.285156 9.566407 9.566406 v 45.707032 c 0 5.285156 -4.28125 9.566406 -9.566407 9.566406 h -88.222656 c -5.285156 0 -9.570313 -4.28125 -9.570313 -9.566406 v -45.707032 c 0 -5.28125 4.285157 -9.566406 9.570313 -9.566406 z m 0 0"
     fill="#241f31"
     id="path163" />
  <g
     clip-path="url(#d)"
     id="g165">
    <g
       clip-path="url(#e)"
       id="g164">
      <path
         d="m 31.257812 15.117188 l 6.375 23.789062 l 19.03125 -5.097656 l -1.277343 -4.757813 z m -9.347656 12.703124 c -3.921875 1.050782 -6.273437 5.128907 -5.222656 9.050782 s 5.128906 6.273437 9.046875 5.222656 c 3.921875 -1.050781 6.277344 -5.125 5.226563 -9.046875 c -1.050782 -3.921875 -5.128907 -6.277344 -9.050782 -5.226563 z m 1.277344 4.757813 c 1.335938 -0.355469 2.65625 0.40625 3.015625 1.742187 c 0.359375 1.339844 -0.402344 2.660157 -1.742187 3.015626 c -1.335938 0.359374 -2.65625 -0.402344 -3.015626 -1.738282 c -0.359374 -1.339844 0.402344 -2.660156 1.742188 -3.019531 z m -3.3125 16.1875 l 1.273438 4.757813 l 28.546874 -7.648438 l -1.273437 -4.757812 z m 2.550781 9.515625 l 1.273438 4.757812 l 28.546875 -7.648437 l -1.273438 -4.757813 z m 2.546875 9.515625 l 1.277344 4.757813 l 28.546875 -7.648438 l -1.277344 -4.757812 z m 0 0"
         fill="#1a5fb4"
         id="path164" />
    </g>
  </g>
  <g
     clip-path="url(#f)"
     id="g167">
    <g
       clip-path="url(#g)"
       id="g166">
      <path
         d="m 11.976562 76.378906 c 2.113282 7.898438 10.199219 12.566406 18.097657 10.449219 l 28.546875 -7.648437 c 7.898437 -2.117188 12.566406 -10.199219 10.449218 -18.097657 l -7.648437 -28.546875 c -1.15625 -4.3125 -3.972656 -7.980468 -7.835937 -10.210937 l -15.601563 -9.007813 c -3.863281 -2.230468 -8.449219 -2.835937 -12.761719 -1.679687 l -14.273437 3.824219 c -7.898438 2.117187 -12.566407 10.199218 -10.449219 18.097656 z m 1.523438 -51.402344 l 14.273438 -3.824218 c 1.785156 -0.480469 3.683593 -0.230469 5.285156 0.695312 l 15.601562 9.007813 c 1.601563 0.921875 2.765625 2.445312 3.246094 4.226562 l 7.648438 28.550781 c 0.695312 2.601563 -0.882813 5.332032 -3.484376 6.03125 l -28.546874 7.648438 c -2.601563 0.699219 -5.335938 -0.878906 -6.03125 -3.484375 l -11.476563 -42.820313 c -0.695313 -2.601562 0.882813 -5.335937 3.484375 -6.03125 z m 0 0"
         fill="#1a5fb4"
         id="path165" />
    </g>
  </g>
  <g
     clip-path="url(#h)"
     id="g169">
    <g
       clip-path="url(#i)"
       id="g168">
      <path
         d="m 31.257812 12.992188 l 6.375 23.789062 l 19.03125 -5.097656 l -1.277343 -4.757813 z m -9.347656 12.703124 c -3.921875 1.050782 -6.273437 5.128907 -5.222656 9.050782 s 5.128906 6.273437 9.046875 5.222656 c 3.921875 -1.050781 6.277344 -5.125 5.226563 -9.046875 c -1.050782 -3.921875 -5.128907 -6.277344 -9.050782 -5.226563 z m 1.277344 4.757813 c 1.335938 -0.359375 2.65625 0.402344 3.015625 1.742187 c 0.359375 1.339844 -0.402344 2.65625 -1.742187 3.015626 c -1.335938 0.359374 -2.65625 -0.402344 -3.015626 -1.742188 c -0.359374 -1.335938 0.402344 -2.65625 1.742188 -3.015625 z m -3.3125 16.1875 l 1.273438 4.757813 l 28.546874 -7.648438 l -1.273437 -4.757812 z m 2.550781 9.515625 l 1.273438 4.757812 l 28.546875 -7.648437 l -1.273438 -4.757813 z m 2.546875 9.515625 l 1.277344 4.757813 l 28.546875 -7.648438 l -1.277344 -4.757812 z m 0 0"
         fill="#3584e4"
         id="path167" />
    </g>
  </g>
  <g
     clip-path="url(#j)"
     id="g171">
    <g
       clip-path="url(#k)"
       id="g170">
      <path
         d="m 11.976562 74.253906 c 2.113282 7.898438 10.199219 12.566406 18.097657 10.449219 l 28.546875 -7.648437 c 7.898437 -2.117188 12.566406 -10.199219 10.449218 -18.097657 l -7.648437 -28.550781 c -1.15625 -4.308594 -3.972656 -7.976562 -7.835937 -10.210938 l -15.601563 -9.003906 c -3.863281 -2.234375 -8.449219 -2.835937 -12.761719 -1.679687 l -14.273437 3.824219 c -7.898438 2.113281 -12.566407 10.199218 -10.449219 18.097656 z m 1.523438 -51.402344 l 14.273438 -3.824218 c 1.785156 -0.480469 3.683593 -0.230469 5.285156 0.695312 l 15.601562 9.003906 c 1.601563 0.925782 2.765625 2.445313 3.246094 4.230469 l 7.648438 28.546875 c 0.695312 2.601563 -0.882813 5.335938 -3.484376 6.035156 l -28.546874 7.648438 c -2.601563 0.695312 -5.335938 -0.882812 -6.03125 -3.484375 l -11.476563 -42.820313 c -0.695313 -2.601562 0.882813 -5.335937 3.484375 -6.03125 z m 0 0"
         fill="#3584e4"
         id="path169" />
    </g>
  </g>
  <g
     clip-path="url(#l)"
     id="g173">
    <g
       clip-path="url(#m)"
       id="g172">
      <path
         d="m 101.003906 19.695312 c -17.96875 -4.167968 -36.042968 7.101563 -40.210937 25.066407 c -4.167969 17.96875 7.101562 36.042969 25.066406 40.210937 c 17.96875 4.167969 36.042969 -7.101562 40.210937 -25.066406 c 4.167969 -17.96875 -7.097656 -36.042969 -25.066406 -40.210938 z m 5.6875 11.925782 c 3.808594 2.425781 6.816406 5.828125 8.769532 9.773437 l -5.339844 -1.238281 c -0.710938 -2.960938 -1.851563 -5.839844 -3.429688 -8.535156 z m -16.195312 -3.703125 c -2.566406 1.734375 -4.851563 3.78125 -6.789063 6.109375 l -5.234375 -1.214844 c 3.445313 -2.65625 7.601563 -4.363281 12.023438 -4.894531 z m 5.886718 1.8125 l -1.59375 6.867187 l -6.085937 -1.410156 c 2.179687 -2.21875 4.746094 -4.078125 7.679687 -5.457031 z m 4.335938 1.078125 c 1.980469 2.5 3.449219 5.277344 4.421875 8.191406 l -6 -1.390625 z m -26.097656 5.699218 l 6.273437 1.453126 c -1.585937 2.589843 -2.84375 5.394531 -3.71875 8.308593 l -7.070312 -1.640625 c 0.992187 -3.046875 2.558593 -5.78125 4.515625 -8.121094 z m 10.914062 2.53125 l 8.246094 1.910157 l -2.019531 8.703125 l -10.199219 -2.363282 c 0.894531 -2.929687 2.222656 -5.71875 3.972656 -8.25 z m 12.597656 2.921876 l 8.160157 1.890624 c 0.457031 3.046876 0.417969 6.136719 -0.066407 9.15625 l -10.113281 -2.34375 z m 12.796876 2.96875 l 6.359374 1.472656 c 0.726563 2.964844 0.929688 6.109375 0.480469 9.285156 l -7.15625 -1.660156 c 0.5 -3 0.601563 -6.078125 0.316407 -9.097656 z m -41.835938 4.050781 l 7.074219 1.640625 c -0.484375 3.003906 -0.605469 6.078125 -0.304688 9.101562 l -6.289062 -1.457031 c -0.726563 -2.964844 -0.929688 -6.109375 -0.480469 -9.285156 z m 11.457031 2.660156 l 10.199219 2.363281 l -2.015625 8.703125 l -8.230469 -1.90625 c -0.460937 -3.027343 -0.421875 -6.136719 0.046875 -9.160156 z m 14.550781 3.375 l 10.117188 2.34375 c -0.914062 2.925781 -2.246094 5.734375 -3.992188 8.246094 l -8.140624 -1.886719 z m 14.5 3.363281 l 7.160157 1.660156 c -0.996094 3.046876 -2.5625 5.78125 -4.519531 8.125 l -6.375 -1.480468 c 1.601562 -2.585938 2.847656 -5.394532 3.734374 -8.304688 z m -38.195312 4.894532 l 5.269531 1.222656 c 0.742188 2.96875 1.902344 5.851562 3.496094 8.550781 c -3.808594 -2.421875 -6.816406 -5.828125 -8.765625 -9.773437 z m 10.28125 2.386718 l 6.035156 1.398438 l -1.566406 6.75 c -2 -2.488282 -3.492188 -5.253906 -4.46875 -8.148438 z m 10.386719 2.410156 l 5.949219 1.378907 c -2.128907 2.15625 -4.644532 3.957031 -7.5 5.300781 z m 10.964843 2.542969 l 5.355469 1.242188 c -3.53125 2.710937 -7.785156 4.445312 -12.320312 4.917969 c 2.65625 -1.714844 4.984375 -3.808594 6.964843 -6.160157 z m 0 0"
         fill="#1a5fb4"
         id="path171" />
    </g>
  </g>
  <g
     clip-path="url(#n)"
     id="g175">
    <g
       clip-path="url(#o)"
       id="g174">
      <path
         d="m 102.066406 16.507812 c -17.96875 -4.167968 -36.039062 7.097657 -40.207031 25.066407 c -4.171875 17.96875 7.097656 36.039062 25.066406 40.207031 c 17.964844 4.167969 36.039063 -7.097656 40.207031 -25.066406 c 4.167969 -17.964844 -7.097656 -36.039063 -25.066406 -40.207032 z m 5.6875 11.925782 c 3.808594 2.421875 6.816406 5.824218 8.769532 9.769531 l -5.335938 -1.238281 c -0.714844 -2.957032 -1.851562 -5.839844 -3.433594 -8.53125 z m -16.191406 -3.703125 c -2.570312 1.730469 -4.855469 3.78125 -6.792969 6.109375 l -5.234375 -1.214844 c 3.445313 -2.660156 7.601563 -4.363281 12.027344 -4.894531 z m 5.882812 1.8125 l -1.59375 6.867187 l -6.085937 -1.414062 c 2.183594 -2.214844 4.746094 -4.074219 7.679687 -5.453125 z m 4.335938 1.078125 c 1.980469 2.5 3.449219 5.277344 4.421875 8.191406 l -6 -1.394531 z m -26.097656 5.695312 l 6.273437 1.457032 c -1.585937 2.585937 -2.84375 5.394531 -3.71875 8.308593 l -7.070312 -1.640625 c 0.992187 -3.046875 2.558593 -5.785156 4.515625 -8.125 z m 10.914062 2.53125 l 8.246094 1.914063 l -2.019531 8.703125 l -10.199219 -2.367188 c 0.894531 -2.925781 2.222656 -5.71875 3.972656 -8.25 z m 12.597656 2.921875 l 8.160157 1.894531 c 0.457031 3.042969 0.421875 6.132813 -0.066407 9.15625 l -10.113281 -2.347656 z m 12.800782 2.96875 l 6.355468 1.476563 c 0.730469 2.964844 0.929688 6.109375 0.480469 9.28125 l -7.15625 -1.660156 c 0.5 -3 0.605469 -6.074219 0.320313 -9.097657 z m -41.835938 4.054688 l 7.070313 1.640625 c -0.484375 3.003906 -0.605469 6.074218 -0.304688 9.101562 l -6.289062 -1.460937 c -0.726563 -2.960938 -0.929688 -6.109375 -0.476563 -9.28125 z m 11.457032 2.65625 l 10.199218 2.367187 l -2.019531 8.703125 l -8.230469 -1.910156 c -0.460937 -3.023437 -0.421875 -6.132813 0.050782 -9.160156 z m 14.550781 3.375 l 10.113281 2.347656 c -0.910156 2.921875 -2.242188 5.730469 -3.992188 8.246094 l -8.140624 -1.890625 z m 14.496093 3.367187 l 7.160157 1.65625 c -0.996094 3.050782 -2.5625 5.785156 -4.519531 8.125 l -6.375 -1.476562 c 1.601562 -2.585938 2.847656 -5.394532 3.734374 -8.304688 z m -38.195312 4.894532 l 5.269531 1.222656 c 0.742188 2.96875 1.902344 5.851562 3.496094 8.550781 c -3.808594 -2.425781 -6.816406 -5.828125 -8.765625 -9.773437 z m 10.28125 2.386718 l 6.035156 1.398438 l -1.566406 6.75 c -2 -2.488282 -3.492188 -5.253906 -4.46875 -8.148438 z m 10.386719 2.40625 l 5.949219 1.382813 c -2.128907 2.15625 -4.640626 3.957031 -7.496094 5.300781 z m 10.964843 2.546875 l 5.355469 1.242188 c -3.53125 2.707031 -7.785156 4.445312 -12.320312 4.914062 c 2.65625 -1.710937 4.984375 -3.804687 6.964843 -6.15625 z m 0 0"
         fill="#3584e4"
         id="path173" />
    </g>
  </g>
  <path
     d="m 57.113281 25.144531 c -3 0 -5.445312 2.417969 -5.445312 5.382813 c 0 2.984375 2.445312 5.382812 5.445312 5.382812 s 5.449219 -2.398437 5.449219 -5.382812 c 0 -2.964844 -2.449219 -5.382813 -5.449219 -5.382813 z m 17.238281 11.710938 l -9.535156 13.117187 c -0.550781 0.777344 -1.425781 1.261719 -2.382812 1.324219 c -0.957032 0.082031 -1.894532 -0.273437 -2.574219 -0.945313 l -2.234375 -2.25 c -1 -1.03125 -2.425781 -1.535156 -3.851562 -1.410156 c -1.425782 0.148438 -2.722657 0.90625 -3.511719 2.082032 l -4.042969 5.96875 v 5.382812 c 0 2.691406 2.722656 2.691406 2.722656 2.691406 h 38.132813 s 2.578125 -0.167968 2.726562 -2.691406 v -11.5625 c 0 -1.300781 -0.449219 -2.5625 -1.300781 -3.574219 l -6.957031 -8.363281 c -0.894531 -1.074219 -2.234375 -1.660156 -3.636719 -1.621094 c -1.425781 0.042969 -2.726562 0.738282 -3.554688 1.851563 z m 0 0"
     fill="#1c71d8"
     id="path175" />
  <path
     d="m 46.21875 3.621094 c -8.957031 0 -16.34375 7.292968 -16.34375 16.144531 v 43.050781 c 0 8.867188 7.386719 16.140625 16.34375 16.140625 h 43.582031 c 8.957031 0 16.34375 -7.273437 16.34375 -16.140625 v -43.050781 c 0 -8.851563 -7.386719 -16.144531 -16.34375 -16.144531 z m 0 10.761718 h 43.582031 c 3.105469 0 5.445313 2.3125 5.445313 5.382813 v 43.050781 c 0 3.089844 -2.339844 5.378906 -5.445313 5.378906 h -43.582031 c -3.105469 0 -5.449219 -2.289062 -5.449219 -5.378906 v -43.050781 c 0 -3.070313 2.34375 -5.382813 5.449219 -5.382813 z m 0 0"
     fill="#1c71d8"
     id="path176" />
  <path
     d="m 57.113281 23.019531 c -3 0 -5.445312 2.417969 -5.445312 5.382813 c 0 2.984375 2.445312 5.378906 5.445312 5.378906 s 5.449219 -2.394531 5.449219 -5.378906 c 0 -2.964844 -2.449219 -5.382813 -5.449219 -5.382813 z m 17.238281 11.710938 l -9.535156 13.113281 c -0.550781 0.78125 -1.425781 1.261719 -2.382812 1.324219 c -0.957032 0.085937 -1.894532 -0.269531 -2.574219 -0.945313 l -2.234375 -2.246094 c -1 -1.03125 -2.425781 -1.535156 -3.851562 -1.410156 c -1.425782 0.148438 -2.722657 0.902344 -3.511719 2.082032 l -4.042969 5.96875 v 5.382812 c 0 2.6875 2.722656 2.6875 2.722656 2.6875 h 38.132813 s 2.578125 -0.167969 2.726562 -2.6875 v -11.5625 c 0 -1.304688 -0.449219 -2.566406 -1.300781 -3.574219 l -6.957031 -8.367187 c -0.894531 -1.070313 -2.234375 -1.660156 -3.636719 -1.617188 c -1.425781 0.042969 -2.726562 0.734375 -3.554688 1.851563 z m 0 0"
     fill="#62a0ea"
     id="path177" />
  <path
     d="m 46.21875 1.496094 c -8.957031 0 -16.34375 7.292968 -16.34375 16.144531 v 43.046875 c 0 8.871094 7.386719 16.144531 16.34375 16.144531 h 43.582031 c 8.957031 0 16.34375 -7.273437 16.34375 -16.144531 v -43.046875 c 0 -8.851563 -7.386719 -16.144531 -16.34375 -16.144531 z m 0 10.761718 h 43.582031 c 3.105469 0 5.445313 2.3125 5.445313 5.382813 v 43.046875 c 0 3.089844 -2.339844 5.382812 -5.445313 5.382812 h -43.582031 c -3.105469 0 -5.449219 -2.292968 -5.449219 -5.382812 v -43.046875 c 0 -3.070313 2.34375 -5.382813 5.449219 -5.382813 z m 0 0"
     fill="#62a0ea"
     id="path178" />
  <path
     d="m 6.507812 55.707031 v 19.132813 c 0 7.042968 5.710938 12.753906 12.753907 12.753906 h 94.605469 c 7.042968 0 12.753906 -5.710938 12.753906 -12.753906 v -18.070313 c 0 6.609375 -3.175782 12.476563 -8.082032 16.160157 c -1.734374 2.441406 -4.585937 4.035156 -7.804687 4.035156 h -88.339844 c -3.679687 0 -6.875 -2.078125 -8.476562 -5.128906 c -4.535157 -3.898438 -7.410157 -9.679688 -7.410157 -16.128907 z m 120.113282 -40.394531 v -1.0625 c 0 -7.042969 -5.710938 -12.753906 -12.753906 -12.753906 h -1.050782 c 7.625 0.007812 13.804688 6.191406 13.804688 13.816406 z m 0 0"
     fill="#5e5c64"
     fill-rule="evenodd"
     id="path179" />
</svg>
