<?xml version="1.0" encoding="UTF-8" standalone="no"?>
<svg
   height="128px"
   viewBox="0 0 128 128"
   width="128px"
   version="1.1"
   id="svg191"
   sodipodi:docname="xyz.zateros.Binned.Devel.svg"
   inkscape:version="1.4 (e7c3feb100, 2024-10-09)"
   xmlns:inkscape="http://www.inkscape.org/namespaces/inkscape"
   xmlns:sodipodi="http://sodipodi.sourceforge.net/DTD/sodipodi-0.dtd"
   xmlns:xlink="http://www.w3.org/1999/xlink"
   xmlns="http://www.w3.org/2000/svg"
   xmlns:svg="http://www.w3.org/2000/svg">
  <defs
     id="defs191" />
  <sodipodi:namedview
     id="namedview191"
     pagecolor="#ffffff"
     bordercolor="#000000"
     borderopacity="0.25"
     inkscape:showpageshadow="2"
     inkscape:pageopacity="0.0"
     inkscape:pagecheckerboard="0"
     inkscape:deskcolor="#d1d1d1"
     inkscape:zoom="5.515625"
     inkscape:cx="63.909348"
     inkscape:cy="64"
     inkscape:window-width="1648"
     inkscape:window-height="961"
     inkscape:window-x="0"
     inkscape:window-y="0"
     inkscape:window-maximized="1"
     inkscape:current-layer="g189" />
  <filter
     id="a"
     height="1"
     width="1"
     x="0"
     y="0">
    <feColorMatrix
       color-interpolation-filters="sRGB"
       values="0 0 0 0 1 0 0 0 0 1 0 0 0 0 1 0 0 0 1 0"
       id="feColorMatrix1" />
  </filter>
  <linearGradient
     id="b"
     gradientUnits="userSpaceOnUse"
     x1="8.447596"
     x2="121.390846"
     y1="128.002475"
     y2="128.002475">
    <stop
       offset="0"
       stop-color="#5e5c64"
       id="stop1" />
    <stop
       offset="0.05"
       stop-color="#3d3846"
       id="stop2" />
    <stop
       offset="0.1"
       stop-color="#5e5c64"
       id="stop3" />
    <stop
       offset="0.9"
       stop-color="#5e5c64"
       id="stop4" />
    <stop
       offset="0.95"
       stop-color="#3d3846"
       id="stop5" />
    <stop
       offset="1"
       stop-color="#5e5c64"
       id="stop6" />
  </linearGradient>
  <linearGradient
     id="c"
     gradientUnits="userSpaceOnUse"
     x1="4.144996"
     x2="125.693446"
     y1="73.14421851065"
     y2="73.14421851065">
    <stop
       offset="0"
       stop-color="#3d3846"
       id="stop7" />
    <stop
       offset="0.05"
       stop-color="#241f31"
       id="stop8" />
    <stop
       offset="0.1"
       stop-color="#3d3846"
       id="stop9" />
    <stop
       offset="0.9"
       stop-color="#3d3846"
       id="stop10" />
    <stop
       offset="0.95"
       stop-color="#241f31"
       id="stop11" />
    <stop
       offset="1"
       stop-color="#3d3846"
       id="stop12" />
  </linearGradient>
  <clipPath
     id="d">
    <path
       d="m 20 11 h 42 v 58 h -42 z m 0 0"
       id="path12" />
  </clipPath>
  <clipPath
     id="e">
    <path
       d="m -0.46875 11.535156 l 73.433594 -10.785156 l 10.785156 73.433594 l -73.433594 10.785156 z m 0 0"
       id="path13" />
  </clipPath>
  <linearGradient
     id="f"
     gradientUnits="userSpaceOnUse">
    <stop
       offset="0"
       stop-color="#e5a50a"
       id="stop13" />
    <stop
       offset="1"
       stop-color="#a51d2d"
       id="stop14" />
  </linearGradient>
  <linearGradient
     id="g"
     x1="21.89967597565"
     x2="47.8206886"
     xlink:href="#f"
     y1="39.8125152113"
     y2="39.47303792" />
  <clipPath
     id="h">
    <path
       d="m 4 7 h 67 v 77 h -67 z m 0 0"
       id="path14" />
  </clipPath>
  <clipPath
     id="i">
    <path
       d="m -0.46875 11.535156 l 73.433594 -10.785156 l 10.785156 73.433594 l -73.433594 10.785156 z m 0 0"
       id="path15" />
  </clipPath>
  <linearGradient
     id="j"
     x1="7.819739095"
     x2="46.633171"
     xlink:href="#f"
     y1="46.25296851065"
     y2="46.25296851065" />
  <clipPath
     id="k">
    <path
       d="m 20 9 h 41 v 58 h -41 z m 0 0"
       id="path16" />
  </clipPath>
  <clipPath
     id="l">
    <path
       d="m -0.695312 9.710938 l 73.433593 -10.785157 l 10.785157 73.429688 l -73.433594 10.789062 z m 0 0"
       id="path17" />
  </clipPath>
  <linearGradient
     id="m"
     gradientUnits="userSpaceOnUse">
    <stop
       offset="0"
       stop-color="#f8e45c"
       id="stop17" />
    <stop
       offset="1"
       stop-color="#c01c28"
       id="stop18" />
  </linearGradient>
  <linearGradient
     id="n"
     x1="21.56525639065"
     x2="56.037041125"
     xlink:href="#m"
     y1="37.86902971565"
     y2="37.17792243935" />
  <clipPath
     id="o">
    <path
       d="m 4 5 h 67 v 77 h -67 z m 0 0"
       id="path18" />
  </clipPath>
  <clipPath
     id="p">
    <path
       d="m -0.695312 9.710938 l 73.433593 -10.785157 l 10.785157 73.429688 l -73.433594 10.789062 z m 0 0"
       id="path19" />
  </clipPath>
  <linearGradient
     id="q"
     x1="7.43411857"
     x2="59.06531857"
     xlink:href="#m"
     y1="44.26849967435"
     y2="43.87502798" />
  <clipPath
     id="r">
    <path
       d="m 53 14 h 73 v 73 h -73 z m 0 0"
       id="path20" />
  </clipPath>
  <clipPath
     id="s">
    <path
       d="m 59.421875 9.519531 l 76.199219 11.351563 l -11.351563 76.203125 l -76.199219 -11.355469 z m 0 0"
       id="path21" />
  </clipPath>
  <linearGradient
     id="t"
     gradientUnits="userSpaceOnUse"
     x1="67.8574643887"
     x2="82.1805013963"
     y1="93.6664319174"
     y2="38.092871405">
    <stop
       offset="0"
       stop-color="#33d17a"
       id="stop21" />
    <stop
       offset="1"
       stop-color="#26a269"
       id="stop22" />
  </linearGradient>
  <clipPath
     id="u">
    <path
       d="m 54 10 h 73 v 74 h -73 z m 0 0"
       id="path22" />
  </clipPath>
  <clipPath
     id="v">
    <path
       d="m 60.289062 6 l 76.199219 11.355469 l -11.351562 76.199219 l -76.199219 -11.351563 z m 0 0"
       id="path23" />
  </clipPath>
  <linearGradient
     id="w"
     gradientUnits="userSpaceOnUse"
     x1="56.11438036"
     x2="95.6421535813"
     y1="82.4928013013"
     y2="13.17597805565">
    <stop
       offset="0"
       stop-color="#8ff0a4"
       id="stop23" />
    <stop
       offset="1"
       stop-color="#26a269"
       id="stop24" />
  </linearGradient>
  <linearGradient
     id="x"
     gradientUnits="userSpaceOnUse">
    <stop
       offset="0"
       stop-color="#ff7800"
       id="stop25" />
    <stop
       offset="0.345836"
       stop-color="#c061cb"
       id="stop26" />
    <stop
       offset="1"
       stop-color="#1a5fb4"
       id="stop27" />
  </linearGradient>
  <linearGradient
     id="y"
     x1="42.3428312587"
     x2="71.6442902137"
     xlink:href="#x"
     y1="9.14304351065"
     y2="87.28030217" />
  <linearGradient
     id="z"
     x1="23.506696"
     x2="88.045696"
     xlink:href="#x"
     y1="-29.58035648935"
     y2="121.01075" />
  <linearGradient
     id="A"
     gradientUnits="userSpaceOnUse">
    <stop
       offset="0"
       stop-color="#e5a50a"
       id="stop28" />
    <stop
       offset="0.365978"
       stop-color="#dc8add"
       id="stop29" />
    <stop
       offset="1"
       stop-color="#3584e4"
       id="stop30" />
  </linearGradient>
  <linearGradient
     id="B"
     x1="40.1915312587"
     x2="52.29087487"
     xlink:href="#A"
     y1="-2.1512933215"
     y2="70.51242458" />
  <linearGradient
     id="C"
     x1="19.741921"
     x2="47.170996"
     xlink:href="#A"
     y1="-50.01770648935"
     y2="94.11939351065" />
  <clipPath
     id="D">
    <path
       d="m 8 23 h 114 v 105 h -114 z m 0 0"
       id="path30" />
  </clipPath>
  <clipPath
     id="E">
    <path
       d="m 20 11 h 42 v 58 h -42 z m 0 0"
       id="path31" />
  </clipPath>
  <clipPath
     id="F">
    <path
       d="m -0.46875 11.535156 l 73.433594 -10.785156 l 10.785156 73.433594 l -73.433594 10.785156 z m 0 0"
       id="path32" />
  </clipPath>
  <clipPath
     id="G">
    <path
       d="m 4 7 h 67 v 77 h -67 z m 0 0"
       id="path33" />
  </clipPath>
  <clipPath
     id="H">
    <path
       d="m -0.46875 11.535156 l 73.433594 -10.785156 l 10.785156 73.433594 l -73.433594 10.785156 z m 0 0"
       id="path34" />
  </clipPath>
  <clipPath
     id="I">
    <path
       d="m 20 9 h 41 v 58 h -41 z m 0 0"
       id="path35" />
  </clipPath>
  <clipPath
     id="J">
    <path
       d="m -0.695312 9.710938 l 73.433593 -10.785157 l 10.785157 73.429688 l -73.433594 10.789062 z m 0 0"
       id="path36" />
  </clipPath>
  <clipPath
     id="K">
    <path
       d="m 4 5 h 67 v 77 h -67 z m 0 0"
       id="path37" />
  </clipPath>
  <clipPath
     id="L">
    <path
       d="m -0.695312 9.710938 l 73.433593 -10.785157 l 10.785157 73.429688 l -73.433594 10.789062 z m 0 0"
       id="path38" />
  </clipPath>
  <clipPath
     id="M">
    <path
       d="m 53 14 h 73 v 73 h -73 z m 0 0"
       id="path39" />
  </clipPath>
  <clipPath
     id="N">
    <path
       d="m 59.421875 9.519531 l 76.199219 11.351563 l -11.351563 76.203125 l -76.199219 -11.355469 z m 0 0"
       id="path40" />
  </clipPath>
  <clipPath
     id="O">
    <path
       d="m 54 10 h 73 v 74 h -73 z m 0 0"
       id="path41" />
  </clipPath>
  <clipPath
     id="P">
    <path
       d="m 60.289062 6 l 76.199219 11.355469 l -11.351562 76.199219 l -76.199219 -11.351563 z m 0 0"
       id="path42" />
  </clipPath>
  <clipPath
     id="Q">
    <rect
       height="128"
       width="128"
       id="rect42" />
  </clipPath>
  <clipPath
     id="R">
    <rect
       height="128"
       width="128"
       id="rect43" />
  </clipPath>
  <mask
     id="S">
    <g
       filter="url(#a)"
       id="g114">
      <g
         clip-path="url(#R)"
         filter="url(#a)"
         id="g113">
        <g
           clip-path="url(#Q)"
           id="g112">
          <g
             clip-path="url(#D)"
             id="g43">
            <path
               d="m 20.28125 23.664062 h 89.277344 c 6.535156 0 11.832031 5.296876 11.832031 11.832032 v 80.675781 c 0 6.53125 -5.296875 11.832031 -11.832031 11.832031 h -89.277344 c -6.535156 0 -11.832031 -5.300781 -11.832031 -11.832031 v -80.675781 c 0 -6.535156 5.296875 -11.832032 11.832031 -11.832032 z m 0 0"
               fill="url(#b)"
               id="path43" />
          </g>
          <path
             d="m 19.679688 103.746094 c 1.011718 0 1.828124 0.816406 1.828124 1.824218 v 2.355469 c 0 1.007813 -0.816406 1.828125 -1.828124 1.828125 c -1.007813 0 -1.824219 -0.820312 -1.824219 -1.828125 v -2.355469 c 0 -1.007812 0.816406 -1.824218 1.824219 -1.824218 z m 0 0"
             fill="#241f31"
             id="path44" />
          <path
             d="m 19.679688 118.765625 c 1.011718 0 1.828124 0.820313 1.828124 1.828125 v 2.355469 c 0 1.007812 -0.816406 1.828125 -1.828124 1.828125 c -1.007813 0 -1.824219 -0.820313 -1.824219 -1.828125 v -2.355469 c 0 -1.007812 0.816406 -1.828125 1.824219 -1.828125 z m 0 0"
             fill="#241f31"
             id="path45" />
          <path
             d="m 27.90625 103.746094 c 1.007812 0 1.828125 0.816406 1.828125 1.824218 v 2.355469 c 0 1.007813 -0.820313 1.828125 -1.828125 1.828125 s -1.828125 -0.820312 -1.828125 -1.828125 v -2.355469 c 0 -1.007812 0.820313 -1.824218 1.828125 -1.824218 z m 0 0"
             fill="#241f31"
             id="path46" />
          <path
             d="m 27.90625 118.765625 c 1.007812 0 1.828125 0.820313 1.828125 1.828125 v 2.355469 c 0 1.007812 -0.820313 1.828125 -1.828125 1.828125 s -1.828125 -0.820313 -1.828125 -1.828125 v -2.355469 c 0 -1.007812 0.820313 -1.828125 1.828125 -1.828125 z m 0 0"
             fill="#241f31"
             id="path47" />
          <path
             d="m 36.132812 103.746094 c 1.007813 0 1.828126 0.816406 1.828126 1.824218 v 2.355469 c 0 1.007813 -0.820313 1.828125 -1.828126 1.828125 c -1.011718 0 -1.828124 -0.820312 -1.828124 -1.828125 v -2.355469 c 0 -1.007812 0.816406 -1.824218 1.828124 -1.824218 z m 0 0"
             fill="#241f31"
             id="path48" />
          <path
             d="m 36.132812 118.765625 c 1.007813 0 1.828126 0.820313 1.828126 1.828125 v 2.355469 c 0 1.007812 -0.820313 1.828125 -1.828126 1.828125 c -1.011718 0 -1.828124 -0.820313 -1.828124 -1.828125 v -2.355469 c 0 -1.007812 0.816406 -1.828125 1.828124 -1.828125 z m 0 0"
             fill="#241f31"
             id="path49" />
          <path
             d="m 44.355469 103.746094 c 1.011719 0 1.828125 0.816406 1.828125 1.824218 v 2.355469 c 0 1.007813 -0.816406 1.828125 -1.828125 1.828125 c -1.007813 0 -1.828125 -0.820312 -1.828125 -1.828125 v -2.355469 c 0 -1.007812 0.820312 -1.824218 1.828125 -1.824218 z m 0 0"
             fill="#241f31"
             id="path50" />
          <path
             d="m 44.355469 118.765625 c 1.011719 0 1.828125 0.820313 1.828125 1.828125 v 2.355469 c 0 1.007812 -0.816406 1.828125 -1.828125 1.828125 c -1.007813 0 -1.828125 -0.820313 -1.828125 -1.828125 v -2.355469 c 0 -1.007812 0.820312 -1.828125 1.828125 -1.828125 z m 0 0"
             fill="#241f31"
             id="path51" />
          <path
             d="m 52.582031 103.746094 c 1.007813 0 1.828125 0.816406 1.828125 1.824218 v 2.355469 c 0 1.007813 -0.820312 1.828125 -1.828125 1.828125 c -1.011719 0 -1.828125 -0.820312 -1.828125 -1.828125 v -2.355469 c 0 -1.007812 0.816406 -1.824218 1.828125 -1.824218 z m 0 0"
             fill="#241f31"
             id="path52" />
          <path
             d="m 52.582031 118.765625 c 1.007813 0 1.828125 0.820313 1.828125 1.828125 v 2.355469 c 0 1.007812 -0.820312 1.828125 -1.828125 1.828125 c -1.011719 0 -1.828125 -0.820313 -1.828125 -1.828125 v -2.355469 c 0 -1.007812 0.816406 -1.828125 1.828125 -1.828125 z m 0 0"
             fill="#241f31"
             id="path53" />
          <path
             d="m 60.808594 103.746094 c 1.007812 0 1.824218 0.816406 1.824218 1.824218 v 2.355469 c 0 1.007813 -0.816406 1.828125 -1.824218 1.828125 c -1.011719 0 -1.828125 -0.820312 -1.828125 -1.828125 v -2.355469 c 0 -1.007812 0.816406 -1.824218 1.828125 -1.824218 z m 0 0"
             fill="#241f31"
             id="path54" />
          <path
             d="m 60.808594 118.765625 c 1.007812 0 1.824218 0.820313 1.824218 1.828125 v 2.355469 c 0 1.007812 -0.816406 1.828125 -1.824218 1.828125 c -1.011719 0 -1.828125 -0.820313 -1.828125 -1.828125 v -2.355469 c 0 -1.007812 0.816406 -1.828125 1.828125 -1.828125 z m 0 0"
             fill="#241f31"
             id="path55" />
          <path
             d="m 69.03125 103.746094 c 1.011719 0 1.828125 0.816406 1.828125 1.824218 v 2.355469 c 0 1.007813 -0.816406 1.828125 -1.828125 1.828125 c -1.007812 0 -1.828125 -0.820312 -1.828125 -1.828125 v -2.355469 c 0 -1.007812 0.820313 -1.824218 1.828125 -1.824218 z m 0 0"
             fill="#241f31"
             id="path56" />
          <path
             d="m 69.03125 118.765625 c 1.011719 0 1.828125 0.820313 1.828125 1.828125 v 2.355469 c 0 1.007812 -0.816406 1.828125 -1.828125 1.828125 c -1.007812 0 -1.828125 -0.820313 -1.828125 -1.828125 v -2.355469 c 0 -1.007812 0.820313 -1.828125 1.828125 -1.828125 z m 0 0"
             fill="#241f31"
             id="path57" />
          <path
             d="m 77.257812 103.746094 c 1.007813 0 1.828126 0.816406 1.828126 1.824218 v 2.355469 c 0 1.007813 -0.820313 1.828125 -1.828126 1.828125 c -1.011718 0 -1.828124 -0.820312 -1.828124 -1.828125 v -2.355469 c 0 -1.007812 0.816406 -1.824218 1.828124 -1.824218 z m 0 0"
             fill="#241f31"
             id="path58" />
          <path
             d="m 77.257812 118.765625 c 1.007813 0 1.828126 0.820313 1.828126 1.828125 v 2.355469 c 0 1.007812 -0.820313 1.828125 -1.828126 1.828125 c -1.011718 0 -1.828124 -0.820313 -1.828124 -1.828125 v -2.355469 c 0 -1.007812 0.816406 -1.828125 1.828124 -1.828125 z m 0 0"
             fill="#241f31"
             id="path59" />
          <path
             d="m 85.480469 103.746094 c 1.011719 0 1.828125 0.816406 1.828125 1.824218 v 2.355469 c 0 1.007813 -0.816406 1.828125 -1.828125 1.828125 c -1.007813 0 -1.828125 -0.820312 -1.828125 -1.828125 v -2.355469 c 0 -1.007812 0.820312 -1.824218 1.828125 -1.824218 z m 0 0"
             fill="#241f31"
             id="path60" />
          <path
             d="m 85.480469 118.765625 c 1.011719 0 1.828125 0.820313 1.828125 1.828125 v 2.355469 c 0 1.007812 -0.816406 1.828125 -1.828125 1.828125 c -1.007813 0 -1.828125 -0.820313 -1.828125 -1.828125 v -2.355469 c 0 -1.007812 0.820312 -1.828125 1.828125 -1.828125 z m 0 0"
             fill="#241f31"
             id="path61" />
          <path
             d="m 93.707031 103.746094 c 1.007813 0 1.828125 0.816406 1.828125 1.824218 v 2.355469 c 0 1.007813 -0.820312 1.828125 -1.828125 1.828125 c -1.007812 0 -1.828125 -0.820312 -1.828125 -1.828125 v -2.355469 c 0 -1.007812 0.820313 -1.824218 1.828125 -1.824218 z m 0 0"
             fill="#241f31"
             id="path62" />
          <path
             d="m 93.707031 118.765625 c 1.007813 0 1.828125 0.820313 1.828125 1.828125 v 2.355469 c 0 1.007812 -0.820312 1.828125 -1.828125 1.828125 c -1.007812 0 -1.828125 -0.820313 -1.828125 -1.828125 v -2.355469 c 0 -1.007812 0.820313 -1.828125 1.828125 -1.828125 z m 0 0"
             fill="#241f31"
             id="path63" />
          <path
             d="m 101.933594 103.746094 c 1.007812 0 1.828125 0.816406 1.828125 1.824218 v 2.355469 c 0 1.007813 -0.820313 1.828125 -1.828125 1.828125 c -1.011719 0 -1.828125 -0.820312 -1.828125 -1.828125 v -2.355469 c 0 -1.007812 0.816406 -1.824218 1.828125 -1.824218 z m 0 0"
             fill="#241f31"
             id="path64" />
          <path
             d="m 101.933594 118.765625 c 1.007812 0 1.828125 0.820313 1.828125 1.828125 v 2.355469 c 0 1.007812 -0.820313 1.828125 -1.828125 1.828125 c -1.011719 0 -1.828125 -0.820313 -1.828125 -1.828125 v -2.355469 c 0 -1.007812 0.816406 -1.828125 1.828125 -1.828125 z m 0 0"
             fill="#241f31"
             id="path65" />
          <path
             d="m 110.15625 103.746094 c 1.011719 0 1.828125 0.816406 1.828125 1.824218 v 2.355469 c 0 1.007813 -0.816406 1.828125 -1.828125 1.828125 c -1.007812 0 -1.828125 -0.820312 -1.828125 -1.828125 v -2.355469 c 0 -1.007812 0.820313 -1.824218 1.828125 -1.824218 z m 0 0"
             fill="#241f31"
             id="path66" />
          <path
             d="m 110.15625 118.765625 c 1.011719 0 1.828125 0.820313 1.828125 1.828125 v 2.355469 c 0 1.007812 -0.816406 1.828125 -1.828125 1.828125 c -1.007812 0 -1.828125 -0.820313 -1.828125 -1.828125 v -2.355469 c 0 -1.007812 0.820313 -1.828125 1.828125 -1.828125 z m 0 0"
             fill="#241f31"
             id="path67" />
          <path
             d="m 15.113281 95.734375 c 1.007813 0 1.828125 0.816406 1.828125 1.828125 v 2.351562 c 0 1.007813 -0.820312 1.828126 -1.828125 1.828126 c -1.011719 0 -1.828125 -0.820313 -1.828125 -1.828126 v -2.351562 c 0 -1.011719 0.816406 -1.828125 1.828125 -1.828125 z m 0 0"
             fill="#241f31"
             id="path68" />
          <path
             d="m 15.113281 110.753906 c 1.007813 0 1.828125 0.820313 1.828125 1.828125 v 2.351563 c 0 1.011718 -0.820312 1.828125 -1.828125 1.828125 c -1.011719 0 -1.828125 -0.816407 -1.828125 -1.828125 v -2.351563 c 0 -1.007812 0.816406 -1.828125 1.828125 -1.828125 z m 0 0"
             fill="#241f31"
             id="path69" />
          <path
             d="m 23.335938 95.734375 c 1.011718 0 1.828124 0.816406 1.828124 1.828125 v 2.351562 c 0 1.007813 -0.816406 1.828126 -1.828124 1.828126 c -1.007813 0 -1.828126 -0.820313 -1.828126 -1.828126 v -2.351562 c 0 -1.011719 0.820313 -1.828125 1.828126 -1.828125 z m 0 0"
             fill="#241f31"
             id="path70" />
          <path
             d="m 23.335938 110.753906 c 1.011718 0 1.828124 0.820313 1.828124 1.828125 v 2.351563 c 0 1.011718 -0.816406 1.828125 -1.828124 1.828125 c -1.007813 0 -1.828126 -0.816407 -1.828126 -1.828125 v -2.351563 c 0 -1.007812 0.820313 -1.828125 1.828126 -1.828125 z m 0 0"
             fill="#241f31"
             id="path71" />
          <path
             d="m 31.5625 95.734375 c 1.007812 0 1.828125 0.816406 1.828125 1.828125 v 2.351562 c 0 1.007813 -0.820313 1.828126 -1.828125 1.828126 c -1.011719 0 -1.828125 -0.820313 -1.828125 -1.828126 v -2.351562 c 0 -1.011719 0.816406 -1.828125 1.828125 -1.828125 z m 0 0"
             fill="#241f31"
             id="path72" />
          <path
             d="m 31.5625 110.753906 c 1.007812 0 1.828125 0.820313 1.828125 1.828125 v 2.351563 c 0 1.011718 -0.820313 1.828125 -1.828125 1.828125 c -1.011719 0 -1.828125 -0.816407 -1.828125 -1.828125 v -2.351563 c 0 -1.007812 0.816406 -1.828125 1.828125 -1.828125 z m 0 0"
             fill="#241f31"
             id="path73" />
          <path
             d="m 39.785156 95.734375 c 1.011719 0 1.828125 0.816406 1.828125 1.828125 v 2.351562 c 0 1.007813 -0.816406 1.828126 -1.828125 1.828126 c -1.007812 0 -1.824218 -0.820313 -1.824218 -1.828126 v -2.351562 c 0 -1.011719 0.816406 -1.828125 1.824218 -1.828125 z m 0 0"
             fill="#241f31"
             id="path74" />
          <path
             d="m 39.785156 110.753906 c 1.011719 0 1.828125 0.820313 1.828125 1.828125 v 2.351563 c 0 1.011718 -0.816406 1.828125 -1.828125 1.828125 c -1.007812 0 -1.824218 -0.816407 -1.824218 -1.828125 v -2.351563 c 0 -1.007812 0.816406 -1.828125 1.824218 -1.828125 z m 0 0"
             fill="#241f31"
             id="path75" />
          <path
             d="m 48.011719 95.734375 c 1.011719 0 1.828125 0.816406 1.828125 1.828125 v 2.351562 c 0 1.007813 -0.816406 1.828126 -1.828125 1.828126 c -1.007813 0 -1.828125 -0.820313 -1.828125 -1.828126 v -2.351562 c 0 -1.011719 0.820312 -1.828125 1.828125 -1.828125 z m 0 0"
             fill="#241f31"
             id="path76" />
          <path
             d="m 48.011719 110.753906 c 1.011719 0 1.828125 0.820313 1.828125 1.828125 v 2.351563 c 0 1.011718 -0.816406 1.828125 -1.828125 1.828125 c -1.007813 0 -1.828125 -0.816407 -1.828125 -1.828125 v -2.351563 c 0 -1.007812 0.820312 -1.828125 1.828125 -1.828125 z m 0 0"
             fill="#241f31"
             id="path77" />
          <path
             d="m 56.238281 95.734375 c 1.007813 0 1.828125 0.816406 1.828125 1.828125 v 2.351562 c 0 1.007813 -0.820312 1.828126 -1.828125 1.828126 c -1.011719 0 -1.828125 -0.820313 -1.828125 -1.828126 v -2.351562 c 0 -1.011719 0.816406 -1.828125 1.828125 -1.828125 z m 0 0"
             fill="#241f31"
             id="path78" />
          <path
             d="m 56.238281 110.753906 c 1.007813 0 1.828125 0.820313 1.828125 1.828125 v 2.351563 c 0 1.011718 -0.820312 1.828125 -1.828125 1.828125 c -1.011719 0 -1.828125 -0.816407 -1.828125 -1.828125 v -2.351563 c 0 -1.007812 0.816406 -1.828125 1.828125 -1.828125 z m 0 0"
             fill="#241f31"
             id="path79" />
          <path
             d="m 64.460938 95.734375 c 1.011718 0 1.828124 0.816406 1.828124 1.828125 v 2.351562 c 0 1.007813 -0.816406 1.828126 -1.828124 1.828126 c -1.007813 0 -1.828126 -0.820313 -1.828126 -1.828126 v -2.351562 c 0 -1.011719 0.820313 -1.828125 1.828126 -1.828125 z m 0 0"
             fill="#241f31"
             id="path80" />
          <path
             d="m 64.460938 110.753906 c 1.011718 0 1.828124 0.820313 1.828124 1.828125 v 2.351563 c 0 1.011718 -0.816406 1.828125 -1.828124 1.828125 c -1.007813 0 -1.828126 -0.816407 -1.828126 -1.828125 v -2.351563 c 0 -1.007812 0.820313 -1.828125 1.828126 -1.828125 z m 0 0"
             fill="#241f31"
             id="path81" />
          <path
             d="m 72.6875 95.734375 c 1.007812 0 1.828125 0.816406 1.828125 1.828125 v 2.351562 c 0 1.007813 -0.820313 1.828126 -1.828125 1.828126 s -1.828125 -0.820313 -1.828125 -1.828126 v -2.351562 c 0 -1.011719 0.820313 -1.828125 1.828125 -1.828125 z m 0 0"
             fill="#241f31"
             id="path82" />
          <path
             d="m 72.6875 110.753906 c 1.007812 0 1.828125 0.820313 1.828125 1.828125 v 2.351563 c 0 1.011718 -0.820313 1.828125 -1.828125 1.828125 s -1.828125 -0.816407 -1.828125 -1.828125 v -2.351563 c 0 -1.007812 0.820313 -1.828125 1.828125 -1.828125 z m 0 0"
             fill="#241f31"
             id="path83" />
          <path
             d="m 80.914062 95.734375 c 1.007813 0 1.828126 0.816406 1.828126 1.828125 v 2.351562 c 0 1.007813 -0.820313 1.828126 -1.828126 1.828126 c -1.011718 0 -1.828124 -0.820313 -1.828124 -1.828126 v -2.351562 c 0 -1.011719 0.816406 -1.828125 1.828124 -1.828125 z m 0 0"
             fill="#241f31"
             id="path84" />
          <path
             d="m 80.914062 110.753906 c 1.007813 0 1.828126 0.820313 1.828126 1.828125 v 2.351563 c 0 1.011718 -0.820313 1.828125 -1.828126 1.828125 c -1.011718 0 -1.828124 -0.816407 -1.828124 -1.828125 v -2.351563 c 0 -1.007812 0.816406 -1.828125 1.828124 -1.828125 z m 0 0"
             fill="#241f31"
             id="path85" />
          <path
             d="m 89.136719 95.734375 c 1.011719 0 1.828125 0.816406 1.828125 1.828125 v 2.351562 c 0 1.007813 -0.816406 1.828126 -1.828125 1.828126 c -1.007813 0 -1.828125 -0.820313 -1.828125 -1.828126 v -2.351562 c 0 -1.011719 0.820312 -1.828125 1.828125 -1.828125 z m 0 0"
             fill="#241f31"
             id="path86" />
          <path
             d="m 89.136719 110.753906 c 1.011719 0 1.828125 0.820313 1.828125 1.828125 v 2.351563 c 0 1.011718 -0.816406 1.828125 -1.828125 1.828125 c -1.007813 0 -1.828125 -0.816407 -1.828125 -1.828125 v -2.351563 c 0 -1.007812 0.820312 -1.828125 1.828125 -1.828125 z m 0 0"
             fill="#241f31"
             id="path87" />
          <path
             d="m 97.363281 95.734375 c 1.007813 0 1.828125 0.816406 1.828125 1.828125 v 2.351562 c 0 1.007813 -0.820312 1.828126 -1.828125 1.828126 c -1.011719 0 -1.828125 -0.820313 -1.828125 -1.828126 v -2.351562 c 0 -1.011719 0.816406 -1.828125 1.828125 -1.828125 z m 0 0"
             fill="#241f31"
             id="path88" />
          <path
             d="m 97.363281 110.753906 c 1.007813 0 1.828125 0.820313 1.828125 1.828125 v 2.351563 c 0 1.011718 -0.820312 1.828125 -1.828125 1.828125 c -1.011719 0 -1.828125 -0.816407 -1.828125 -1.828125 v -2.351563 c 0 -1.007812 0.816406 -1.828125 1.828125 -1.828125 z m 0 0"
             fill="#241f31"
             id="path89" />
          <path
             d="m 105.585938 95.734375 c 1.011718 0 1.828124 0.816406 1.828124 1.828125 v 2.351562 c 0 1.007813 -0.816406 1.828126 -1.828124 1.828126 c -1.007813 0 -1.824219 -0.820313 -1.824219 -1.828126 v -2.351562 c 0 -1.011719 0.816406 -1.828125 1.824219 -1.828125 z m 0 0"
             fill="#241f31"
             id="path90" />
          <path
             d="m 105.585938 110.753906 c 1.011718 0 1.828124 0.820313 1.828124 1.828125 v 2.351563 c 0 1.011718 -0.816406 1.828125 -1.828124 1.828125 c -1.007813 0 -1.824219 -0.816407 -1.824219 -1.828125 v -2.351563 c 0 -1.007812 0.816406 -1.828125 1.824219 -1.828125 z m 0 0"
             fill="#241f31"
             id="path91" />
          <path
             d="m 113.8125 95.734375 c 1.011719 0 1.828125 0.816406 1.828125 1.828125 v 2.351562 c 0 1.007813 -0.816406 1.828126 -1.828125 1.828126 c -1.007812 0 -1.828125 -0.820313 -1.828125 -1.828126 v -2.351562 c 0 -1.011719 0.820313 -1.828125 1.828125 -1.828125 z m 0 0"
             fill="#241f31"
             id="path92" />
          <path
             d="m 113.8125 110.753906 c 1.011719 0 1.828125 0.820313 1.828125 1.828125 v 2.351563 c 0 1.011718 -0.816406 1.828125 -1.828125 1.828125 c -1.007812 0 -1.828125 -0.816407 -1.828125 -1.828125 v -2.351563 c 0 -1.007812 0.820313 -1.828125 1.828125 -1.828125 z m 0 0"
             fill="#241f31"
             id="path93" />
          <path
             d="m 17.054688 51.632812 h 95.730468 c 7.128906 0 12.910156 5.777344 12.910156 12.90625 v 17.210938 c 0 7.128906 -5.78125 12.90625 -12.910156 12.90625 h -95.730468 c -7.128907 0 -12.910157 -5.777344 -12.910157 -12.90625 v -17.210938 c 0 -7.128906 5.78125 -12.90625 12.910157 -12.90625 z m 0 0"
             fill="url(#c)"
             id="path94" />
          <path
             d="m 17.054688 0 h 95.730468 c 7.128906 0 12.910156 5.777344 12.910156 12.90625 v 61.3125 c 0 7.128906 -5.78125 12.910156 -12.910156 12.910156 h -95.730468 c -7.128907 0 -12.910157 -5.78125 -12.910157 -12.910156 v -61.3125 c 0 -7.128906 5.78125 -12.90625 12.910157 -12.90625 z m 0 0"
             fill="#5e5c64"
             id="path95" />
          <path
             d="m 20.28125 10.757812 h 89.277344 c 5.347656 0 9.679687 4.332032 9.679687 9.679688 v 46.253906 c 0 5.34375 -4.332031 9.679688 -9.679687 9.679688 h -89.277344 c -5.347656 0 -9.683594 -4.335938 -9.683594 -9.679688 v -46.253906 c 0 -5.347656 4.335938 -9.679688 9.683594 -9.679688 z m 0 0"
             fill="#241f31"
             id="path96" />
          <g
             clip-path="url(#E)"
             id="g98">
            <g
               clip-path="url(#F)"
               id="g97">
              <path
                 d="m 37.734375 11.609375 l 3.621094 24.65625 l 19.726562 -2.894531 l -0.726562 -4.933594 z m -10.882813 11.671875 c -4.0625 0.597656 -6.90625 4.421875 -6.308593 8.484375 c 0.59375 4.066406 4.417969 6.910156 8.484375 6.3125 c 4.0625 -0.597656 6.90625 -4.417969 6.308594 -8.484375 c -0.597657 -4.066406 -4.417969 -6.90625 -8.484376 -6.3125 z m 0.726563 4.933594 c 1.386719 -0.203125 2.621094 0.714844 2.828125 2.101562 c 0.203125 1.390625 -0.71875 2.625 -2.105469 2.828125 c -1.386719 0.207031 -2.625 -0.714843 -2.828125 -2.101562 s 0.71875 -2.625 2.105469 -2.828125 z m -5.226563 15.882812 l 0.726563 4.929688 l 29.589844 -4.347656 l -0.726563 -4.929688 z m 1.449219 9.863282 l 0.726563 4.929687 l 29.589844 -4.347656 l -0.726563 -4.929688 z m 1.449219 9.863281 l 0.722656 4.929687 l 29.589844 -4.347656 l -0.722656 -4.929688 z m 0 0"
                 fill="url(#g)"
                 id="path97" />
            </g>
          </g>
          <g
             clip-path="url(#G)"
             id="g100">
            <g
               clip-path="url(#H)"
               id="g99">
              <path
                 d="m 11.179688 70.925781 c 1.203124 8.1875 8.78125 13.824219 16.96875 12.625 l 29.589843 -4.347656 c 8.1875 -1.203125 13.824219 -8.78125 12.621094 -16.96875 l -4.347656 -29.589844 c -0.65625 -4.46875 -3.054688 -8.484375 -6.679688 -11.179687 l -14.625 -10.878906 c -3.625 -2.695313 -8.160156 -3.839844 -12.628906 -3.183594 l -14.796875 2.171875 c -8.1875 1.203125 -13.824219 8.78125 -12.621094 16.96875 z m 7.550781 -51.488281 l 14.796875 -2.171875 c 1.847656 -0.273437 3.726562 0.199219 5.230468 1.316406 l 14.625 10.878907 c 1.503907 1.117187 2.496094 2.785156 2.765626 4.632812 l 4.347656 29.589844 c 0.394531 2.695312 -1.511719 5.261718 -4.207032 5.65625 l -29.589843 4.347656 c -2.695313 0.394531 -5.261719 -1.511719 -5.65625 -4.207031 l -6.519531 -44.386719 c -0.394532 -2.695312 1.511718 -5.257812 4.207031 -5.65625 z m 0 0"
                 fill="url(#j)"
                 id="path98" />
            </g>
          </g>
          <g
             clip-path="url(#I)"
             id="g102">
            <g
               clip-path="url(#J)"
               id="g101">
              <path
                 d="m 37.507812 9.78125 l 3.621094 24.660156 l 19.726563 -2.898437 l -0.726563 -4.929688 z m -10.882812 11.675781 c -4.0625 0.597657 -6.90625 4.417969 -6.308594 8.484375 c 0.59375 4.066406 4.417969 6.90625 8.480469 6.3125 c 4.066406 -0.597656 6.910156 -4.421875 6.3125 -8.484375 c -0.597656 -4.066406 -4.417969 -6.910156 -8.484375 -6.3125 z m 0.726562 4.933594 c 1.386719 -0.207031 2.621094 0.714844 2.828126 2.101563 c 0.203124 1.386718 -0.71875 2.625 -2.105469 2.828124 c -1.386719 0.203126 -2.625 -0.714843 -2.828125 -2.101562 c -0.203125 -1.390625 0.71875 -2.625 2.105468 -2.828125 z m -5.226562 15.878906 l 0.726562 4.933594 l 29.589844 -4.347656 l -0.726562 -4.929688 z m 1.449219 9.863281 l 0.726562 4.933594 l 29.589844 -4.347656 l -0.726563 -4.929688 z m 1.449219 9.863282 l 0.722656 4.933594 l 29.589844 -4.347657 l -0.722657 -4.929687 z m 0 0"
                 fill="url(#n)"
                 id="path100" />
            </g>
          </g>
          <g
             clip-path="url(#K)"
             id="g104">
            <g
               clip-path="url(#L)"
               id="g103">
              <path
                 d="m 10.953125 69.101562 c 1.203125 8.1875 8.78125 13.824219 16.96875 12.621094 l 29.589844 -4.34375 c 8.1875 -1.203125 13.824219 -8.78125 12.621093 -16.96875 l -4.347656 -29.589844 c -0.65625 -4.46875 -3.054687 -8.488281 -6.679687 -11.183593 l -14.625 -10.878907 c -3.625 -2.695312 -8.160157 -3.839843 -12.628907 -3.183593 l -14.796874 2.175781 c -8.1875 1.203125 -13.824219 8.78125 -12.621094 16.96875 z m 7.550781 -51.488281 l 14.792969 -2.175781 c 1.851563 -0.269531 3.730469 0.203125 5.234375 1.320312 l 14.625 10.878907 c 1.503906 1.117187 2.496094 2.78125 2.765625 4.632812 l 4.347656 29.589844 c 0.394531 2.695313 -1.511719 5.257813 -4.207031 5.65625 l -29.589844 4.34375 c -2.699218 0.398437 -5.261718 -1.507813 -5.65625 -4.207031 l -6.519531 -44.382813 c -0.394531 -2.699219 1.511719 -5.261719 4.207031 -5.65625 z m 0 0"
                 fill="url(#q)"
                 id="path102" />
            </g>
          </g>
          <g
             clip-path="url(#M)"
             id="g106">
            <g
               clip-path="url(#N)"
               id="g105">
              <path
                 d="m 95.140625 14.839844 c -19.664063 -2.929688 -38.109375 10.734375 -41.039063 30.398437 c -2.929687 19.664063 10.730469 38.109375 30.394532 41.039063 c 19.667968 2.929687 38.113281 -10.730469 41.042968 -30.394532 c 2.929688 -19.664062 -10.734374 -38.113281 -30.398437 -41.042968 z m 7.140625 12.324218 c 4.300781 2.273438 7.824219 5.671876 10.261719 9.742188 l -5.839844 -0.871094 c -1.019531 -3.117187 -2.496094 -6.113281 -4.421875 -8.871094 z m -17.71875 -2.585937 c -2.613281 2.085937 -4.890625 4.484375 -6.769531 7.152344 l -5.730469 -0.855469 c 3.472656 -3.152344 7.792969 -5.34375 12.5 -6.296875 z m 6.480469 1.441406 l -1.121094 7.515625 l -6.660156 -0.992187 c 2.152343 -2.570313 4.746093 -4.789063 7.78125 -6.523438 z m 4.75 0.785157 c 2.34375 2.515624 4.164062 5.375 5.457031 8.417968 l -6.566406 -0.976562 z m -27.546875 8.371093 l 6.863281 1.023438 c -1.480469 2.914062 -2.59375 6.039062 -3.277344 9.246093 l -7.742187 -1.152343 c 0.804687 -3.359375 2.253906 -6.433594 4.15625 -9.117188 z m 11.941406 1.777344 l 9.023438 1.34375 l -1.417969 9.527344 l -11.164063 -1.664063 c 0.710938 -3.222656 1.894532 -6.335937 3.558594 -9.207031 z m 13.785156 2.054687 l 8.929688 1.332032 c 0.757812 3.230468 0.984375 6.554687 0.722656 9.84375 l -11.070312 -1.648438 z m 14.011719 2.085938 l 6.957031 1.039062 c 1.035156 3.121094 1.523438 6.484376 1.316406 9.933594 l -7.832031 -1.167968 c 0.277344 -3.269532 0.121094 -6.582032 -0.441406 -9.804688 z m -44.601563 7.960938 l 7.738282 1.152343 c -0.257813 3.273438 -0.125 6.582031 0.460937 9.804688 l -6.882812 -1.023438 c -1.039063 -3.121093 -1.527344 -6.484375 -1.316407 -9.933593 z m 12.539063 1.867187 l 11.160156 1.664063 l -1.417969 9.527343 l -9.003906 -1.34375 c -0.757812 -3.210937 -0.984375 -6.554687 -0.738281 -9.847656 z m 15.921875 2.375 l 11.070312 1.648437 c -0.726562 3.21875 -1.914062 6.351563 -3.574218 9.203126 l -8.914063 -1.328126 z m 15.871094 2.363281 l 7.832031 1.167969 c -0.804687 3.359375 -2.25 6.433594 -4.152344 9.117187 l -6.976562 -1.039062 c 1.496093 -2.914062 2.589843 -6.042969 3.296875 -9.246094 z m -40.621094 8.554688 l 5.769531 0.859375 c 1.054688 3.121093 2.546875 6.121093 4.492188 8.882812 c -4.300781 -2.277343 -7.824219 -5.671875 -10.261719 -9.742187 z m 11.257812 1.675781 l 6.601563 0.984375 l -1.097656 7.386719 c -2.367188 -2.503907 -4.207031 -5.34375 -5.503907 -8.371094 z m 11.367188 1.691406 l 6.507812 0.972657 c -2.101562 2.5 -4.648437 4.648437 -7.597656 6.339843 z m 11.996094 1.789063 l 5.863281 0.875 c -3.5625 3.214844 -7.980469 5.445312 -12.8125 6.34375 c 2.703125 -2.070313 5.027344 -4.519532 6.949219 -7.21875 z m 0 0"
                 fill="url(#t)"
                 id="path104" />
            </g>
          </g>
          <g
             clip-path="url(#O)"
             id="g108">
            <g
               clip-path="url(#P)"
               id="g107">
              <path
                 d="m 96.007812 11.324219 c -19.664062 -2.929688 -38.109374 10.730469 -41.039062 30.394531 s 10.730469 38.113281 30.394531 41.042969 c 19.664063 2.929687 38.113281 -10.734375 41.042969 -30.398438 c 2.929688 -19.664062 -10.734375 -38.109375 -30.398438 -41.039062 z m 7.140626 12.320312 c 4.300781 2.277344 7.824218 5.671875 10.261718 9.742188 l -5.839844 -0.867188 c -1.019531 -3.121093 -2.492187 -6.117187 -4.421874 -8.875 z m -17.71875 -2.582031 c -2.613282 2.082031 -4.890626 4.480469 -6.769532 7.148438 l -5.730468 -0.851563 c 3.472656 -3.15625 7.792968 -5.34375 12.5 -6.296875 z m 6.480468 1.441406 l -1.121094 7.515625 l -6.660156 -0.992187 c 2.152344 -2.570313 4.746094 -4.789063 7.78125 -6.523438 z m 4.75 0.78125 c 2.34375 2.519532 4.164063 5.375 5.457032 8.421875 l -6.566407 -0.980469 z m -27.546875 8.371094 l 6.863281 1.023438 c -1.480468 2.917968 -2.59375 6.042968 -3.277343 9.25 l -7.742188 -1.15625 c 0.804688 -3.359376 2.253907 -6.433594 4.15625 -9.117188 z m 11.941407 1.78125 l 9.023437 1.34375 l -1.417969 9.523438 l -11.164062 -1.660157 c 0.710937 -3.222656 1.894531 -6.335937 3.558594 -9.207031 z m 13.785156 2.054688 l 8.933594 1.328124 c 0.753906 3.230469 0.980468 6.554688 0.71875 9.84375 l -11.070313 -1.648437 z m 14.011718 2.085937 l 6.957032 1.035156 c 1.035156 3.121094 1.523437 6.484375 1.316406 9.933594 l -7.832031 -1.167969 c 0.277343 -3.265625 0.121093 -6.578125 -0.441407 -9.800781 z m -44.601562 7.960937 l 7.738281 1.152344 c -0.257812 3.269532 -0.125 6.578125 0.460938 9.804688 l -6.882813 -1.027344 c -1.039062 -3.121094 -1.527344 -6.484375 -1.316406 -9.929688 z m 12.539062 1.867188 l 11.160157 1.664062 l -1.417969 9.523438 l -9.003906 -1.339844 c -0.757813 -3.214844 -0.984375 -6.558594 -0.738282 -9.847656 z m 15.921876 2.371094 l 11.070312 1.648437 c -0.726562 3.222657 -1.914062 6.351563 -3.578125 9.207031 l -8.910156 -1.328124 z m 15.871093 2.363281 l 7.832031 1.167969 c -0.804687 3.359375 -2.25 6.433594 -4.152343 9.117187 l -6.976563 -1.039062 c 1.496094 -2.914063 2.589844 -6.039063 3.296875 -9.246094 z m -40.621093 8.554687 l 5.769531 0.859376 c 1.054687 3.125 2.546875 6.121093 4.492187 8.886718 c -4.300781 -2.277344 -7.824218 -5.675781 -10.261718 -9.746094 z m 11.257812 1.675782 l 6.601562 0.984375 l -1.097656 7.386719 c -2.367187 -2.5 -4.207031 -5.34375 -5.503906 -8.371094 z m 11.367188 1.695312 l 6.507812 0.96875 c -2.101562 2.5 -4.648438 4.652344 -7.597656 6.34375 z m 12 1.789063 l 5.859374 0.871093 c -3.5625 3.214844 -7.980468 5.449219 -12.8125 6.34375 c 2.703126 -2.070312 5.027344 -4.519531 6.953126 -7.214843 z m 0 0"
                 fill="url(#w)"
                 id="path106" />
            </g>
          </g>
          <path
             d="m 56.433594 26.085938 c -3.039063 0 -5.515625 2.445312 -5.515625 5.445312 c 0 3.019531 2.476562 5.445312 5.515625 5.445312 c 3.035156 0 5.511718 -2.425781 5.511718 -5.445312 c 0 -3 -2.476562 -5.445312 -5.511718 -5.445312 z m 17.441406 11.847656 l -9.648438 13.273437 c -0.558593 0.785157 -1.441406 1.273438 -2.410156 1.339844 c -0.96875 0.085937 -1.917968 -0.277344 -2.605468 -0.957031 l -2.261719 -2.277344 c -1.011719 -1.042969 -2.453125 -1.550781 -3.898438 -1.425781 c -1.441406 0.148437 -2.753906 0.914062 -3.550781 2.105469 l -4.09375 6.042968 v 5.445313 c 0 2.722656 2.757812 2.722656 2.757812 2.722656 h 38.589844 s 2.605469 -0.171875 2.753906 -2.722656 v -11.699219 c 0 -1.320312 -0.453124 -2.59375 -1.3125 -3.617188 l -7.042968 -8.464843 c -0.902344 -1.085938 -2.261719 -1.679688 -3.679688 -1.636719 c -1.445312 0.039062 -2.757812 0.742188 -3.597656 1.871094 z m 0 0"
             fill="url(#y)"
             id="path108" />
          <path
             d="m 45.40625 4.300781 c -9.066406 0 -16.539062 7.382813 -16.539062 16.339844 v 43.5625 c 0 8.976563 7.472656 16.335937 16.539062 16.335937 h 44.101562 c 9.066407 0 16.539063 -7.359374 16.539063 -16.335937 v -43.5625 c 0 -8.957031 -7.472656 -16.339844 -16.539063 -16.339844 z m 0 10.894531 h 44.101562 c 3.144532 0 5.511719 2.339844 5.511719 5.445313 v 43.5625 c 0 3.125 -2.367187 5.445313 -5.511719 5.445313 h -44.101562 c -3.144531 0 -5.511719 -2.320313 -5.511719 -5.445313 v -43.5625 c 0 -3.105469 2.367188 -5.445313 5.511719 -5.445313 z m 0 0"
             fill="url(#z)"
             id="path109" />
          <path
             d="m 56.433594 23.933594 c -3.039063 0 -5.515625 2.445312 -5.515625 5.445312 c 0 3.019532 2.476562 5.445313 5.515625 5.445313 c 3.035156 0 5.511718 -2.425781 5.511718 -5.445313 c 0 -3 -2.476562 -5.445312 -5.511718 -5.445312 z m 17.441406 11.847656 l -9.648438 13.273438 c -0.558593 0.785156 -1.441406 1.277343 -2.410156 1.339843 c -0.96875 0.085938 -1.917968 -0.277343 -2.605468 -0.957031 l -2.261719 -2.277344 c -1.011719 -1.039062 -2.453125 -1.550781 -3.898438 -1.421875 c -1.441406 0.148438 -2.753906 0.914063 -3.550781 2.105469 l -4.09375 6.039062 v 5.445313 c 0 2.722656 2.757812 2.722656 2.757812 2.722656 h 38.589844 s 2.605469 -0.167969 2.753906 -2.722656 v -11.699219 c 0 -1.316406 -0.453124 -2.59375 -1.3125 -3.617187 l -7.042968 -8.464844 c -0.902344 -1.085937 -2.261719 -1.679687 -3.679688 -1.636719 c -1.445312 0.042969 -2.757812 0.742188 -3.597656 1.871094 z m 0 0"
             fill="url(#B)"
             id="path110" />
          <path
             d="m 45.40625 2.152344 c -9.066406 0 -16.539062 7.378906 -16.539062 16.335937 v 43.5625 c 0 8.976563 7.472656 16.335938 16.539062 16.335938 h 44.101562 c 9.066407 0 16.539063 -7.359375 16.539063 -16.335938 v -43.5625 c 0 -8.957031 -7.472656 -16.335937 -16.539063 -16.335937 z m 0 10.890625 h 44.101562 c 3.144532 0 5.511719 2.339843 5.511719 5.445312 v 43.5625 c 0 3.128907 -2.367187 5.445313 -5.511719 5.445313 h -44.101562 c -3.144531 0 -5.511719 -2.316406 -5.511719 -5.445313 v -43.5625 c 0 -3.105469 2.367188 -5.445312 5.511719 -5.445312 z m 0 0"
             fill="url(#C)"
             id="path111" />
          <path
             d="m 4.144531 49.480469 v 24.738281 c 0 7.128906 5.78125 12.910156 12.910157 12.910156 h 95.730468 c 7.128906 0 12.910156 -5.78125 12.910156 -12.910156 v -15.058594 c 0 7.976563 -5.425781 14.683594 -12.789062 16.636719 c -1.027344 0.371094 -2.136719 0.574219 -3.289062 0.574219 h -89.394532 c -5.277344 0 -9.570312 -4.222656 -9.679687 -9.476563 c -3.988281 -4.691406 -6.398438 -10.773437 -6.398438 -17.414062 z m 121.550781 -35.496094 v -1.078125 c 0 -7.128906 -5.78125 -12.90625 -12.910156 -12.90625 h -1.058594 c 7.714844 0.0078125 13.96875 6.265625 13.96875 13.984375 z m 0 0"
             fill="#5e5c64"
             fill-rule="evenodd"
             id="path112" />
        </g>
      </g>
    </g>
  </mask>
  <mask
     id="T">
    <g
       filter="url(#a)"
       id="g115">
      <rect
         fill-opacity="0.8"
         height="184.32"
         width="184.32"
         x="-28.16"
         y="-28.16"
         id="rect114" />
    </g>
  </mask>
  <linearGradient
     id="U"
     gradientTransform="matrix(0,0.37,-0.98462,0,295.38501,-30.360001)"
     gradientUnits="userSpaceOnUse"
     x1="300"
     x2="428"
     y1="235"
     y2="235">
    <stop
       offset="0"
       stop-color="#f9f06b"
       id="stop115" />
    <stop
       offset="1"
       stop-color="#f5c211"
       id="stop116" />
  </linearGradient>
  <clipPath
     id="V">
    <rect
       height="128"
       width="128"
       id="rect116" />
  </clipPath>
  <clipPath
     id="W">
    <rect
       height="128"
       width="128"
       id="rect117" />
  </clipPath>
  <path
     d="m 20.28125 23.664062 h 89.277344 c 6.535156 0 11.832031 5.296876 11.832031 11.832032 v 80.675781 c 0 6.53125 -5.296875 11.832031 -11.832031 11.832031 h -89.277344 c -6.535156 0 -11.832031 -5.300781 -11.832031 -11.832031 v -80.675781 c 0 -6.535156 5.296875 -11.832032 11.832031 -11.832032 z m 0 0"
     fill="url(#b)"
     id="path117" />
  <g
     fill="#241f31"
     id="g167">
    <path
       d="m 19.679688 103.746094 c 1.011718 0 1.828124 0.816406 1.828124 1.824218 v 2.355469 c 0 1.007813 -0.816406 1.828125 -1.828124 1.828125 c -1.007813 0 -1.824219 -0.820312 -1.824219 -1.828125 v -2.355469 c 0 -1.007812 0.816406 -1.824218 1.824219 -1.824218 z m 0 0"
       id="path118" />
    <path
       d="m 19.679688 118.765625 c 1.011718 0 1.828124 0.820313 1.828124 1.828125 v 2.355469 c 0 1.007812 -0.816406 1.828125 -1.828124 1.828125 c -1.007813 0 -1.824219 -0.820313 -1.824219 -1.828125 v -2.355469 c 0 -1.007812 0.816406 -1.828125 1.824219 -1.828125 z m 0 0"
       id="path119" />
    <path
       d="m 27.90625 103.746094 c 1.007812 0 1.828125 0.816406 1.828125 1.824218 v 2.355469 c 0 1.007813 -0.820313 1.828125 -1.828125 1.828125 s -1.828125 -0.820312 -1.828125 -1.828125 v -2.355469 c 0 -1.007812 0.820313 -1.824218 1.828125 -1.824218 z m 0 0"
       id="path120" />
    <path
       d="m 27.90625 118.765625 c 1.007812 0 1.828125 0.820313 1.828125 1.828125 v 2.355469 c 0 1.007812 -0.820313 1.828125 -1.828125 1.828125 s -1.828125 -0.820313 -1.828125 -1.828125 v -2.355469 c 0 -1.007812 0.820313 -1.828125 1.828125 -1.828125 z m 0 0"
       id="path121" />
    <path
       d="m 36.132812 103.746094 c 1.007813 0 1.828126 0.816406 1.828126 1.824218 v 2.355469 c 0 1.007813 -0.820313 1.828125 -1.828126 1.828125 c -1.011718 0 -1.828124 -0.820312 -1.828124 -1.828125 v -2.355469 c 0 -1.007812 0.816406 -1.824218 1.828124 -1.824218 z m 0 0"
       id="path122" />
    <path
       d="m 36.132812 118.765625 c 1.007813 0 1.828126 0.820313 1.828126 1.828125 v 2.355469 c 0 1.007812 -0.820313 1.828125 -1.828126 1.828125 c -1.011718 0 -1.828124 -0.820313 -1.828124 -1.828125 v -2.355469 c 0 -1.007812 0.816406 -1.828125 1.828124 -1.828125 z m 0 0"
       id="path123" />
    <path
       d="m 44.355469 103.746094 c 1.011719 0 1.828125 0.816406 1.828125 1.824218 v 2.355469 c 0 1.007813 -0.816406 1.828125 -1.828125 1.828125 c -1.007813 0 -1.828125 -0.820312 -1.828125 -1.828125 v -2.355469 c 0 -1.007812 0.820312 -1.824218 1.828125 -1.824218 z m 0 0"
       id="path124" />
    <path
       d="m 44.355469 118.765625 c 1.011719 0 1.828125 0.820313 1.828125 1.828125 v 2.355469 c 0 1.007812 -0.816406 1.828125 -1.828125 1.828125 c -1.007813 0 -1.828125 -0.820313 -1.828125 -1.828125 v -2.355469 c 0 -1.007812 0.820312 -1.828125 1.828125 -1.828125 z m 0 0"
       id="path125" />
    <path
       d="m 52.582031 103.746094 c 1.007813 0 1.828125 0.816406 1.828125 1.824218 v 2.355469 c 0 1.007813 -0.820312 1.828125 -1.828125 1.828125 c -1.011719 0 -1.828125 -0.820312 -1.828125 -1.828125 v -2.355469 c 0 -1.007812 0.816406 -1.824218 1.828125 -1.824218 z m 0 0"
       id="path126" />
    <path
       d="m 52.582031 118.765625 c 1.007813 0 1.828125 0.820313 1.828125 1.828125 v 2.355469 c 0 1.007812 -0.820312 1.828125 -1.828125 1.828125 c -1.011719 0 -1.828125 -0.820313 -1.828125 -1.828125 v -2.355469 c 0 -1.007812 0.816406 -1.828125 1.828125 -1.828125 z m 0 0"
       id="path127" />
    <path
       d="m 60.808594 103.746094 c 1.007812 0 1.824218 0.816406 1.824218 1.824218 v 2.355469 c 0 1.007813 -0.816406 1.828125 -1.824218 1.828125 c -1.011719 0 -1.828125 -0.820312 -1.828125 -1.828125 v -2.355469 c 0 -1.007812 0.816406 -1.824218 1.828125 -1.824218 z m 0 0"
       id="path128" />
    <path
       d="m 60.808594 118.765625 c 1.007812 0 1.824218 0.820313 1.824218 1.828125 v 2.355469 c 0 1.007812 -0.816406 1.828125 -1.824218 1.828125 c -1.011719 0 -1.828125 -0.820313 -1.828125 -1.828125 v -2.355469 c 0 -1.007812 0.816406 -1.828125 1.828125 -1.828125 z m 0 0"
       id="path129" />
    <path
       d="m 69.03125 103.746094 c 1.011719 0 1.828125 0.816406 1.828125 1.824218 v 2.355469 c 0 1.007813 -0.816406 1.828125 -1.828125 1.828125 c -1.007812 0 -1.828125 -0.820312 -1.828125 -1.828125 v -2.355469 c 0 -1.007812 0.820313 -1.824218 1.828125 -1.824218 z m 0 0"
       id="path130" />
    <path
       d="m 69.03125 118.765625 c 1.011719 0 1.828125 0.820313 1.828125 1.828125 v 2.355469 c 0 1.007812 -0.816406 1.828125 -1.828125 1.828125 c -1.007812 0 -1.828125 -0.820313 -1.828125 -1.828125 v -2.355469 c 0 -1.007812 0.820313 -1.828125 1.828125 -1.828125 z m 0 0"
       id="path131" />
    <path
       d="m 77.257812 103.746094 c 1.007813 0 1.828126 0.816406 1.828126 1.824218 v 2.355469 c 0 1.007813 -0.820313 1.828125 -1.828126 1.828125 c -1.011718 0 -1.828124 -0.820312 -1.828124 -1.828125 v -2.355469 c 0 -1.007812 0.816406 -1.824218 1.828124 -1.824218 z m 0 0"
       id="path132" />
    <path
       d="m 77.257812 118.765625 c 1.007813 0 1.828126 0.820313 1.828126 1.828125 v 2.355469 c 0 1.007812 -0.820313 1.828125 -1.828126 1.828125 c -1.011718 0 -1.828124 -0.820313 -1.828124 -1.828125 v -2.355469 c 0 -1.007812 0.816406 -1.828125 1.828124 -1.828125 z m 0 0"
       id="path133" />
    <path
       d="m 85.480469 103.746094 c 1.011719 0 1.828125 0.816406 1.828125 1.824218 v 2.355469 c 0 1.007813 -0.816406 1.828125 -1.828125 1.828125 c -1.007813 0 -1.828125 -0.820312 -1.828125 -1.828125 v -2.355469 c 0 -1.007812 0.820312 -1.824218 1.828125 -1.824218 z m 0 0"
       id="path134" />
    <path
       d="m 85.480469 118.765625 c 1.011719 0 1.828125 0.820313 1.828125 1.828125 v 2.355469 c 0 1.007812 -0.816406 1.828125 -1.828125 1.828125 c -1.007813 0 -1.828125 -0.820313 -1.828125 -1.828125 v -2.355469 c 0 -1.007812 0.820312 -1.828125 1.828125 -1.828125 z m 0 0"
       id="path135" />
    <path
       d="m 93.707031 103.746094 c 1.007813 0 1.828125 0.816406 1.828125 1.824218 v 2.355469 c 0 1.007813 -0.820312 1.828125 -1.828125 1.828125 c -1.007812 0 -1.828125 -0.820312 -1.828125 -1.828125 v -2.355469 c 0 -1.007812 0.820313 -1.824218 1.828125 -1.824218 z m 0 0"
       id="path136" />
    <path
       d="m 93.707031 118.765625 c 1.007813 0 1.828125 0.820313 1.828125 1.828125 v 2.355469 c 0 1.007812 -0.820312 1.828125 -1.828125 1.828125 c -1.007812 0 -1.828125 -0.820313 -1.828125 -1.828125 v -2.355469 c 0 -1.007812 0.820313 -1.828125 1.828125 -1.828125 z m 0 0"
       id="path137" />
    <path
       d="m 101.933594 103.746094 c 1.007812 0 1.828125 0.816406 1.828125 1.824218 v 2.355469 c 0 1.007813 -0.820313 1.828125 -1.828125 1.828125 c -1.011719 0 -1.828125 -0.820312 -1.828125 -1.828125 v -2.355469 c 0 -1.007812 0.816406 -1.824218 1.828125 -1.824218 z m 0 0"
       id="path138" />
    <path
       d="m 101.933594 118.765625 c 1.007812 0 1.828125 0.820313 1.828125 1.828125 v 2.355469 c 0 1.007812 -0.820313 1.828125 -1.828125 1.828125 c -1.011719 0 -1.828125 -0.820313 -1.828125 -1.828125 v -2.355469 c 0 -1.007812 0.816406 -1.828125 1.828125 -1.828125 z m 0 0"
       id="path139" />
    <path
       d="m 110.15625 103.746094 c 1.011719 0 1.828125 0.816406 1.828125 1.824218 v 2.355469 c 0 1.007813 -0.816406 1.828125 -1.828125 1.828125 c -1.007812 0 -1.828125 -0.820312 -1.828125 -1.828125 v -2.355469 c 0 -1.007812 0.820313 -1.824218 1.828125 -1.824218 z m 0 0"
       id="path140" />
    <path
       d="m 110.15625 118.765625 c 1.011719 0 1.828125 0.820313 1.828125 1.828125 v 2.355469 c 0 1.007812 -0.816406 1.828125 -1.828125 1.828125 c -1.007812 0 -1.828125 -0.820313 -1.828125 -1.828125 v -2.355469 c 0 -1.007812 0.820313 -1.828125 1.828125 -1.828125 z m 0 0"
       id="path141" />
    <path
       d="m 15.113281 95.734375 c 1.007813 0 1.828125 0.816406 1.828125 1.828125 v 2.351562 c 0 1.007813 -0.820312 1.828126 -1.828125 1.828126 c -1.011719 0 -1.828125 -0.820313 -1.828125 -1.828126 v -2.351562 c 0 -1.011719 0.816406 -1.828125 1.828125 -1.828125 z m 0 0"
       id="path142" />
    <path
       d="m 15.113281 110.753906 c 1.007813 0 1.828125 0.820313 1.828125 1.828125 v 2.351563 c 0 1.011718 -0.820312 1.828125 -1.828125 1.828125 c -1.011719 0 -1.828125 -0.816407 -1.828125 -1.828125 v -2.351563 c 0 -1.007812 0.816406 -1.828125 1.828125 -1.828125 z m 0 0"
       id="path143" />
    <path
       d="m 23.335938 95.734375 c 1.011718 0 1.828124 0.816406 1.828124 1.828125 v 2.351562 c 0 1.007813 -0.816406 1.828126 -1.828124 1.828126 c -1.007813 0 -1.828126 -0.820313 -1.828126 -1.828126 v -2.351562 c 0 -1.011719 0.820313 -1.828125 1.828126 -1.828125 z m 0 0"
       id="path144" />
    <path
       d="m 23.335938 110.753906 c 1.011718 0 1.828124 0.820313 1.828124 1.828125 v 2.351563 c 0 1.011718 -0.816406 1.828125 -1.828124 1.828125 c -1.007813 0 -1.828126 -0.816407 -1.828126 -1.828125 v -2.351563 c 0 -1.007812 0.820313 -1.828125 1.828126 -1.828125 z m 0 0"
       id="path145" />
    <path
       d="m 31.5625 95.734375 c 1.007812 0 1.828125 0.816406 1.828125 1.828125 v 2.351562 c 0 1.007813 -0.820313 1.828126 -1.828125 1.828126 c -1.011719 0 -1.828125 -0.820313 -1.828125 -1.828126 v -2.351562 c 0 -1.011719 0.816406 -1.828125 1.828125 -1.828125 z m 0 0"
       id="path146" />
    <path
       d="m 31.5625 110.753906 c 1.007812 0 1.828125 0.820313 1.828125 1.828125 v 2.351563 c 0 1.011718 -0.820313 1.828125 -1.828125 1.828125 c -1.011719 0 -1.828125 -0.816407 -1.828125 -1.828125 v -2.351563 c 0 -1.007812 0.816406 -1.828125 1.828125 -1.828125 z m 0 0"
       id="path147" />
    <path
       d="m 39.785156 95.734375 c 1.011719 0 1.828125 0.816406 1.828125 1.828125 v 2.351562 c 0 1.007813 -0.816406 1.828126 -1.828125 1.828126 c -1.007812 0 -1.824218 -0.820313 -1.824218 -1.828126 v -2.351562 c 0 -1.011719 0.816406 -1.828125 1.824218 -1.828125 z m 0 0"
       id="path148" />
    <path
       d="m 39.785156 110.753906 c 1.011719 0 1.828125 0.820313 1.828125 1.828125 v 2.351563 c 0 1.011718 -0.816406 1.828125 -1.828125 1.828125 c -1.007812 0 -1.824218 -0.816407 -1.824218 -1.828125 v -2.351563 c 0 -1.007812 0.816406 -1.828125 1.824218 -1.828125 z m 0 0"
       id="path149" />
    <path
       d="m 48.011719 95.734375 c 1.011719 0 1.828125 0.816406 1.828125 1.828125 v 2.351562 c 0 1.007813 -0.816406 1.828126 -1.828125 1.828126 c -1.007813 0 -1.828125 -0.820313 -1.828125 -1.828126 v -2.351562 c 0 -1.011719 0.820312 -1.828125 1.828125 -1.828125 z m 0 0"
       id="path150" />
    <path
       d="m 48.011719 110.753906 c 1.011719 0 1.828125 0.820313 1.828125 1.828125 v 2.351563 c 0 1.011718 -0.816406 1.828125 -1.828125 1.828125 c -1.007813 0 -1.828125 -0.816407 -1.828125 -1.828125 v -2.351563 c 0 -1.007812 0.820312 -1.828125 1.828125 -1.828125 z m 0 0"
       id="path151" />
    <path
       d="m 56.238281 95.734375 c 1.007813 0 1.828125 0.816406 1.828125 1.828125 v 2.351562 c 0 1.007813 -0.820312 1.828126 -1.828125 1.828126 c -1.011719 0 -1.828125 -0.820313 -1.828125 -1.828126 v -2.351562 c 0 -1.011719 0.816406 -1.828125 1.828125 -1.828125 z m 0 0"
       id="path152" />
    <path
       d="m 56.238281 110.753906 c 1.007813 0 1.828125 0.820313 1.828125 1.828125 v 2.351563 c 0 1.011718 -0.820312 1.828125 -1.828125 1.828125 c -1.011719 0 -1.828125 -0.816407 -1.828125 -1.828125 v -2.351563 c 0 -1.007812 0.816406 -1.828125 1.828125 -1.828125 z m 0 0"
       id="path153" />
    <path
       d="m 64.460938 95.734375 c 1.011718 0 1.828124 0.816406 1.828124 1.828125 v 2.351562 c 0 1.007813 -0.816406 1.828126 -1.828124 1.828126 c -1.007813 0 -1.828126 -0.820313 -1.828126 -1.828126 v -2.351562 c 0 -1.011719 0.820313 -1.828125 1.828126 -1.828125 z m 0 0"
       id="path154" />
    <path
       d="m 64.460938 110.753906 c 1.011718 0 1.828124 0.820313 1.828124 1.828125 v 2.351563 c 0 1.011718 -0.816406 1.828125 -1.828124 1.828125 c -1.007813 0 -1.828126 -0.816407 -1.828126 -1.828125 v -2.351563 c 0 -1.007812 0.820313 -1.828125 1.828126 -1.828125 z m 0 0"
       id="path155" />
    <path
       d="m 72.6875 95.734375 c 1.007812 0 1.828125 0.816406 1.828125 1.828125 v 2.351562 c 0 1.007813 -0.820313 1.828126 -1.828125 1.828126 s -1.828125 -0.820313 -1.828125 -1.828126 v -2.351562 c 0 -1.011719 0.820313 -1.828125 1.828125 -1.828125 z m 0 0"
       id="path156" />
    <path
       d="m 72.6875 110.753906 c 1.007812 0 1.828125 0.820313 1.828125 1.828125 v 2.351563 c 0 1.011718 -0.820313 1.828125 -1.828125 1.828125 s -1.828125 -0.816407 -1.828125 -1.828125 v -2.351563 c 0 -1.007812 0.820313 -1.828125 1.828125 -1.828125 z m 0 0"
       id="path157" />
    <path
       d="m 80.914062 95.734375 c 1.007813 0 1.828126 0.816406 1.828126 1.828125 v 2.351562 c 0 1.007813 -0.820313 1.828126 -1.828126 1.828126 c -1.011718 0 -1.828124 -0.820313 -1.828124 -1.828126 v -2.351562 c 0 -1.011719 0.816406 -1.828125 1.828124 -1.828125 z m 0 0"
       id="path158" />
    <path
       d="m 80.914062 110.753906 c 1.007813 0 1.828126 0.820313 1.828126 1.828125 v 2.351563 c 0 1.011718 -0.820313 1.828125 -1.828126 1.828125 c -1.011718 0 -1.828124 -0.816407 -1.828124 -1.828125 v -2.351563 c 0 -1.007812 0.816406 -1.828125 1.828124 -1.828125 z m 0 0"
       id="path159" />
    <path
       d="m 89.136719 95.734375 c 1.011719 0 1.828125 0.816406 1.828125 1.828125 v 2.351562 c 0 1.007813 -0.816406 1.828126 -1.828125 1.828126 c -1.007813 0 -1.828125 -0.820313 -1.828125 -1.828126 v -2.351562 c 0 -1.011719 0.820312 -1.828125 1.828125 -1.828125 z m 0 0"
       id="path160" />
    <path
       d="m 89.136719 110.753906 c 1.011719 0 1.828125 0.820313 1.828125 1.828125 v 2.351563 c 0 1.011718 -0.816406 1.828125 -1.828125 1.828125 c -1.007813 0 -1.828125 -0.816407 -1.828125 -1.828125 v -2.351563 c 0 -1.007812 0.820312 -1.828125 1.828125 -1.828125 z m 0 0"
       id="path161" />
    <path
       d="m 97.363281 95.734375 c 1.007813 0 1.828125 0.816406 1.828125 1.828125 v 2.351562 c 0 1.007813 -0.820312 1.828126 -1.828125 1.828126 c -1.011719 0 -1.828125 -0.820313 -1.828125 -1.828126 v -2.351562 c 0 -1.011719 0.816406 -1.828125 1.828125 -1.828125 z m 0 0"
       id="path162" />
    <path
       d="m 97.363281 110.753906 c 1.007813 0 1.828125 0.820313 1.828125 1.828125 v 2.351563 c 0 1.011718 -0.820312 1.828125 -1.828125 1.828125 c -1.011719 0 -1.828125 -0.816407 -1.828125 -1.828125 v -2.351563 c 0 -1.007812 0.816406 -1.828125 1.828125 -1.828125 z m 0 0"
       id="path163" />
    <path
       d="m 105.585938 95.734375 c 1.011718 0 1.828124 0.816406 1.828124 1.828125 v 2.351562 c 0 1.007813 -0.816406 1.828126 -1.828124 1.828126 c -1.007813 0 -1.824219 -0.820313 -1.824219 -1.828126 v -2.351562 c 0 -1.011719 0.816406 -1.828125 1.824219 -1.828125 z m 0 0"
       id="path164" />
    <path
       d="m 105.585938 110.753906 c 1.011718 0 1.828124 0.820313 1.828124 1.828125 v 2.351563 c 0 1.011718 -0.816406 1.828125 -1.828124 1.828125 c -1.007813 0 -1.824219 -0.816407 -1.824219 -1.828125 v -2.351563 c 0 -1.007812 0.816406 -1.828125 1.824219 -1.828125 z m 0 0"
       id="path165" />
    <path
       d="m 113.8125 95.734375 c 1.011719 0 1.828125 0.816406 1.828125 1.828125 v 2.351562 c 0 1.007813 -0.816406 1.828126 -1.828125 1.828126 c -1.007812 0 -1.828125 -0.820313 -1.828125 -1.828126 v -2.351562 c 0 -1.011719 0.820313 -1.828125 1.828125 -1.828125 z m 0 0"
       id="path166" />
    <path
       d="m 113.8125 110.753906 c 1.011719 0 1.828125 0.820313 1.828125 1.828125 v 2.351563 c 0 1.011718 -0.816406 1.828125 -1.828125 1.828125 c -1.007812 0 -1.828125 -0.816407 -1.828125 -1.828125 v -2.351563 c 0 -1.007812 0.820313 -1.828125 1.828125 -1.828125 z m 0 0"
       id="path167" />
  </g>
  <g
     mask="url(#S)"
     id="g191">
    <g
       clip-path="url(#W)"
       id="g190">
      <g
         mask="url(#T)"
         id="g189">
        <g
           clip-path="url(#V)"
           id="g188"
           style="display:inline"
           transform="matrix(1,0,0,0.80093145,0,25.480774)">
          <path
             d="M 128,80.640625 V 128 H 0 V 80.640625 Z m 0,0"
             fill="url(#U)"
             id="path187"
             style="display:inline;fill:url(#U)" />
          <path
             d="M 13.308594,80.640625 60.664062,128 H 81.878906 L 34.519531,80.640625 Z m 42.421875,0 L 103.09375,128 h 21.21484 L 76.945312,80.640625 Z m 42.429687,0 L 128,110.48047 V 89.269531 l -8.62891,-8.628906 z M 0,88.546875 V 109.76172 L 18.238281,128 h 21.214844 z m 0,0"
             id="path188" />
        </g>
      </g>
    </g>
  </g>
  <path
     d="m 17.054688,51.632812 h 95.730472 c 7.1289,0 12.91015,5.777344 12.91015,12.90625 V 81.75 c 0,7.128906 -5.78125,12.90625 -12.91015,12.90625 H 17.054688 C 9.925781,94.65625 4.144531,88.878906 4.144531,81.75 V 64.539062 c 0,-7.128906 5.78125,-12.90625 12.910157,-12.90625 z m 0,0"
     fill="url(#c)"
     id="path168"
     style="display:inline" />
  <path
     d="m 17.054688 0 h 95.730468 c 7.128906 0 12.910156 5.777344 12.910156 12.90625 v 61.3125 c 0 7.128906 -5.78125 12.910156 -12.910156 12.910156 h -95.730468 c -7.128907 0 -12.910157 -5.78125 -12.910157 -12.910156 v -61.3125 c 0 -7.128906 5.78125 -12.90625 12.910157 -12.90625 z m 0 0"
     fill="#5e5c64"
     id="path169" />
  <path
     d="m 20.28125 10.757812 h 89.277344 c 5.347656 0 9.679687 4.332032 9.679687 9.679688 v 46.253906 c 0 5.34375 -4.332031 9.679688 -9.679687 9.679688 h -89.277344 c -5.347656 0 -9.683594 -4.335938 -9.683594 -9.679688 v -46.253906 c 0 -5.347656 4.335938 -9.679688 9.683594 -9.679688 z m 0 0"
     fill="#241f31"
     id="path170" />
  <g
     clip-path="url(#d)"
     id="g172">
    <g
       clip-path="url(#e)"
       id="g171">
      <path
         d="m 37.734375 11.609375 l 3.621094 24.65625 l 19.726562 -2.894531 l -0.726562 -4.933594 z m -10.882813 11.671875 c -4.0625 0.597656 -6.90625 4.421875 -6.308593 8.484375 c 0.59375 4.066406 4.417969 6.910156 8.484375 6.3125 c 4.0625 -0.597656 6.90625 -4.417969 6.308594 -8.484375 c -0.597657 -4.066406 -4.417969 -6.90625 -8.484376 -6.3125 z m 0.726563 4.933594 c 1.386719 -0.203125 2.621094 0.714844 2.828125 2.101562 c 0.203125 1.390625 -0.71875 2.625 -2.105469 2.828125 c -1.386719 0.207031 -2.625 -0.714843 -2.828125 -2.101562 s 0.71875 -2.625 2.105469 -2.828125 z m -5.226563 15.882812 l 0.726563 4.929688 l 29.589844 -4.347656 l -0.726563 -4.929688 z m 1.449219 9.863282 l 0.726563 4.929687 l 29.589844 -4.347656 l -0.726563 -4.929688 z m 1.449219 9.863281 l 0.722656 4.929687 l 29.589844 -4.347656 l -0.722656 -4.929688 z m 0 0"
         fill="url(#g)"
         id="path171" />
    </g>
  </g>
  <g
     clip-path="url(#h)"
     id="g174">
    <g
       clip-path="url(#i)"
       id="g173">
      <path
         d="m 11.179688 70.925781 c 1.203124 8.1875 8.78125 13.824219 16.96875 12.625 l 29.589843 -4.347656 c 8.1875 -1.203125 13.824219 -8.78125 12.621094 -16.96875 l -4.347656 -29.589844 c -0.65625 -4.46875 -3.054688 -8.484375 -6.679688 -11.179687 l -14.625 -10.878906 c -3.625 -2.695313 -8.160156 -3.839844 -12.628906 -3.183594 l -14.796875 2.171875 c -8.1875 1.203125 -13.824219 8.78125 -12.621094 16.96875 z m 7.550781 -51.488281 l 14.796875 -2.171875 c 1.847656 -0.273437 3.726562 0.199219 5.230468 1.316406 l 14.625 10.878907 c 1.503907 1.117187 2.496094 2.785156 2.765626 4.632812 l 4.347656 29.589844 c 0.394531 2.695312 -1.511719 5.261718 -4.207032 5.65625 l -29.589843 4.347656 c -2.695313 0.394531 -5.261719 -1.511719 -5.65625 -4.207031 l -6.519531 -44.386719 c -0.394532 -2.695312 1.511718 -5.257812 4.207031 -5.65625 z m 0 0"
         fill="url(#j)"
         id="path172" />
    </g>
  </g>
  <g
     clip-path="url(#k)"
     id="g176">
    <g
       clip-path="url(#l)"
       id="g175">
      <path
         d="m 37.507812 9.78125 l 3.621094 24.660156 l 19.726563 -2.898437 l -0.726563 -4.929688 z m -10.882812 11.675781 c -4.0625 0.597657 -6.90625 4.417969 -6.308594 8.484375 c 0.59375 4.066406 4.417969 6.90625 8.480469 6.3125 c 4.066406 -0.597656 6.910156 -4.421875 6.3125 -8.484375 c -0.597656 -4.066406 -4.417969 -6.910156 -8.484375 -6.3125 z m 0.726562 4.933594 c 1.386719 -0.207031 2.621094 0.714844 2.828126 2.101563 c 0.203124 1.386718 -0.71875 2.625 -2.105469 2.828124 c -1.386719 0.203126 -2.625 -0.714843 -2.828125 -2.101562 c -0.203125 -1.390625 0.71875 -2.625 2.105468 -2.828125 z m -5.226562 15.878906 l 0.726562 4.933594 l 29.589844 -4.347656 l -0.726562 -4.929688 z m 1.449219 9.863281 l 0.726562 4.933594 l 29.589844 -4.347656 l -0.726563 -4.929688 z m 1.449219 9.863282 l 0.722656 4.933594 l 29.589844 -4.347657 l -0.722657 -4.929687 z m 0 0"
         fill="url(#n)"
         id="path174" />
    </g>
  </g>
  <g
     clip-path="url(#o)"
     id="g178">
    <g
       clip-path="url(#p)"
       id="g177">
      <path
         d="m 10.953125 69.101562 c 1.203125 8.1875 8.78125 13.824219 16.96875 12.621094 l 29.589844 -4.34375 c 8.1875 -1.203125 13.824219 -8.78125 12.621093 -16.96875 l -4.347656 -29.589844 c -0.65625 -4.46875 -3.054687 -8.488281 -6.679687 -11.183593 l -14.625 -10.878907 c -3.625 -2.695312 -8.160157 -3.839843 -12.628907 -3.183593 l -14.796874 2.175781 c -8.1875 1.203125 -13.824219 8.78125 -12.621094 16.96875 z m 7.550781 -51.488281 l 14.792969 -2.175781 c 1.851563 -0.269531 3.730469 0.203125 5.234375 1.320312 l 14.625 10.878907 c 1.503906 1.117187 2.496094 2.78125 2.765625 4.632812 l 4.347656 29.589844 c 0.394531 2.695313 -1.511719 5.257813 -4.207031 5.65625 l -29.589844 4.34375 c -2.699218 0.398437 -5.261718 -1.507813 -5.65625 -4.207031 l -6.519531 -44.382813 c -0.394531 -2.699219 1.511719 -5.261719 4.207031 -5.65625 z m 0 0"
         fill="url(#q)"
         id="path176" />
    </g>
  </g>
  <g
     clip-path="url(#r)"
     id="g180">
    <g
       clip-path="url(#s)"
       id="g179">
      <path
         d="m 95.140625 14.839844 c -19.664063 -2.929688 -38.109375 10.734375 -41.039063 30.398437 c -2.929687 19.664063 10.730469 38.109375 30.394532 41.039063 c 19.667968 2.929687 38.113281 -10.730469 41.042968 -30.394532 c 2.929688 -19.664062 -10.734374 -38.113281 -30.398437 -41.042968 z m 7.140625 12.324218 c 4.300781 2.273438 7.824219 5.671876 10.261719 9.742188 l -5.839844 -0.871094 c -1.019531 -3.117187 -2.496094 -6.113281 -4.421875 -8.871094 z m -17.71875 -2.585937 c -2.613281 2.085937 -4.890625 4.484375 -6.769531 7.152344 l -5.730469 -0.855469 c 3.472656 -3.152344 7.792969 -5.34375 12.5 -6.296875 z m 6.480469 1.441406 l -1.121094 7.515625 l -6.660156 -0.992187 c 2.152343 -2.570313 4.746093 -4.789063 7.78125 -6.523438 z m 4.75 0.785157 c 2.34375 2.515624 4.164062 5.375 5.457031 8.417968 l -6.566406 -0.976562 z m -27.546875 8.371093 l 6.863281 1.023438 c -1.480469 2.914062 -2.59375 6.039062 -3.277344 9.246093 l -7.742187 -1.152343 c 0.804687 -3.359375 2.253906 -6.433594 4.15625 -9.117188 z m 11.941406 1.777344 l 9.023438 1.34375 l -1.417969 9.527344 l -11.164063 -1.664063 c 0.710938 -3.222656 1.894532 -6.335937 3.558594 -9.207031 z m 13.785156 2.054687 l 8.929688 1.332032 c 0.757812 3.230468 0.984375 6.554687 0.722656 9.84375 l -11.070312 -1.648438 z m 14.011719 2.085938 l 6.957031 1.039062 c 1.035156 3.121094 1.523438 6.484376 1.316406 9.933594 l -7.832031 -1.167968 c 0.277344 -3.269532 0.121094 -6.582032 -0.441406 -9.804688 z m -44.601563 7.960938 l 7.738282 1.152343 c -0.257813 3.273438 -0.125 6.582031 0.460937 9.804688 l -6.882812 -1.023438 c -1.039063 -3.121093 -1.527344 -6.484375 -1.316407 -9.933593 z m 12.539063 1.867187 l 11.160156 1.664063 l -1.417969 9.527343 l -9.003906 -1.34375 c -0.757812 -3.210937 -0.984375 -6.554687 -0.738281 -9.847656 z m 15.921875 2.375 l 11.070312 1.648437 c -0.726562 3.21875 -1.914062 6.351563 -3.574218 9.203126 l -8.914063 -1.328126 z m 15.871094 2.363281 l 7.832031 1.167969 c -0.804687 3.359375 -2.25 6.433594 -4.152344 9.117187 l -6.976562 -1.039062 c 1.496093 -2.914062 2.589843 -6.042969 3.296875 -9.246094 z m -40.621094 8.554688 l 5.769531 0.859375 c 1.054688 3.121093 2.546875 6.121093 4.492188 8.882812 c -4.300781 -2.277343 -7.824219 -5.671875 -10.261719 -9.742187 z m 11.257812 1.675781 l 6.601563 0.984375 l -1.097656 7.386719 c -2.367188 -2.503907 -4.207031 -5.34375 -5.503907 -8.371094 z m 11.367188 1.691406 l 6.507812 0.972657 c -2.101562 2.5 -4.648437 4.648437 -7.597656 6.339843 z m 11.996094 1.789063 l 5.863281 0.875 c -3.5625 3.214844 -7.980469 5.445312 -12.8125 6.34375 c 2.703125 -2.070313 5.027344 -4.519532 6.949219 -7.21875 z m 0 0"
         fill="url(#t)"
         id="path178" />
    </g>
  </g>
  <g
     clip-path="url(#u)"
     id="g182">
    <g
       clip-path="url(#v)"
       id="g181">
      <path
         d="m 96.007812 11.324219 c -19.664062 -2.929688 -38.109374 10.730469 -41.039062 30.394531 s 10.730469 38.113281 30.394531 41.042969 c 19.664063 2.929687 38.113281 -10.734375 41.042969 -30.398438 c 2.929688 -19.664062 -10.734375 -38.109375 -30.398438 -41.039062 z m 7.140626 12.320312 c 4.300781 2.277344 7.824218 5.671875 10.261718 9.742188 l -5.839844 -0.867188 c -1.019531 -3.121093 -2.492187 -6.117187 -4.421874 -8.875 z m -17.71875 -2.582031 c -2.613282 2.082031 -4.890626 4.480469 -6.769532 7.148438 l -5.730468 -0.851563 c 3.472656 -3.15625 7.792968 -5.34375 12.5 -6.296875 z m 6.480468 1.441406 l -1.121094 7.515625 l -6.660156 -0.992187 c 2.152344 -2.570313 4.746094 -4.789063 7.78125 -6.523438 z m 4.75 0.78125 c 2.34375 2.519532 4.164063 5.375 5.457032 8.421875 l -6.566407 -0.980469 z m -27.546875 8.371094 l 6.863281 1.023438 c -1.480468 2.917968 -2.59375 6.042968 -3.277343 9.25 l -7.742188 -1.15625 c 0.804688 -3.359376 2.253907 -6.433594 4.15625 -9.117188 z m 11.941407 1.78125 l 9.023437 1.34375 l -1.417969 9.523438 l -11.164062 -1.660157 c 0.710937 -3.222656 1.894531 -6.335937 3.558594 -9.207031 z m 13.785156 2.054688 l 8.933594 1.328124 c 0.753906 3.230469 0.980468 6.554688 0.71875 9.84375 l -11.070313 -1.648437 z m 14.011718 2.085937 l 6.957032 1.035156 c 1.035156 3.121094 1.523437 6.484375 1.316406 9.933594 l -7.832031 -1.167969 c 0.277343 -3.265625 0.121093 -6.578125 -0.441407 -9.800781 z m -44.601562 7.960937 l 7.738281 1.152344 c -0.257812 3.269532 -0.125 6.578125 0.460938 9.804688 l -6.882813 -1.027344 c -1.039062 -3.121094 -1.527344 -6.484375 -1.316406 -9.929688 z m 12.539062 1.867188 l 11.160157 1.664062 l -1.417969 9.523438 l -9.003906 -1.339844 c -0.757813 -3.214844 -0.984375 -6.558594 -0.738282 -9.847656 z m 15.921876 2.371094 l 11.070312 1.648437 c -0.726562 3.222657 -1.914062 6.351563 -3.578125 9.207031 l -8.910156 -1.328124 z m 15.871093 2.363281 l 7.832031 1.167969 c -0.804687 3.359375 -2.25 6.433594 -4.152343 9.117187 l -6.976563 -1.039062 c 1.496094 -2.914063 2.589844 -6.039063 3.296875 -9.246094 z m -40.621093 8.554687 l 5.769531 0.859376 c 1.054687 3.125 2.546875 6.121093 4.492187 8.886718 c -4.300781 -2.277344 -7.824218 -5.675781 -10.261718 -9.746094 z m 11.257812 1.675782 l 6.601562 0.984375 l -1.097656 7.386719 c -2.367187 -2.5 -4.207031 -5.34375 -5.503906 -8.371094 z m 11.367188 1.695312 l 6.507812 0.96875 c -2.101562 2.5 -4.648438 4.652344 -7.597656 6.34375 z m 12 1.789063 l 5.859374 0.871093 c -3.5625 3.214844 -7.980468 5.449219 -12.8125 6.34375 c 2.703126 -2.070312 5.027344 -4.519531 6.953126 -7.214843 z m 0 0"
         fill="url(#w)"
         id="path180" />
    </g>
  </g>
  <path
     d="m 56.433594 26.085938 c -3.039063 0 -5.515625 2.445312 -5.515625 5.445312 c 0 3.019531 2.476562 5.445312 5.515625 5.445312 c 3.035156 0 5.511718 -2.425781 5.511718 -5.445312 c 0 -3 -2.476562 -5.445312 -5.511718 -5.445312 z m 17.441406 11.847656 l -9.648438 13.273437 c -0.558593 0.785157 -1.441406 1.273438 -2.410156 1.339844 c -0.96875 0.085937 -1.917968 -0.277344 -2.605468 -0.957031 l -2.261719 -2.277344 c -1.011719 -1.042969 -2.453125 -1.550781 -3.898438 -1.425781 c -1.441406 0.148437 -2.753906 0.914062 -3.550781 2.105469 l -4.09375 6.042968 v 5.445313 c 0 2.722656 2.757812 2.722656 2.757812 2.722656 h 38.589844 s 2.605469 -0.171875 2.753906 -2.722656 v -11.699219 c 0 -1.320312 -0.453124 -2.59375 -1.3125 -3.617188 l -7.042968 -8.464843 c -0.902344 -1.085938 -2.261719 -1.679688 -3.679688 -1.636719 c -1.445312 0.039062 -2.757812 0.742188 -3.597656 1.871094 z m 0 0"
     fill="url(#y)"
     id="path182" />
  <path
     d="m 45.40625 4.300781 c -9.066406 0 -16.539062 7.382813 -16.539062 16.339844 v 43.5625 c 0 8.976563 7.472656 16.335937 16.539062 16.335937 h 44.101562 c 9.066407 0 16.539063 -7.359374 16.539063 -16.335937 v -43.5625 c 0 -8.957031 -7.472656 -16.339844 -16.539063 -16.339844 z m 0 10.894531 h 44.101562 c 3.144532 0 5.511719 2.339844 5.511719 5.445313 v 43.5625 c 0 3.125 -2.367187 5.445313 -5.511719 5.445313 h -44.101562 c -3.144531 0 -5.511719 -2.320313 -5.511719 -5.445313 v -43.5625 c 0 -3.105469 2.367188 -5.445313 5.511719 -5.445313 z m 0 0"
     fill="url(#z)"
     id="path183" />
  <path
     d="m 56.433594 23.933594 c -3.039063 0 -5.515625 2.445312 -5.515625 5.445312 c 0 3.019532 2.476562 5.445313 5.515625 5.445313 c 3.035156 0 5.511718 -2.425781 5.511718 -5.445313 c 0 -3 -2.476562 -5.445312 -5.511718 -5.445312 z m 17.441406 11.847656 l -9.648438 13.273438 c -0.558593 0.785156 -1.441406 1.277343 -2.410156 1.339843 c -0.96875 0.085938 -1.917968 -0.277343 -2.605468 -0.957031 l -2.261719 -2.277344 c -1.011719 -1.039062 -2.453125 -1.550781 -3.898438 -1.421875 c -1.441406 0.148438 -2.753906 0.914063 -3.550781 2.105469 l -4.09375 6.039062 v 5.445313 c 0 2.722656 2.757812 2.722656 2.757812 2.722656 h 38.589844 s 2.605469 -0.167969 2.753906 -2.722656 v -11.699219 c 0 -1.316406 -0.453124 -2.59375 -1.3125 -3.617187 l -7.042968 -8.464844 c -0.902344 -1.085937 -2.261719 -1.679687 -3.679688 -1.636719 c -1.445312 0.042969 -2.757812 0.742188 -3.597656 1.871094 z m 0 0"
     fill="url(#B)"
     id="path184" />
  <path
     d="m 45.40625 2.152344 c -9.066406 0 -16.539062 7.378906 -16.539062 16.335937 v 43.5625 c 0 8.976563 7.472656 16.335938 16.539062 16.335938 h 44.101562 c 9.066407 0 16.539063 -7.359375 16.539063 -16.335938 v -43.5625 c 0 -8.957031 -7.472656 -16.335937 -16.539063 -16.335937 z m 0 10.890625 h 44.101562 c 3.144532 0 5.511719 2.339843 5.511719 5.445312 v 43.5625 c 0 3.128907 -2.367187 5.445313 -5.511719 5.445313 h -44.101562 c -3.144531 0 -5.511719 -2.316406 -5.511719 -5.445313 v -43.5625 c 0 -3.105469 2.367188 -5.445312 5.511719 -5.445312 z m 0 0"
     fill="url(#C)"
     id="path185" />
  <path
     d="m 4.144531 49.480469 v 24.738281 c 0 7.128906 5.78125 12.910156 12.910157 12.910156 h 95.730468 c 7.128906 0 12.910156 -5.78125 12.910156 -12.910156 v -15.058594 c 0 7.976563 -5.425781 14.683594 -12.789062 16.636719 c -1.027344 0.371094 -2.136719 0.574219 -3.289062 0.574219 h -89.394532 c -5.277344 0 -9.570312 -4.222656 -9.679687 -9.476563 c -3.988281 -4.691406 -6.398438 -10.773437 -6.398438 -17.414062 z m 121.550781 -35.496094 v -1.078125 c 0 -7.128906 -5.78125 -12.90625 -12.910156 -12.90625 h -1.058594 c 7.714844 0.0078125 13.96875 6.265625 13.96875 13.984375 z m 0 0"
     fill="#5e5c64"
     fill-rule="evenodd"
     id="path186" />
</svg>
