<?xml version="1.0" encoding="UTF-8" standalone="no"?>
<svg
   height="128px"
   viewBox="0 0 128 128"
   width="128px"
   version="1.1"
   id="svg156"
   sodipodi:docname="xyz.zateros.Binned.Devel.svg"
   inkscape:version="1.4 (e7c3feb100, 2024-10-09)"
   xmlns:inkscape="http://www.inkscape.org/namespaces/inkscape"
   xmlns:sodipodi="http://sodipodi.sourceforge.net/DTD/sodipodi-0.dtd"
   xmlns="http://www.w3.org/2000/svg"
   xmlns:svg="http://www.w3.org/2000/svg">
  <defs
     id="defs156" />
  <sodipodi:namedview
     id="namedview156"
     pagecolor="#ffffff"
     bordercolor="#000000"
     borderopacity="0.25"
     inkscape:showpageshadow="2"
     inkscape:pageopacity="0.0"
     inkscape:pagecheckerboard="0"
     inkscape:deskcolor="#d1d1d1"
     inkscape:zoom="6.234375"
     inkscape:cx="55.017544"
     inkscape:cy="84.691729"
     inkscape:window-width="1920"
     inkscape:window-height="1011"
     inkscape:window-x="0"
     inkscape:window-y="0"
     inkscape:window-maximized="1"
     inkscape:current-layer="svg156" />
  <filter
     id="a"
     height="1"
     width="1"
     x="0"
     y="0">
    <feColorMatrix
       color-interpolation-filters="sRGB"
       values="0 0 0 0 1 0 0 0 0 1 0 0 0 0 1 0 0 0 1 0"
       id="feColorMatrix1" />
  </filter>
  <linearGradient
     id="b"
     gradientUnits="userSpaceOnUse"
     x1="5.827006"
     x2="119.225011"
     y1="127.49633"
     y2="127.49633">
    <stop
       offset="0"
       stop-color="#5e5c64"
       id="stop1" />
    <stop
       offset="0.05"
       stop-color="#3d3846"
       id="stop2" />
    <stop
       offset="0.1"
       stop-color="#5e5c64"
       id="stop3" />
    <stop
       offset="0.9"
       stop-color="#5e5c64"
       id="stop4" />
    <stop
       offset="0.95"
       stop-color="#3d3846"
       id="stop5" />
    <stop
       offset="1"
       stop-color="#5e5c64"
       id="stop6" />
  </linearGradient>
  <linearGradient
     id="c"
     gradientUnits="userSpaceOnUse"
     x1="1.217331"
     x2="123.834686"
     y1="80.477645"
     y2="80.477645">
    <stop
       offset="0"
       stop-color="#3d3846"
       id="stop7" />
    <stop
       offset="0.05"
       stop-color="#241f31"
       id="stop8" />
    <stop
       offset="0.1"
       stop-color="#3d3846"
       id="stop9" />
    <stop
       offset="0.9"
       stop-color="#3d3846"
       id="stop10" />
    <stop
       offset="0.95"
       stop-color="#241f31"
       id="stop11" />
    <stop
       offset="1"
       stop-color="#3d3846"
       id="stop12" />
  </linearGradient>
  <clipPath
     id="d">
    <path
       d="m 14 24 h 36 v 50 h -36 z m 0 0"
       id="path12" />
  </clipPath>
  <clipPath
     id="e">
    <path
       d="m -5.234375 27.796875 l 61.445313 -16.464844 l 16.464843 61.445313 l -61.449219 16.464844 z m 0 0"
       id="path13" />
  </clipPath>
  <clipPath
     id="f">
    <path
       d="m 0 20 h 61 v 67 h -61 z m 0 0"
       id="path14" />
  </clipPath>
  <clipPath
     id="g">
    <path
       d="m -5.234375 27.796875 l 61.445313 -16.464844 l 16.464843 61.445313 l -61.449219 16.464844 z m 0 0"
       id="path15" />
  </clipPath>
  <clipPath
     id="h">
    <path
       d="m 69 30 h 59 v 59 h -59 z m 0 0"
       id="path16" />
  </clipPath>
  <clipPath
     id="i">
    <path
       d="m 76.996094 24.238281 l 60.390625 14.011719 l -14.011719 60.386719 l -60.386719 -14.007813 z m 0 0"
       id="path17" />
  </clipPath>
  <clipPath
     id="j">
    <path
       d="m 14 24 h 36 v 50 h -36 z m 0 0"
       id="path18" />
  </clipPath>
  <clipPath
     id="k">
    <path
       d="m -5.234375 27.796875 l 61.445313 -16.464844 l 16.464843 61.445313 l -61.449219 16.464844 z m 0 0"
       id="path19" />
  </clipPath>
  <clipPath
     id="l">
    <path
       d="m 0 20 h 61 v 67 h -61 z m 0 0"
       id="path20" />
  </clipPath>
  <clipPath
     id="m">
    <path
       d="m -5.234375 27.796875 l 61.445313 -16.464844 l 16.464843 61.445313 l -61.449219 16.464844 z m 0 0"
       id="path21" />
  </clipPath>
  <clipPath
     id="n">
    <path
       d="m 69 30 h 59 v 59 h -59 z m 0 0"
       id="path22" />
  </clipPath>
  <clipPath
     id="o">
    <path
       d="m 76.996094 24.238281 l 60.390625 14.011719 l -14.011719 60.386719 l -60.386719 -14.007813 z m 0 0"
       id="path23" />
  </clipPath>
  <clipPath
     id="p">
    <rect
       height="128"
       width="128"
       id="rect23" />
  </clipPath>
  <clipPath
     id="q">
    <rect
       height="128"
       width="128"
       id="rect24" />
  </clipPath>
  <mask
     id="r">
    <g
       filter="url(#a)"
       id="g87">
      <g
         clip-path="url(#q)"
         filter="url(#a)"
         id="g86">
        <g
           clip-path="url(#p)"
           id="g85">
          <path
             d="m 15.96875 38.070312 h 93.113281 c 5.601563 0 10.144531 4.539063 10.144531 10.140626 v 69.144531 c 0 5.601562 -4.542968 10.140625 -10.144531 10.140625 h -93.113281 c -5.601562 0 -10.140625 -4.539063 -10.140625 -10.140625 v -69.144531 c 0 -5.601563 4.539063 -10.140626 10.140625 -10.140626 z m 0 0"
             fill="url(#b)"
             id="path24" />
          <path
             d="m 16.890625 106.703125 c 1.019531 0 1.84375 0.828125 1.84375 1.84375 v 1.464844 c 0 1.019531 -0.824219 1.84375 -1.84375 1.84375 s -1.84375 -0.824219 -1.84375 -1.84375 v -1.464844 c 0 -1.015625 0.824219 -1.84375 1.84375 -1.84375 z m 0 0"
             fill="#241f31"
             id="path25" />
          <path
             d="m 16.890625 119.582031 c 1.019531 0 1.84375 0.824219 1.84375 1.84375 v 1.460938 c 0 1.019531 -0.824219 1.84375 -1.84375 1.84375 s -1.84375 -0.824219 -1.84375 -1.84375 v -1.460938 c 0 -1.019531 0.824219 -1.84375 1.84375 -1.84375 z m 0 0"
             fill="#241f31"
             id="path26" />
          <path
             d="m 25.1875 106.703125 c 1.019531 0 1.84375 0.828125 1.84375 1.84375 v 1.464844 c 0 1.019531 -0.824219 1.84375 -1.84375 1.84375 s -1.84375 -0.824219 -1.84375 -1.84375 v -1.464844 c 0 -1.015625 0.824219 -1.84375 1.84375 -1.84375 z m 0 0"
             fill="#241f31"
             id="path27" />
          <path
             d="m 25.1875 119.582031 c 1.019531 0 1.84375 0.824219 1.84375 1.84375 v 1.460938 c 0 1.019531 -0.824219 1.84375 -1.84375 1.84375 s -1.84375 -0.824219 -1.84375 -1.84375 v -1.460938 c 0 -1.019531 0.824219 -1.84375 1.84375 -1.84375 z m 0 0"
             fill="#241f31"
             id="path28" />
          <path
             d="m 33.484375 106.703125 c 1.019531 0 1.84375 0.828125 1.84375 1.84375 v 1.464844 c 0 1.019531 -0.824219 1.84375 -1.84375 1.84375 s -1.84375 -0.824219 -1.84375 -1.84375 v -1.464844 c 0 -1.015625 0.824219 -1.84375 1.84375 -1.84375 z m 0 0"
             fill="#241f31"
             id="path29" />
          <path
             d="m 33.484375 119.582031 c 1.019531 0 1.84375 0.824219 1.84375 1.84375 v 1.460938 c 0 1.019531 -0.824219 1.84375 -1.84375 1.84375 s -1.84375 -0.824219 -1.84375 -1.84375 v -1.460938 c 0 -1.019531 0.824219 -1.84375 1.84375 -1.84375 z m 0 0"
             fill="#241f31"
             id="path30" />
          <path
             d="m 41.78125 106.703125 c 1.019531 0 1.84375 0.828125 1.84375 1.84375 v 1.464844 c 0 1.019531 -0.824219 1.84375 -1.84375 1.84375 c -1.015625 0 -1.84375 -0.824219 -1.84375 -1.84375 v -1.464844 c 0 -1.015625 0.828125 -1.84375 1.84375 -1.84375 z m 0 0"
             fill="#241f31"
             id="path31" />
          <path
             d="m 41.78125 119.582031 c 1.019531 0 1.84375 0.824219 1.84375 1.84375 v 1.460938 c 0 1.019531 -0.824219 1.84375 -1.84375 1.84375 c -1.015625 0 -1.84375 -0.824219 -1.84375 -1.84375 v -1.460938 c 0 -1.019531 0.828125 -1.84375 1.84375 -1.84375 z m 0 0"
             fill="#241f31"
             id="path32" />
          <path
             d="m 50.078125 106.703125 c 1.019531 0 1.84375 0.828125 1.84375 1.84375 v 1.464844 c 0 1.019531 -0.824219 1.84375 -1.84375 1.84375 c -1.015625 0 -1.84375 -0.824219 -1.84375 -1.84375 v -1.464844 c 0 -1.015625 0.828125 -1.84375 1.84375 -1.84375 z m 0 0"
             fill="#241f31"
             id="path33" />
          <path
             d="m 50.078125 119.582031 c 1.019531 0 1.84375 0.824219 1.84375 1.84375 v 1.460938 c 0 1.019531 -0.824219 1.84375 -1.84375 1.84375 c -1.015625 0 -1.84375 -0.824219 -1.84375 -1.84375 v -1.460938 c 0 -1.019531 0.828125 -1.84375 1.84375 -1.84375 z m 0 0"
             fill="#241f31"
             id="path34" />
          <path
             d="m 58.378906 106.703125 c 1.015625 0 1.84375 0.828125 1.84375 1.84375 v 1.464844 c 0 1.019531 -0.828125 1.84375 -1.84375 1.84375 c -1.019531 0 -1.84375 -0.824219 -1.84375 -1.84375 v -1.464844 c 0 -1.015625 0.824219 -1.84375 1.84375 -1.84375 z m 0 0"
             fill="#241f31"
             id="path35" />
          <path
             d="m 58.378906 119.582031 c 1.015625 0 1.84375 0.824219 1.84375 1.84375 v 1.460938 c 0 1.019531 -0.828125 1.84375 -1.84375 1.84375 c -1.019531 0 -1.84375 -0.824219 -1.84375 -1.84375 v -1.460938 c 0 -1.019531 0.824219 -1.84375 1.84375 -1.84375 z m 0 0"
             fill="#241f31"
             id="path36" />
          <path
             d="m 66.675781 106.703125 c 1.015625 0 1.84375 0.828125 1.84375 1.84375 v 1.464844 c 0 1.019531 -0.828125 1.84375 -1.84375 1.84375 c -1.019531 0 -1.84375 -0.824219 -1.84375 -1.84375 v -1.464844 c 0 -1.015625 0.824219 -1.84375 1.84375 -1.84375 z m 0 0"
             fill="#241f31"
             id="path37" />
          <path
             d="m 66.675781 119.582031 c 1.015625 0 1.84375 0.824219 1.84375 1.84375 v 1.460938 c 0 1.019531 -0.828125 1.84375 -1.84375 1.84375 c -1.019531 0 -1.84375 -0.824219 -1.84375 -1.84375 v -1.460938 c 0 -1.019531 0.824219 -1.84375 1.84375 -1.84375 z m 0 0"
             fill="#241f31"
             id="path38" />
          <path
             d="m 74.972656 106.703125 c 1.019532 0 1.84375 0.828125 1.84375 1.84375 v 1.464844 c 0 1.019531 -0.824218 1.84375 -1.84375 1.84375 c -1.019531 0 -1.84375 -0.824219 -1.84375 -1.84375 v -1.464844 c 0 -1.015625 0.824219 -1.84375 1.84375 -1.84375 z m 0 0"
             fill="#241f31"
             id="path39" />
          <path
             d="m 74.972656 119.582031 c 1.019532 0 1.84375 0.824219 1.84375 1.84375 v 1.460938 c 0 1.019531 -0.824218 1.84375 -1.84375 1.84375 c -1.019531 0 -1.84375 -0.824219 -1.84375 -1.84375 v -1.460938 c 0 -1.019531 0.824219 -1.84375 1.84375 -1.84375 z m 0 0"
             fill="#241f31"
             id="path40" />
          <path
             d="m 83.269531 106.703125 c 1.019531 0 1.84375 0.828125 1.84375 1.84375 v 1.464844 c 0 1.019531 -0.824219 1.84375 -1.84375 1.84375 s -1.84375 -0.824219 -1.84375 -1.84375 v -1.464844 c 0 -1.015625 0.824219 -1.84375 1.84375 -1.84375 z m 0 0"
             fill="#241f31"
             id="path41" />
          <path
             d="m 83.269531 119.582031 c 1.019531 0 1.84375 0.824219 1.84375 1.84375 v 1.460938 c 0 1.019531 -0.824219 1.84375 -1.84375 1.84375 s -1.84375 -0.824219 -1.84375 -1.84375 v -1.460938 c 0 -1.019531 0.824219 -1.84375 1.84375 -1.84375 z m 0 0"
             fill="#241f31"
             id="path42" />
          <path
             d="m 91.566406 106.703125 c 1.019532 0 1.84375 0.828125 1.84375 1.84375 v 1.464844 c 0 1.019531 -0.824218 1.84375 -1.84375 1.84375 c -1.019531 0 -1.84375 -0.824219 -1.84375 -1.84375 v -1.464844 c 0 -1.015625 0.824219 -1.84375 1.84375 -1.84375 z m 0 0"
             fill="#241f31"
             id="path43" />
          <path
             d="m 91.566406 119.582031 c 1.019532 0 1.84375 0.824219 1.84375 1.84375 v 1.460938 c 0 1.019531 -0.824218 1.84375 -1.84375 1.84375 c -1.019531 0 -1.84375 -0.824219 -1.84375 -1.84375 v -1.460938 c 0 -1.019531 0.824219 -1.84375 1.84375 -1.84375 z m 0 0"
             fill="#241f31"
             id="path44" />
          <path
             d="m 99.863281 106.703125 c 1.019531 0 1.84375 0.828125 1.84375 1.84375 v 1.464844 c 0 1.019531 -0.824219 1.84375 -1.84375 1.84375 c -1.015625 0 -1.84375 -0.824219 -1.84375 -1.84375 v -1.464844 c 0 -1.015625 0.828125 -1.84375 1.84375 -1.84375 z m 0 0"
             fill="#241f31"
             id="path45" />
          <path
             d="m 99.863281 119.582031 c 1.019531 0 1.84375 0.824219 1.84375 1.84375 v 1.460938 c 0 1.019531 -0.824219 1.84375 -1.84375 1.84375 c -1.015625 0 -1.84375 -0.824219 -1.84375 -1.84375 v -1.460938 c 0 -1.019531 0.828125 -1.84375 1.84375 -1.84375 z m 0 0"
             fill="#241f31"
             id="path46" />
          <path
             d="m 108.160156 106.703125 c 1.019532 0 1.84375 0.828125 1.84375 1.84375 v 1.464844 c 0 1.019531 -0.824218 1.84375 -1.84375 1.84375 c -1.015625 0 -1.84375 -0.824219 -1.84375 -1.84375 v -1.464844 c 0 -1.015625 0.828125 -1.84375 1.84375 -1.84375 z m 0 0"
             fill="#241f31"
             id="path47" />
          <path
             d="m 108.160156 119.582031 c 1.019532 0 1.84375 0.824219 1.84375 1.84375 v 1.460938 c 0 1.019531 -0.824218 1.84375 -1.84375 1.84375 c -1.015625 0 -1.84375 -0.824219 -1.84375 -1.84375 v -1.460938 c 0 -1.019531 0.828125 -1.84375 1.84375 -1.84375 z m 0 0"
             fill="#241f31"
             id="path48" />
          <path
             d="m 12.28125 99.839844 c 1.019531 0 1.84375 0.824218 1.84375 1.84375 v 1.460937 c 0 1.019531 -0.824219 1.84375 -1.84375 1.84375 s -1.84375 -0.824219 -1.84375 -1.84375 v -1.460937 c 0 -1.019532 0.824219 -1.84375 1.84375 -1.84375 z m 0 0"
             fill="#241f31"
             id="path49" />
          <path
             d="m 12.28125 112.714844 c 1.019531 0 1.84375 0.824218 1.84375 1.84375 v 1.460937 c 0 1.019531 -0.824219 1.84375 -1.84375 1.84375 s -1.84375 -0.824219 -1.84375 -1.84375 v -1.460937 c 0 -1.019532 0.824219 -1.84375 1.84375 -1.84375 z m 0 0"
             fill="#241f31"
             id="path50" />
          <path
             d="m 20.578125 99.839844 c 1.019531 0 1.84375 0.824218 1.84375 1.84375 v 1.460937 c 0 1.019531 -0.824219 1.84375 -1.84375 1.84375 s -1.84375 -0.824219 -1.84375 -1.84375 v -1.460937 c 0 -1.019532 0.824219 -1.84375 1.84375 -1.84375 z m 0 0"
             fill="#241f31"
             id="path51" />
          <path
             d="m 20.578125 112.714844 c 1.019531 0 1.84375 0.824218 1.84375 1.84375 v 1.460937 c 0 1.019531 -0.824219 1.84375 -1.84375 1.84375 s -1.84375 -0.824219 -1.84375 -1.84375 v -1.460937 c 0 -1.019532 0.824219 -1.84375 1.84375 -1.84375 z m 0 0"
             fill="#241f31"
             id="path52" />
          <path
             d="m 28.875 99.839844 c 1.019531 0 1.84375 0.824218 1.84375 1.84375 v 1.460937 c 0 1.019531 -0.824219 1.84375 -1.84375 1.84375 s -1.84375 -0.824219 -1.84375 -1.84375 v -1.460937 c 0 -1.019532 0.824219 -1.84375 1.84375 -1.84375 z m 0 0"
             fill="#241f31"
             id="path53" />
          <path
             d="m 28.875 112.714844 c 1.019531 0 1.84375 0.824218 1.84375 1.84375 v 1.460937 c 0 1.019531 -0.824219 1.84375 -1.84375 1.84375 s -1.84375 -0.824219 -1.84375 -1.84375 v -1.460937 c 0 -1.019532 0.824219 -1.84375 1.84375 -1.84375 z m 0 0"
             fill="#241f31"
             id="path54" />
          <path
             d="m 37.171875 99.839844 c 1.019531 0 1.84375 0.824218 1.84375 1.84375 v 1.460937 c 0 1.019531 -0.824219 1.84375 -1.84375 1.84375 c -1.015625 0 -1.84375 -0.824219 -1.84375 -1.84375 v -1.460937 c 0 -1.019532 0.828125 -1.84375 1.84375 -1.84375 z m 0 0"
             fill="#241f31"
             id="path55" />
          <path
             d="m 37.171875 112.714844 c 1.019531 0 1.84375 0.824218 1.84375 1.84375 v 1.460937 c 0 1.019531 -0.824219 1.84375 -1.84375 1.84375 c -1.015625 0 -1.84375 -0.824219 -1.84375 -1.84375 v -1.460937 c 0 -1.019532 0.828125 -1.84375 1.84375 -1.84375 z m 0 0"
             fill="#241f31"
             id="path56" />
          <path
             d="m 45.46875 99.839844 c 1.019531 0 1.84375 0.824218 1.84375 1.84375 v 1.460937 c 0 1.019531 -0.824219 1.84375 -1.84375 1.84375 c -1.015625 0 -1.84375 -0.824219 -1.84375 -1.84375 v -1.460937 c 0 -1.019532 0.828125 -1.84375 1.84375 -1.84375 z m 0 0"
             fill="#241f31"
             id="path57" />
          <path
             d="m 45.46875 112.714844 c 1.019531 0 1.84375 0.824218 1.84375 1.84375 v 1.460937 c 0 1.019531 -0.824219 1.84375 -1.84375 1.84375 c -1.015625 0 -1.84375 -0.824219 -1.84375 -1.84375 v -1.460937 c 0 -1.019532 0.828125 -1.84375 1.84375 -1.84375 z m 0 0"
             fill="#241f31"
             id="path58" />
          <path
             d="m 53.769531 99.839844 c 1.015625 0 1.84375 0.824218 1.84375 1.84375 v 1.460937 c 0 1.019531 -0.828125 1.84375 -1.84375 1.84375 c -1.019531 0 -1.847656 -0.824219 -1.847656 -1.84375 v -1.460937 c 0 -1.019532 0.828125 -1.84375 1.847656 -1.84375 z m 0 0"
             fill="#241f31"
             id="path59" />
          <path
             d="m 53.769531 112.714844 c 1.015625 0 1.84375 0.824218 1.84375 1.84375 v 1.460937 c 0 1.019531 -0.828125 1.84375 -1.84375 1.84375 c -1.019531 0 -1.847656 -0.824219 -1.847656 -1.84375 v -1.460937 c 0 -1.019532 0.828125 -1.84375 1.847656 -1.84375 z m 0 0"
             fill="#241f31"
             id="path60" />
          <path
             d="m 62.066406 99.839844 c 1.015625 0 1.84375 0.824218 1.84375 1.84375 v 1.460937 c 0 1.019531 -0.828125 1.84375 -1.84375 1.84375 c -1.019531 0 -1.84375 -0.824219 -1.84375 -1.84375 v -1.460937 c 0 -1.019532 0.824219 -1.84375 1.84375 -1.84375 z m 0 0"
             fill="#241f31"
             id="path61" />
          <path
             d="m 62.066406 112.714844 c 1.015625 0 1.84375 0.824218 1.84375 1.84375 v 1.460937 c 0 1.019531 -0.828125 1.84375 -1.84375 1.84375 c -1.019531 0 -1.84375 -0.824219 -1.84375 -1.84375 v -1.460937 c 0 -1.019532 0.824219 -1.84375 1.84375 -1.84375 z m 0 0"
             fill="#241f31"
             id="path62" />
          <path
             d="m 70.363281 99.839844 c 1.015625 0 1.84375 0.824218 1.84375 1.84375 v 1.460937 c 0 1.019531 -0.828125 1.84375 -1.84375 1.84375 c -1.019531 0 -1.84375 -0.824219 -1.84375 -1.84375 v -1.460937 c 0 -1.019532 0.824219 -1.84375 1.84375 -1.84375 z m 0 0"
             fill="#241f31"
             id="path63" />
          <path
             d="m 70.363281 112.714844 c 1.015625 0 1.84375 0.824218 1.84375 1.84375 v 1.460937 c 0 1.019531 -0.828125 1.84375 -1.84375 1.84375 c -1.019531 0 -1.84375 -0.824219 -1.84375 -1.84375 v -1.460937 c 0 -1.019532 0.824219 -1.84375 1.84375 -1.84375 z m 0 0"
             fill="#241f31"
             id="path64" />
          <path
             d="m 78.660156 99.839844 c 1.019532 0 1.84375 0.824218 1.84375 1.84375 v 1.460937 c 0 1.019531 -0.824218 1.84375 -1.84375 1.84375 c -1.019531 0 -1.84375 -0.824219 -1.84375 -1.84375 v -1.460937 c 0 -1.019532 0.824219 -1.84375 1.84375 -1.84375 z m 0 0"
             fill="#241f31"
             id="path65" />
          <path
             d="m 78.660156 112.714844 c 1.019532 0 1.84375 0.824218 1.84375 1.84375 v 1.460937 c 0 1.019531 -0.824218 1.84375 -1.84375 1.84375 c -1.019531 0 -1.84375 -0.824219 -1.84375 -1.84375 v -1.460937 c 0 -1.019532 0.824219 -1.84375 1.84375 -1.84375 z m 0 0"
             fill="#241f31"
             id="path66" />
          <path
             d="m 86.957031 99.839844 c 1.019531 0 1.84375 0.824218 1.84375 1.84375 v 1.460937 c 0 1.019531 -0.824219 1.84375 -1.84375 1.84375 s -1.84375 -0.824219 -1.84375 -1.84375 v -1.460937 c 0 -1.019532 0.824219 -1.84375 1.84375 -1.84375 z m 0 0"
             fill="#241f31"
             id="path67" />
          <path
             d="m 86.957031 112.714844 c 1.019531 0 1.84375 0.824218 1.84375 1.84375 v 1.460937 c 0 1.019531 -0.824219 1.84375 -1.84375 1.84375 s -1.84375 -0.824219 -1.84375 -1.84375 v -1.460937 c 0 -1.019532 0.824219 -1.84375 1.84375 -1.84375 z m 0 0"
             fill="#241f31"
             id="path68" />
          <path
             d="m 95.253906 99.839844 c 1.019532 0 1.84375 0.824218 1.84375 1.84375 v 1.460937 c 0 1.019531 -0.824218 1.84375 -1.84375 1.84375 c -1.015625 0 -1.84375 -0.824219 -1.84375 -1.84375 v -1.460937 c 0 -1.019532 0.828125 -1.84375 1.84375 -1.84375 z m 0 0"
             fill="#241f31"
             id="path69" />
          <path
             d="m 95.253906 112.714844 c 1.019532 0 1.84375 0.824218 1.84375 1.84375 v 1.460937 c 0 1.019531 -0.824218 1.84375 -1.84375 1.84375 c -1.015625 0 -1.84375 -0.824219 -1.84375 -1.84375 v -1.460937 c 0 -1.019532 0.828125 -1.84375 1.84375 -1.84375 z m 0 0"
             fill="#241f31"
             id="path70" />
          <path
             d="m 103.550781 99.839844 c 1.019531 0 1.84375 0.824218 1.84375 1.84375 v 1.460937 c 0 1.019531 -0.824219 1.84375 -1.84375 1.84375 c -1.015625 0 -1.84375 -0.824219 -1.84375 -1.84375 v -1.460937 c 0 -1.019532 0.828125 -1.84375 1.84375 -1.84375 z m 0 0"
             fill="#241f31"
             id="path71" />
          <path
             d="m 103.550781 112.714844 c 1.019531 0 1.84375 0.824218 1.84375 1.84375 v 1.460937 c 0 1.019531 -0.824219 1.84375 -1.84375 1.84375 c -1.015625 0 -1.84375 -0.824219 -1.84375 -1.84375 v -1.460937 c 0 -1.019532 0.828125 -1.84375 1.84375 -1.84375 z m 0 0"
             fill="#241f31"
             id="path72" />
          <path
             d="m 111.847656 99.839844 c 1.019532 0 1.847656 0.824218 1.847656 1.84375 v 1.460937 c 0 1.019531 -0.828124 1.84375 -1.847656 1.84375 c -1.015625 0 -1.84375 -0.824219 -1.84375 -1.84375 v -1.460937 c 0 -1.019532 0.828125 -1.84375 1.84375 -1.84375 z m 0 0"
             fill="#241f31"
             id="path73" />
          <path
             d="m 111.847656 112.714844 c 1.019532 0 1.847656 0.824218 1.847656 1.84375 v 1.460937 c 0 1.019531 -0.828124 1.84375 -1.847656 1.84375 c -1.015625 0 -1.84375 -0.824219 -1.84375 -1.84375 v -1.460937 c 0 -1.019532 0.828125 -1.84375 1.84375 -1.84375 z m 0 0"
             fill="#241f31"
             id="path74" />
          <path
             d="m 12.28125 62.039062 h 100.488281 c 6.113281 0 11.066407 4.953126 11.066407 11.0625 v 14.75 c 0 6.113282 -4.953126 11.066407 -11.066407 11.066407 h -100.488281 c -6.109375 0 -11.0625 -4.953125 -11.0625 -11.066407 v -14.75 c 0 -6.109374 4.953125 -11.0625 11.0625 -11.0625 z m 0 0"
             fill="url(#c)"
             id="path75" />
          <path
             d="m 12.28125 17.785156 h 100.488281 c 6.113281 0 11.066407 4.953125 11.066407 11.0625 v 52.550782 c 0 6.109374 -4.953126 11.0625 -11.066407 11.0625 h -100.488281 c -6.109375 0 -11.0625 -4.953126 -11.0625 -11.0625 v -52.550782 c 0 -6.109375 4.953125 -11.0625 11.0625 -11.0625 z m 0 0"
             fill="#5e5c64"
             id="path76" />
          <path
             d="m 15.96875 27.003906 h 93.113281 c 4.585938 0 8.300781 3.714844 8.300781 8.300782 v 39.640624 c 0 4.582032 -3.714843 8.296876 -8.300781 8.296876 h -93.113281 c -4.582031 0 -8.296875 -3.714844 -8.296875 -8.296876 v -39.640624 c 0 -4.585938 3.714844 -8.300782 8.296875 -8.300782 z m 0 0"
             fill="#241f31"
             id="path77" />
          <g
             clip-path="url(#j)"
             id="g79">
            <g
               clip-path="url(#k)"
               id="g78">
              <path
                 d="m 27.292969 24.070312 l 5.527343 20.632813 l 16.507813 -4.421875 l -1.105469 -4.128906 z m -8.105469 11.015626 c -3.402344 0.914062 -5.441406 4.449218 -4.53125 7.851562 c 0.910156 3.398438 4.449219 5.441406 7.847656 4.53125 c 3.402344 -0.914062 5.445313 -4.449219 4.53125 -7.847656 c -0.910156 -3.402344 -4.445312 -5.445313 -7.847656 -4.535156 z m 1.105469 4.128906 c 1.160156 -0.3125 2.304687 0.347656 2.617187 1.511718 c 0.3125 1.160157 -0.351562 2.304688 -1.511718 2.613282 c -1.160157 0.3125 -2.304688 -0.347656 -2.613282 -1.507813 c -0.3125 -1.160156 0.347656 -2.304687 1.507813 -2.617187 z m -2.871094 14.039062 l 1.105469 4.125 l 24.757812 -6.632812 l -1.105468 -4.128906 z m 2.210937 8.253906 l 1.105469 4.125 l 24.761719 -6.632812 l -1.109375 -4.128906 z m 2.210938 8.253907 l 1.105469 4.125 l 24.761719 -6.632813 l -1.105469 -4.128906 z m 0 0"
                 fill="#f6d32d"
                 id="path78" />
            </g>
          </g>
          <g
             clip-path="url(#l)"
             id="g81">
            <g
               clip-path="url(#m)"
               id="g80">
              <path
                 d="m 10.570312 77.203125 c 1.835938 6.851563 8.84375 10.898437 15.695313 9.0625 l 24.761719 -6.632813 c 6.851562 -1.835937 10.898437 -8.847656 9.0625 -15.699218 l -6.632813 -24.757813 c -1.003906 -3.742187 -3.445312 -6.921875 -6.796875 -8.855469 l -13.53125 -7.8125 c -3.351562 -1.9375 -7.328125 -2.460937 -11.066406 -1.457031 l -12.382812 3.316407 c -6.851563 1.835937 -10.898438 8.84375 -9.0625 15.695312 z m 1.320313 -44.582031 l 12.382813 -3.320313 c 1.546874 -0.414062 3.195312 -0.199219 4.582031 0.605469 l 13.53125 7.8125 c 1.390625 0.800781 2.402343 2.121094 2.816406 3.667969 l 6.632813 24.757812 c 0.605468 2.257813 -0.765626 4.628907 -3.019532 5.234375 l -24.761718 6.632813 c -2.257813 0.605469 -4.625 -0.761719 -5.230469 -3.019531 l -9.953125 -37.140626 c -0.605469 -2.257812 0.765625 -4.628906 3.019531 -5.230468 z m 0 0"
                 fill="#f6d32d"
                 id="path79" />
            </g>
          </g>
          <g
             clip-path="url(#n)"
             id="g83">
            <g
               clip-path="url(#o)"
               id="g82">
              <path
                 d="m 105.304688 30.804688 c -15.585938 -3.613282 -31.261719 6.160156 -34.875 21.742187 c -3.617188 15.585937 6.15625 31.257813 21.738281 34.875 c 15.585937 3.613281 31.261719 -6.15625 34.875 -21.742187 c 3.617187 -15.582032 -6.15625 -31.257813 -21.738281 -34.875 z m 4.933593 10.34375 c 3.304688 2.101562 5.910157 5.054687 7.605469 8.476562 l -4.628906 -1.074219 c -0.617188 -2.566406 -1.609375 -5.066406 -2.976563 -7.402343 z m -14.046875 -3.210938 c -2.226562 1.503906 -4.210937 3.28125 -5.890625 5.296875 l -4.539062 -1.050781 c 2.988281 -2.304688 6.59375 -3.785156 10.429687 -4.246094 z m 5.105469 1.570312 l -1.382813 5.957032 l -5.277343 -1.222656 c 1.890625 -1.921876 4.113281 -3.535157 6.660156 -4.734376 z m 3.761719 0.9375 c 1.714844 2.167969 2.992187 4.578126 3.835937 7.101563 l -5.207031 -1.207031 z m -22.636719 4.941407 l 5.441406 1.261719 c -1.375 2.242187 -2.46875 4.679687 -3.226562 7.207031 l -6.132813 -1.421875 c 0.863282 -2.644532 2.21875 -5.019532 3.917969 -7.046875 z m 9.464844 2.195312 l 7.152343 1.660157 l -1.75 7.546874 l -8.847656 -2.050781 c 0.777344 -2.539062 1.925782 -4.960937 3.445313 -7.15625 z m 10.925781 2.535157 l 7.078125 1.640624 c 0.398437 2.640626 0.363281 5.320313 -0.054687 7.941407 l -8.773438 -2.035157 z m 11.101562 2.574218 l 5.515626 1.277344 c 0.628906 2.570312 0.804687 5.300781 0.414062 8.054688 l -6.207031 -1.441407 c 0.433593 -2.601562 0.523437 -5.269531 0.277343 -7.890625 z m -36.285156 3.515625 l 6.132813 1.421875 c -0.417969 2.605469 -0.523438 5.269532 -0.261719 7.894532 l -5.457031 -1.265626 c -0.628907 -2.570312 -0.804688 -5.300781 -0.414063 -8.050781 z m 9.9375 2.304688 l 8.84375 2.050781 l -1.75 7.550781 l -7.136718 -1.65625 c -0.398438 -2.625 -0.363282 -5.320312 0.042968 -7.945312 z m 12.621094 2.925781 l 8.769531 2.035156 c -0.789062 2.535156 -1.945312 4.972656 -3.460937 7.152344 l -7.0625 -1.636719 z m 12.574219 2.917969 l 6.207031 1.441406 c -0.859375 2.644531 -2.21875 5.015625 -3.917969 7.046875 l -5.527343 -1.285156 c 1.386718 -2.238282 2.46875 -4.679688 3.238281 -7.203125 z m -33.128907 4.246093 l 4.570313 1.0625 c 0.644531 2.574219 1.648437 5.074219 3.03125 7.414063 c -3.300781 -2.101563 -5.910156 -5.054687 -7.601563 -8.476563 z m 8.917969 2.070313 l 5.234375 1.214844 l -1.359375 5.851562 c -1.734375 -2.15625 -3.027343 -4.554687 -3.875 -7.066406 z m 9.007813 2.089844 l 5.160156 1.199219 c -1.847656 1.867187 -4.027344 3.429687 -6.503906 4.59375 z m 9.511718 2.207031 l 4.644532 1.078125 c -3.0625 2.347656 -6.753906 3.855469 -10.6875 4.261719 c 2.304687 -1.484375 4.324218 -3.300782 6.042968 -5.339844 z m 0 0"
                 fill="#1c71d8"
                 id="path81" />
            </g>
          </g>
          <path
             d="m 52.484375 40.144531 c -2.601563 0 -4.722656 2.09375 -4.722656 4.664063 c 0 2.589844 2.121093 4.667968 4.722656 4.667968 c 2.605469 0 4.726563 -2.078124 4.726563 -4.667968 c 0 -2.570313 -2.121094 -4.664063 -4.726563 -4.664063 z m 14.953125 10.152344 l -8.269531 11.378906 c -0.480469 0.671875 -1.238281 1.09375 -2.066407 1.148438 c -0.832031 0.070312 -1.644531 -0.238281 -2.234374 -0.820313 l -1.9375 -1.953125 c -0.867188 -0.890625 -2.105469 -1.328125 -3.339844 -1.21875 c -1.238282 0.125 -2.363282 0.78125 -3.046875 1.804688 l -3.507813 5.175781 v 4.667969 c 0 2.332031 2.363282 2.332031 2.363282 2.332031 h 33.074218 s 2.234375 -0.144531 2.363282 -2.332031 v -10.027344 c 0 -1.128906 -0.386719 -2.222656 -1.125 -3.097656 l -6.035157 -7.257813 c -0.777343 -0.929687 -1.941406 -1.441406 -3.15625 -1.402344 c -1.238281 0.035157 -2.363281 0.636719 -3.082031 1.601563 z m 0 0"
             fill="#33d17a"
             id="path83" />
          <path
             d="m 43.035156 21.472656 c -7.769531 0 -14.171875 6.328125 -14.171875 14.003906 v 37.335938 c 0 7.695312 6.402344 14.003906 14.171875 14.003906 h 37.800782 c 7.769531 0 14.175781 -6.308594 14.175781 -14.003906 v -37.335938 c 0 -7.675781 -6.40625 -14.003906 -14.175781 -14.003906 z m 0 9.335938 h 37.800782 c 2.695312 0 4.722656 2.003906 4.722656 4.667968 v 37.335938 c 0 2.679688 -2.027344 4.667969 -4.722656 4.667969 h -37.800782 c -2.695312 0 -4.722656 -1.988281 -4.722656 -4.667969 v -37.335938 c 0 -2.664062 2.027344 -4.667968 4.722656 -4.667968 z m 0 0"
             fill="#33d17a"
             id="path84" />
          <path
             d="m 1.371094 83.242188 c 0.878906 5.234374 5.425781 9.21875 10.910156 9.21875 h 100.488281 c 5.484375 0 10.035157 -3.984376 10.910157 -9.21875 h -14.585938 c -0.003906 0 -0.007812 0 -0.011719 0 h -93.113281 c -0.003906 0 -0.007812 0 -0.011719 0 z m 0 0"
             fill="#5e5c64"
             fill-rule="evenodd"
             id="path85" />
        </g>
      </g>
    </g>
  </mask>
  <mask
     id="s">
    <g
       filter="url(#a)"
       id="g88">
      <rect
         fill-opacity="0.8"
         height="184.32"
         width="184.32"
         x="-28.16"
         y="-28.16"
         id="rect87" />
    </g>
  </mask>
  <linearGradient
     id="t"
     gradientTransform="matrix(0 0.37 -0.98462 0 295.38501 -30.360001)"
     gradientUnits="userSpaceOnUse"
     x1="300"
     x2="428"
     y1="235"
     y2="235">
    <stop
       offset="0"
       stop-color="#f9f06b"
       id="stop88" />
    <stop
       offset="1"
       stop-color="#f5c211"
       id="stop89" />
  </linearGradient>
  <clipPath
     id="u">
    <rect
       height="128"
       width="128"
       id="rect89" />
  </clipPath>
  <clipPath
     id="v">
    <rect
       height="128"
       width="128"
       id="rect90" />
  </clipPath>
  <path
     d="m 15.96875 38.070312 h 93.113281 c 5.601563 0 10.144531 4.539063 10.144531 10.140626 v 69.144531 c 0 5.601562 -4.542968 10.140625 -10.144531 10.140625 h -93.113281 c -5.601562 0 -10.140625 -4.539063 -10.140625 -10.140625 v -69.144531 c 0 -5.601563 4.539063 -10.140626 10.140625 -10.140626 z m 0 0"
     fill="url(#b)"
     id="path90" />
  <g
     fill="#241f31"
     id="g140">
    <path
       d="m 16.890625 106.703125 c 1.019531 0 1.84375 0.828125 1.84375 1.84375 v 1.464844 c 0 1.019531 -0.824219 1.84375 -1.84375 1.84375 s -1.84375 -0.824219 -1.84375 -1.84375 v -1.464844 c 0 -1.015625 0.824219 -1.84375 1.84375 -1.84375 z m 0 0"
       id="path91" />
    <path
       d="m 16.890625 119.582031 c 1.019531 0 1.84375 0.824219 1.84375 1.84375 v 1.460938 c 0 1.019531 -0.824219 1.84375 -1.84375 1.84375 s -1.84375 -0.824219 -1.84375 -1.84375 v -1.460938 c 0 -1.019531 0.824219 -1.84375 1.84375 -1.84375 z m 0 0"
       id="path92" />
    <path
       d="m 25.1875 106.703125 c 1.019531 0 1.84375 0.828125 1.84375 1.84375 v 1.464844 c 0 1.019531 -0.824219 1.84375 -1.84375 1.84375 s -1.84375 -0.824219 -1.84375 -1.84375 v -1.464844 c 0 -1.015625 0.824219 -1.84375 1.84375 -1.84375 z m 0 0"
       id="path93" />
    <path
       d="m 25.1875 119.582031 c 1.019531 0 1.84375 0.824219 1.84375 1.84375 v 1.460938 c 0 1.019531 -0.824219 1.84375 -1.84375 1.84375 s -1.84375 -0.824219 -1.84375 -1.84375 v -1.460938 c 0 -1.019531 0.824219 -1.84375 1.84375 -1.84375 z m 0 0"
       id="path94" />
    <path
       d="m 33.484375 106.703125 c 1.019531 0 1.84375 0.828125 1.84375 1.84375 v 1.464844 c 0 1.019531 -0.824219 1.84375 -1.84375 1.84375 s -1.84375 -0.824219 -1.84375 -1.84375 v -1.464844 c 0 -1.015625 0.824219 -1.84375 1.84375 -1.84375 z m 0 0"
       id="path95" />
    <path
       d="m 33.484375 119.582031 c 1.019531 0 1.84375 0.824219 1.84375 1.84375 v 1.460938 c 0 1.019531 -0.824219 1.84375 -1.84375 1.84375 s -1.84375 -0.824219 -1.84375 -1.84375 v -1.460938 c 0 -1.019531 0.824219 -1.84375 1.84375 -1.84375 z m 0 0"
       id="path96" />
    <path
       d="m 41.78125 106.703125 c 1.019531 0 1.84375 0.828125 1.84375 1.84375 v 1.464844 c 0 1.019531 -0.824219 1.84375 -1.84375 1.84375 c -1.015625 0 -1.84375 -0.824219 -1.84375 -1.84375 v -1.464844 c 0 -1.015625 0.828125 -1.84375 1.84375 -1.84375 z m 0 0"
       id="path97" />
    <path
       d="m 41.78125 119.582031 c 1.019531 0 1.84375 0.824219 1.84375 1.84375 v 1.460938 c 0 1.019531 -0.824219 1.84375 -1.84375 1.84375 c -1.015625 0 -1.84375 -0.824219 -1.84375 -1.84375 v -1.460938 c 0 -1.019531 0.828125 -1.84375 1.84375 -1.84375 z m 0 0"
       id="path98" />
    <path
       d="m 50.078125 106.703125 c 1.019531 0 1.84375 0.828125 1.84375 1.84375 v 1.464844 c 0 1.019531 -0.824219 1.84375 -1.84375 1.84375 c -1.015625 0 -1.84375 -0.824219 -1.84375 -1.84375 v -1.464844 c 0 -1.015625 0.828125 -1.84375 1.84375 -1.84375 z m 0 0"
       id="path99" />
    <path
       d="m 50.078125 119.582031 c 1.019531 0 1.84375 0.824219 1.84375 1.84375 v 1.460938 c 0 1.019531 -0.824219 1.84375 -1.84375 1.84375 c -1.015625 0 -1.84375 -0.824219 -1.84375 -1.84375 v -1.460938 c 0 -1.019531 0.828125 -1.84375 1.84375 -1.84375 z m 0 0"
       id="path100" />
    <path
       d="m 58.378906 106.703125 c 1.015625 0 1.84375 0.828125 1.84375 1.84375 v 1.464844 c 0 1.019531 -0.828125 1.84375 -1.84375 1.84375 c -1.019531 0 -1.84375 -0.824219 -1.84375 -1.84375 v -1.464844 c 0 -1.015625 0.824219 -1.84375 1.84375 -1.84375 z m 0 0"
       id="path101" />
    <path
       d="m 58.378906 119.582031 c 1.015625 0 1.84375 0.824219 1.84375 1.84375 v 1.460938 c 0 1.019531 -0.828125 1.84375 -1.84375 1.84375 c -1.019531 0 -1.84375 -0.824219 -1.84375 -1.84375 v -1.460938 c 0 -1.019531 0.824219 -1.84375 1.84375 -1.84375 z m 0 0"
       id="path102" />
    <path
       d="m 66.675781 106.703125 c 1.015625 0 1.84375 0.828125 1.84375 1.84375 v 1.464844 c 0 1.019531 -0.828125 1.84375 -1.84375 1.84375 c -1.019531 0 -1.84375 -0.824219 -1.84375 -1.84375 v -1.464844 c 0 -1.015625 0.824219 -1.84375 1.84375 -1.84375 z m 0 0"
       id="path103" />
    <path
       d="m 66.675781 119.582031 c 1.015625 0 1.84375 0.824219 1.84375 1.84375 v 1.460938 c 0 1.019531 -0.828125 1.84375 -1.84375 1.84375 c -1.019531 0 -1.84375 -0.824219 -1.84375 -1.84375 v -1.460938 c 0 -1.019531 0.824219 -1.84375 1.84375 -1.84375 z m 0 0"
       id="path104" />
    <path
       d="m 74.972656 106.703125 c 1.019532 0 1.84375 0.828125 1.84375 1.84375 v 1.464844 c 0 1.019531 -0.824218 1.84375 -1.84375 1.84375 c -1.019531 0 -1.84375 -0.824219 -1.84375 -1.84375 v -1.464844 c 0 -1.015625 0.824219 -1.84375 1.84375 -1.84375 z m 0 0"
       id="path105" />
    <path
       d="m 74.972656 119.582031 c 1.019532 0 1.84375 0.824219 1.84375 1.84375 v 1.460938 c 0 1.019531 -0.824218 1.84375 -1.84375 1.84375 c -1.019531 0 -1.84375 -0.824219 -1.84375 -1.84375 v -1.460938 c 0 -1.019531 0.824219 -1.84375 1.84375 -1.84375 z m 0 0"
       id="path106" />
    <path
       d="m 83.269531 106.703125 c 1.019531 0 1.84375 0.828125 1.84375 1.84375 v 1.464844 c 0 1.019531 -0.824219 1.84375 -1.84375 1.84375 s -1.84375 -0.824219 -1.84375 -1.84375 v -1.464844 c 0 -1.015625 0.824219 -1.84375 1.84375 -1.84375 z m 0 0"
       id="path107" />
    <path
       d="m 83.269531 119.582031 c 1.019531 0 1.84375 0.824219 1.84375 1.84375 v 1.460938 c 0 1.019531 -0.824219 1.84375 -1.84375 1.84375 s -1.84375 -0.824219 -1.84375 -1.84375 v -1.460938 c 0 -1.019531 0.824219 -1.84375 1.84375 -1.84375 z m 0 0"
       id="path108" />
    <path
       d="m 91.566406 106.703125 c 1.019532 0 1.84375 0.828125 1.84375 1.84375 v 1.464844 c 0 1.019531 -0.824218 1.84375 -1.84375 1.84375 c -1.019531 0 -1.84375 -0.824219 -1.84375 -1.84375 v -1.464844 c 0 -1.015625 0.824219 -1.84375 1.84375 -1.84375 z m 0 0"
       id="path109" />
    <path
       d="m 91.566406 119.582031 c 1.019532 0 1.84375 0.824219 1.84375 1.84375 v 1.460938 c 0 1.019531 -0.824218 1.84375 -1.84375 1.84375 c -1.019531 0 -1.84375 -0.824219 -1.84375 -1.84375 v -1.460938 c 0 -1.019531 0.824219 -1.84375 1.84375 -1.84375 z m 0 0"
       id="path110" />
    <path
       d="m 99.863281 106.703125 c 1.019531 0 1.84375 0.828125 1.84375 1.84375 v 1.464844 c 0 1.019531 -0.824219 1.84375 -1.84375 1.84375 c -1.015625 0 -1.84375 -0.824219 -1.84375 -1.84375 v -1.464844 c 0 -1.015625 0.828125 -1.84375 1.84375 -1.84375 z m 0 0"
       id="path111" />
    <path
       d="m 99.863281 119.582031 c 1.019531 0 1.84375 0.824219 1.84375 1.84375 v 1.460938 c 0 1.019531 -0.824219 1.84375 -1.84375 1.84375 c -1.015625 0 -1.84375 -0.824219 -1.84375 -1.84375 v -1.460938 c 0 -1.019531 0.828125 -1.84375 1.84375 -1.84375 z m 0 0"
       id="path112" />
    <path
       d="m 108.160156 106.703125 c 1.019532 0 1.84375 0.828125 1.84375 1.84375 v 1.464844 c 0 1.019531 -0.824218 1.84375 -1.84375 1.84375 c -1.015625 0 -1.84375 -0.824219 -1.84375 -1.84375 v -1.464844 c 0 -1.015625 0.828125 -1.84375 1.84375 -1.84375 z m 0 0"
       id="path113" />
    <path
       d="m 108.160156 119.582031 c 1.019532 0 1.84375 0.824219 1.84375 1.84375 v 1.460938 c 0 1.019531 -0.824218 1.84375 -1.84375 1.84375 c -1.015625 0 -1.84375 -0.824219 -1.84375 -1.84375 v -1.460938 c 0 -1.019531 0.828125 -1.84375 1.84375 -1.84375 z m 0 0"
       id="path114" />
    <path
       d="m 12.28125 99.839844 c 1.019531 0 1.84375 0.824218 1.84375 1.84375 v 1.460937 c 0 1.019531 -0.824219 1.84375 -1.84375 1.84375 s -1.84375 -0.824219 -1.84375 -1.84375 v -1.460937 c 0 -1.019532 0.824219 -1.84375 1.84375 -1.84375 z m 0 0"
       id="path115" />
    <path
       d="m 12.28125 112.714844 c 1.019531 0 1.84375 0.824218 1.84375 1.84375 v 1.460937 c 0 1.019531 -0.824219 1.84375 -1.84375 1.84375 s -1.84375 -0.824219 -1.84375 -1.84375 v -1.460937 c 0 -1.019532 0.824219 -1.84375 1.84375 -1.84375 z m 0 0"
       id="path116" />
    <path
       d="m 20.578125 99.839844 c 1.019531 0 1.84375 0.824218 1.84375 1.84375 v 1.460937 c 0 1.019531 -0.824219 1.84375 -1.84375 1.84375 s -1.84375 -0.824219 -1.84375 -1.84375 v -1.460937 c 0 -1.019532 0.824219 -1.84375 1.84375 -1.84375 z m 0 0"
       id="path117" />
    <path
       d="m 20.578125 112.714844 c 1.019531 0 1.84375 0.824218 1.84375 1.84375 v 1.460937 c 0 1.019531 -0.824219 1.84375 -1.84375 1.84375 s -1.84375 -0.824219 -1.84375 -1.84375 v -1.460937 c 0 -1.019532 0.824219 -1.84375 1.84375 -1.84375 z m 0 0"
       id="path118" />
    <path
       d="m 28.875 99.839844 c 1.019531 0 1.84375 0.824218 1.84375 1.84375 v 1.460937 c 0 1.019531 -0.824219 1.84375 -1.84375 1.84375 s -1.84375 -0.824219 -1.84375 -1.84375 v -1.460937 c 0 -1.019532 0.824219 -1.84375 1.84375 -1.84375 z m 0 0"
       id="path119" />
    <path
       d="m 28.875 112.714844 c 1.019531 0 1.84375 0.824218 1.84375 1.84375 v 1.460937 c 0 1.019531 -0.824219 1.84375 -1.84375 1.84375 s -1.84375 -0.824219 -1.84375 -1.84375 v -1.460937 c 0 -1.019532 0.824219 -1.84375 1.84375 -1.84375 z m 0 0"
       id="path120" />
    <path
       d="m 37.171875 99.839844 c 1.019531 0 1.84375 0.824218 1.84375 1.84375 v 1.460937 c 0 1.019531 -0.824219 1.84375 -1.84375 1.84375 c -1.015625 0 -1.84375 -0.824219 -1.84375 -1.84375 v -1.460937 c 0 -1.019532 0.828125 -1.84375 1.84375 -1.84375 z m 0 0"
       id="path121" />
    <path
       d="m 37.171875 112.714844 c 1.019531 0 1.84375 0.824218 1.84375 1.84375 v 1.460937 c 0 1.019531 -0.824219 1.84375 -1.84375 1.84375 c -1.015625 0 -1.84375 -0.824219 -1.84375 -1.84375 v -1.460937 c 0 -1.019532 0.828125 -1.84375 1.84375 -1.84375 z m 0 0"
       id="path122" />
    <path
       d="m 45.46875 99.839844 c 1.019531 0 1.84375 0.824218 1.84375 1.84375 v 1.460937 c 0 1.019531 -0.824219 1.84375 -1.84375 1.84375 c -1.015625 0 -1.84375 -0.824219 -1.84375 -1.84375 v -1.460937 c 0 -1.019532 0.828125 -1.84375 1.84375 -1.84375 z m 0 0"
       id="path123" />
    <path
       d="m 45.46875 112.714844 c 1.019531 0 1.84375 0.824218 1.84375 1.84375 v 1.460937 c 0 1.019531 -0.824219 1.84375 -1.84375 1.84375 c -1.015625 0 -1.84375 -0.824219 -1.84375 -1.84375 v -1.460937 c 0 -1.019532 0.828125 -1.84375 1.84375 -1.84375 z m 0 0"
       id="path124" />
    <path
       d="m 53.769531 99.839844 c 1.015625 0 1.84375 0.824218 1.84375 1.84375 v 1.460937 c 0 1.019531 -0.828125 1.84375 -1.84375 1.84375 c -1.019531 0 -1.847656 -0.824219 -1.847656 -1.84375 v -1.460937 c 0 -1.019532 0.828125 -1.84375 1.847656 -1.84375 z m 0 0"
       id="path125" />
    <path
       d="m 53.769531 112.714844 c 1.015625 0 1.84375 0.824218 1.84375 1.84375 v 1.460937 c 0 1.019531 -0.828125 1.84375 -1.84375 1.84375 c -1.019531 0 -1.847656 -0.824219 -1.847656 -1.84375 v -1.460937 c 0 -1.019532 0.828125 -1.84375 1.847656 -1.84375 z m 0 0"
       id="path126" />
    <path
       d="m 62.066406 99.839844 c 1.015625 0 1.84375 0.824218 1.84375 1.84375 v 1.460937 c 0 1.019531 -0.828125 1.84375 -1.84375 1.84375 c -1.019531 0 -1.84375 -0.824219 -1.84375 -1.84375 v -1.460937 c 0 -1.019532 0.824219 -1.84375 1.84375 -1.84375 z m 0 0"
       id="path127" />
    <path
       d="m 62.066406 112.714844 c 1.015625 0 1.84375 0.824218 1.84375 1.84375 v 1.460937 c 0 1.019531 -0.828125 1.84375 -1.84375 1.84375 c -1.019531 0 -1.84375 -0.824219 -1.84375 -1.84375 v -1.460937 c 0 -1.019532 0.824219 -1.84375 1.84375 -1.84375 z m 0 0"
       id="path128" />
    <path
       d="m 70.363281 99.839844 c 1.015625 0 1.84375 0.824218 1.84375 1.84375 v 1.460937 c 0 1.019531 -0.828125 1.84375 -1.84375 1.84375 c -1.019531 0 -1.84375 -0.824219 -1.84375 -1.84375 v -1.460937 c 0 -1.019532 0.824219 -1.84375 1.84375 -1.84375 z m 0 0"
       id="path129" />
    <path
       d="m 70.363281 112.714844 c 1.015625 0 1.84375 0.824218 1.84375 1.84375 v 1.460937 c 0 1.019531 -0.828125 1.84375 -1.84375 1.84375 c -1.019531 0 -1.84375 -0.824219 -1.84375 -1.84375 v -1.460937 c 0 -1.019532 0.824219 -1.84375 1.84375 -1.84375 z m 0 0"
       id="path130" />
    <path
       d="m 78.660156 99.839844 c 1.019532 0 1.84375 0.824218 1.84375 1.84375 v 1.460937 c 0 1.019531 -0.824218 1.84375 -1.84375 1.84375 c -1.019531 0 -1.84375 -0.824219 -1.84375 -1.84375 v -1.460937 c 0 -1.019532 0.824219 -1.84375 1.84375 -1.84375 z m 0 0"
       id="path131" />
    <path
       d="m 78.660156 112.714844 c 1.019532 0 1.84375 0.824218 1.84375 1.84375 v 1.460937 c 0 1.019531 -0.824218 1.84375 -1.84375 1.84375 c -1.019531 0 -1.84375 -0.824219 -1.84375 -1.84375 v -1.460937 c 0 -1.019532 0.824219 -1.84375 1.84375 -1.84375 z m 0 0"
       id="path132" />
    <path
       d="m 86.957031 99.839844 c 1.019531 0 1.84375 0.824218 1.84375 1.84375 v 1.460937 c 0 1.019531 -0.824219 1.84375 -1.84375 1.84375 s -1.84375 -0.824219 -1.84375 -1.84375 v -1.460937 c 0 -1.019532 0.824219 -1.84375 1.84375 -1.84375 z m 0 0"
       id="path133" />
    <path
       d="m 86.957031 112.714844 c 1.019531 0 1.84375 0.824218 1.84375 1.84375 v 1.460937 c 0 1.019531 -0.824219 1.84375 -1.84375 1.84375 s -1.84375 -0.824219 -1.84375 -1.84375 v -1.460937 c 0 -1.019532 0.824219 -1.84375 1.84375 -1.84375 z m 0 0"
       id="path134" />
    <path
       d="m 95.253906 99.839844 c 1.019532 0 1.84375 0.824218 1.84375 1.84375 v 1.460937 c 0 1.019531 -0.824218 1.84375 -1.84375 1.84375 c -1.015625 0 -1.84375 -0.824219 -1.84375 -1.84375 v -1.460937 c 0 -1.019532 0.828125 -1.84375 1.84375 -1.84375 z m 0 0"
       id="path135" />
    <path
       d="m 95.253906 112.714844 c 1.019532 0 1.84375 0.824218 1.84375 1.84375 v 1.460937 c 0 1.019531 -0.824218 1.84375 -1.84375 1.84375 c -1.015625 0 -1.84375 -0.824219 -1.84375 -1.84375 v -1.460937 c 0 -1.019532 0.828125 -1.84375 1.84375 -1.84375 z m 0 0"
       id="path136" />
    <path
       d="m 103.550781 99.839844 c 1.019531 0 1.84375 0.824218 1.84375 1.84375 v 1.460937 c 0 1.019531 -0.824219 1.84375 -1.84375 1.84375 c -1.015625 0 -1.84375 -0.824219 -1.84375 -1.84375 v -1.460937 c 0 -1.019532 0.828125 -1.84375 1.84375 -1.84375 z m 0 0"
       id="path137" />
    <path
       d="m 103.550781 112.714844 c 1.019531 0 1.84375 0.824218 1.84375 1.84375 v 1.460937 c 0 1.019531 -0.824219 1.84375 -1.84375 1.84375 c -1.015625 0 -1.84375 -0.824219 -1.84375 -1.84375 v -1.460937 c 0 -1.019532 0.828125 -1.84375 1.84375 -1.84375 z m 0 0"
       id="path138" />
    <path
       d="m 111.847656 99.839844 c 1.019532 0 1.847656 0.824218 1.847656 1.84375 v 1.460937 c 0 1.019531 -0.828124 1.84375 -1.847656 1.84375 c -1.015625 0 -1.84375 -0.824219 -1.84375 -1.84375 v -1.460937 c 0 -1.019532 0.828125 -1.84375 1.84375 -1.84375 z m 0 0"
       id="path139" />
    <path
       d="m 111.847656 112.714844 c 1.019532 0 1.847656 0.824218 1.847656 1.84375 v 1.460937 c 0 1.019531 -0.828124 1.84375 -1.847656 1.84375 c -1.015625 0 -1.84375 -0.824219 -1.84375 -1.84375 v -1.460937 c 0 -1.019532 0.828125 -1.84375 1.84375 -1.84375 z m 0 0"
       id="path140" />
  </g>
  <g
     mask="url(#r)"
     id="g156">
    <g
       clip-path="url(#v)"
       id="g155">
      <g
         mask="url(#s)"
         id="g154">
        <g
           clip-path="url(#u)"
           id="g153">
          <path
             d="m 128 80.640625 v 47.359375 h -128 v -47.359375 z m 0 0"
             fill="url(#t)"
             id="path152" />
          <path
             d="m 13.308594 80.640625 l 47.355468 47.359375 h 21.214844 l -47.359375 -47.359375 z m 42.421875 0 l 47.363281 47.359375 h 21.214844 l -47.363282 -47.359375 z m 42.429687 0 l 29.839844 29.839844 v -21.210938 l -8.628906 -8.628906 z m -98.160156 7.90625 v 21.214844 l 18.238281 18.238281 h 21.214844 z m 0 0"
             id="path153" />
        </g>
      </g>
    </g>
  </g>
  <path
     d="m 12.28125 62.039062 h 100.488281 c 6.113281 0 11.066407 4.953126 11.066407 11.0625 v 14.75 c 0 6.113282 -4.953126 11.066407 -11.066407 11.066407 h -100.488281 c -6.109375 0 -11.0625 -4.953125 -11.0625 -11.066407 v -14.75 c 0 -6.109374 4.953125 -11.0625 11.0625 -11.0625 z m 0 0"
     fill="url(#c)"
     id="path141" />
  <path
     d="m 12.28125 17.785156 h 100.488281 c 6.113281 0 11.066407 4.953125 11.066407 11.0625 v 52.550782 c 0 6.109374 -4.953126 11.0625 -11.066407 11.0625 h -100.488281 c -6.109375 0 -11.0625 -4.953126 -11.0625 -11.0625 v -52.550782 c 0 -6.109375 4.953125 -11.0625 11.0625 -11.0625 z m 0 0"
     fill="#5e5c64"
     id="path142" />
  <path
     d="m 15.96875 27.003906 h 93.113281 c 4.585938 0 8.300781 3.714844 8.300781 8.300782 v 39.640624 c 0 4.582032 -3.714843 8.296876 -8.300781 8.296876 h -93.113281 c -4.582031 0 -8.296875 -3.714844 -8.296875 -8.296876 v -39.640624 c 0 -4.585938 3.714844 -8.300782 8.296875 -8.300782 z m 0 0"
     fill="#241f31"
     id="path143" />
  <g
     clip-path="url(#d)"
     id="g145">
    <g
       clip-path="url(#e)"
       id="g144">
      <path
         d="m 27.292969 24.070312 l 5.527343 20.632813 l 16.507813 -4.421875 l -1.105469 -4.128906 z m -8.105469 11.015626 c -3.402344 0.914062 -5.441406 4.449218 -4.53125 7.851562 c 0.910156 3.398438 4.449219 5.441406 7.847656 4.53125 c 3.402344 -0.914062 5.445313 -4.449219 4.53125 -7.847656 c -0.910156 -3.402344 -4.445312 -5.445313 -7.847656 -4.535156 z m 1.105469 4.128906 c 1.160156 -0.3125 2.304687 0.347656 2.617187 1.511718 c 0.3125 1.160157 -0.351562 2.304688 -1.511718 2.613282 c -1.160157 0.3125 -2.304688 -0.347656 -2.613282 -1.507813 c -0.3125 -1.160156 0.347656 -2.304687 1.507813 -2.617187 z m -2.871094 14.039062 l 1.105469 4.125 l 24.757812 -6.632812 l -1.105468 -4.128906 z m 2.210937 8.253906 l 1.105469 4.125 l 24.761719 -6.632812 l -1.109375 -4.128906 z m 2.210938 8.253907 l 1.105469 4.125 l 24.761719 -6.632813 l -1.105469 -4.128906 z m 0 0"
         fill="#f6d32d"
         id="path144" />
    </g>
  </g>
  <g
     clip-path="url(#f)"
     id="g147">
    <g
       clip-path="url(#g)"
       id="g146">
      <path
         d="m 10.570312 77.203125 c 1.835938 6.851563 8.84375 10.898437 15.695313 9.0625 l 24.761719 -6.632813 c 6.851562 -1.835937 10.898437 -8.847656 9.0625 -15.699218 l -6.632813 -24.757813 c -1.003906 -3.742187 -3.445312 -6.921875 -6.796875 -8.855469 l -13.53125 -7.8125 c -3.351562 -1.9375 -7.328125 -2.460937 -11.066406 -1.457031 l -12.382812 3.316407 c -6.851563 1.835937 -10.898438 8.84375 -9.0625 15.695312 z m 1.320313 -44.582031 l 12.382813 -3.320313 c 1.546874 -0.414062 3.195312 -0.199219 4.582031 0.605469 l 13.53125 7.8125 c 1.390625 0.800781 2.402343 2.121094 2.816406 3.667969 l 6.632813 24.757812 c 0.605468 2.257813 -0.765626 4.628907 -3.019532 5.234375 l -24.761718 6.632813 c -2.257813 0.605469 -4.625 -0.761719 -5.230469 -3.019531 l -9.953125 -37.140626 c -0.605469 -2.257812 0.765625 -4.628906 3.019531 -5.230468 z m 0 0"
         fill="#f6d32d"
         id="path145" />
    </g>
  </g>
  <g
     clip-path="url(#h)"
     id="g149">
    <g
       clip-path="url(#i)"
       id="g148">
      <path
         d="m 105.304688 30.804688 c -15.585938 -3.613282 -31.261719 6.160156 -34.875 21.742187 c -3.617188 15.585937 6.15625 31.257813 21.738281 34.875 c 15.585937 3.613281 31.261719 -6.15625 34.875 -21.742187 c 3.617187 -15.582032 -6.15625 -31.257813 -21.738281 -34.875 z m 4.933593 10.34375 c 3.304688 2.101562 5.910157 5.054687 7.605469 8.476562 l -4.628906 -1.074219 c -0.617188 -2.566406 -1.609375 -5.066406 -2.976563 -7.402343 z m -14.046875 -3.210938 c -2.226562 1.503906 -4.210937 3.28125 -5.890625 5.296875 l -4.539062 -1.050781 c 2.988281 -2.304688 6.59375 -3.785156 10.429687 -4.246094 z m 5.105469 1.570312 l -1.382813 5.957032 l -5.277343 -1.222656 c 1.890625 -1.921876 4.113281 -3.535157 6.660156 -4.734376 z m 3.761719 0.9375 c 1.714844 2.167969 2.992187 4.578126 3.835937 7.101563 l -5.207031 -1.207031 z m -22.636719 4.941407 l 5.441406 1.261719 c -1.375 2.242187 -2.46875 4.679687 -3.226562 7.207031 l -6.132813 -1.421875 c 0.863282 -2.644532 2.21875 -5.019532 3.917969 -7.046875 z m 9.464844 2.195312 l 7.152343 1.660157 l -1.75 7.546874 l -8.847656 -2.050781 c 0.777344 -2.539062 1.925782 -4.960937 3.445313 -7.15625 z m 10.925781 2.535157 l 7.078125 1.640624 c 0.398437 2.640626 0.363281 5.320313 -0.054687 7.941407 l -8.773438 -2.035157 z m 11.101562 2.574218 l 5.515626 1.277344 c 0.628906 2.570312 0.804687 5.300781 0.414062 8.054688 l -6.207031 -1.441407 c 0.433593 -2.601562 0.523437 -5.269531 0.277343 -7.890625 z m -36.285156 3.515625 l 6.132813 1.421875 c -0.417969 2.605469 -0.523438 5.269532 -0.261719 7.894532 l -5.457031 -1.265626 c -0.628907 -2.570312 -0.804688 -5.300781 -0.414063 -8.050781 z m 9.9375 2.304688 l 8.84375 2.050781 l -1.75 7.550781 l -7.136718 -1.65625 c -0.398438 -2.625 -0.363282 -5.320312 0.042968 -7.945312 z m 12.621094 2.925781 l 8.769531 2.035156 c -0.789062 2.535156 -1.945312 4.972656 -3.460937 7.152344 l -7.0625 -1.636719 z m 12.574219 2.917969 l 6.207031 1.441406 c -0.859375 2.644531 -2.21875 5.015625 -3.917969 7.046875 l -5.527343 -1.285156 c 1.386718 -2.238282 2.46875 -4.679688 3.238281 -7.203125 z m -33.128907 4.246093 l 4.570313 1.0625 c 0.644531 2.574219 1.648437 5.074219 3.03125 7.414063 c -3.300781 -2.101563 -5.910156 -5.054687 -7.601563 -8.476563 z m 8.917969 2.070313 l 5.234375 1.214844 l -1.359375 5.851562 c -1.734375 -2.15625 -3.027343 -4.554687 -3.875 -7.066406 z m 9.007813 2.089844 l 5.160156 1.199219 c -1.847656 1.867187 -4.027344 3.429687 -6.503906 4.59375 z m 9.511718 2.207031 l 4.644532 1.078125 c -3.0625 2.347656 -6.753906 3.855469 -10.6875 4.261719 c 2.304687 -1.484375 4.324218 -3.300782 6.042968 -5.339844 z m 0 0"
         fill="#1c71d8"
         id="path147" />
    </g>
  </g>
  <path
     d="m 52.484375 40.144531 c -2.601563 0 -4.722656 2.09375 -4.722656 4.664063 c 0 2.589844 2.121093 4.667968 4.722656 4.667968 c 2.605469 0 4.726563 -2.078124 4.726563 -4.667968 c 0 -2.570313 -2.121094 -4.664063 -4.726563 -4.664063 z m 14.953125 10.152344 l -8.269531 11.378906 c -0.480469 0.671875 -1.238281 1.09375 -2.066407 1.148438 c -0.832031 0.070312 -1.644531 -0.238281 -2.234374 -0.820313 l -1.9375 -1.953125 c -0.867188 -0.890625 -2.105469 -1.328125 -3.339844 -1.21875 c -1.238282 0.125 -2.363282 0.78125 -3.046875 1.804688 l -3.507813 5.175781 v 4.667969 c 0 2.332031 2.363282 2.332031 2.363282 2.332031 h 33.074218 s 2.234375 -0.144531 2.363282 -2.332031 v -10.027344 c 0 -1.128906 -0.386719 -2.222656 -1.125 -3.097656 l -6.035157 -7.257813 c -0.777343 -0.929687 -1.941406 -1.441406 -3.15625 -1.402344 c -1.238281 0.035157 -2.363281 0.636719 -3.082031 1.601563 z m 0 0"
     fill="#33d17a"
     id="path149" />
  <path
     d="m 43.035156 21.472656 c -7.769531 0 -14.171875 6.328125 -14.171875 14.003906 v 37.335938 c 0 7.695312 6.402344 14.003906 14.171875 14.003906 h 37.800782 c 7.769531 0 14.175781 -6.308594 14.175781 -14.003906 v -37.335938 c 0 -7.675781 -6.40625 -14.003906 -14.175781 -14.003906 z m 0 9.335938 h 37.800782 c 2.695312 0 4.722656 2.003906 4.722656 4.667968 v 37.335938 c 0 2.679688 -2.027344 4.667969 -4.722656 4.667969 h -37.800782 c -2.695312 0 -4.722656 -1.988281 -4.722656 -4.667969 v -37.335938 c 0 -2.664062 2.027344 -4.667968 4.722656 -4.667968 z m 0 0"
     fill="#33d17a"
     id="path150" />
  <path
     d="m 1.371094 83.242188 c 0.878906 5.234374 5.425781 9.21875 10.910156 9.21875 h 100.488281 c 5.484375 0 10.035157 -3.984376 10.910157 -9.21875 h -14.585938 c -0.003906 0 -0.007812 0 -0.011719 0 h -93.113281 c -0.003906 0 -0.007812 0 -0.011719 0 z m 0 0"
     fill="#5e5c64"
     fill-rule="evenodd"
     id="path151" />
</svg>
